<!-- Generated by IcoMoon.io -->
<svg version="1.1" xmlns="http://www.w3.org/2000/svg" width="32" height="32" viewBox="0 0 32 32">
<title>baocun</title>
<path fill="#fff" d="M30.425 30.426c-0.963 0.967-2.294 1.567-3.765 1.574h-21.342c-2.94-0.011-5.319-2.397-5.319-5.338 0-0.001 0-0.002 0-0.002v0-21.34c0-0.005 0-0.011 0-0.017 0-2.928 2.374-5.302 5.302-5.302 0.006 0 0.012 0 0.018 0h21.339c0.001 0 0.001 0 0.002 0 2.942 0 5.327 2.379 5.338 5.318v21.341c-0.007 1.472-0.608 2.803-1.574 3.766v0zM24.532 2.128h-17.064v9.596h17.064v-9.596zM29.851 5.319c0-0.006 0-0.013 0-0.020 0-0.875-0.358-1.666-0.936-2.235v0c-0.577-0.578-1.374-0.935-2.255-0.936v0 9.936c-0.096 1.010-0.939 1.794-1.966 1.794-0.057 0-0.113-0.002-0.169-0.007l0.007 0.001h-17.064c-0.053 0.005-0.115 0.008-0.177 0.008-1.029 0-1.874-0.784-1.971-1.787l-0.001-0.008v-9.936c-0.881 0.001-1.678 0.358-2.255 0.936v0c-0.575 0.579-0.931 1.375-0.936 2.254v21.341c0.001 0.881 0.358 1.678 0.936 2.255v0c0.564 0.578 1.351 0.936 2.221 0.936 0.012 0 0.024 0 0.036 0h21.338c1.763 0 3.192-1.429 3.192-3.192v0-21.34zM21.319 4.255c0.041-0.006 0.088-0.010 0.135-0.010 0.518 0 0.938 0.42 0.938 0.938 0 0.048-0.004 0.095-0.010 0.141l0.001-0.005v3.213c0 0.588-0.476 1.064-1.064 1.064s-1.064-0.476-1.064-1.064v0-3.213c-0.005-0.038-0.008-0.081-0.008-0.125 0-0.523 0.424-0.947 0.947-0.947 0.044 0 0.088 0.003 0.13 0.009l-0.005-0.001z"></path>
</svg>
