<!-- Generated by IcoMoon.io -->
<svg version="1.1" xmlns="http://www.w3.org/2000/svg" width="32" height="32" viewBox="0 0 32 32">
<title>calendar</title>
<path d="M14.861 19.432h2.285c0.631 0 1.143-0.512 1.143-1.143s-0.512-1.143-1.143-1.143h-2.285c-0.631 0-1.143 0.512-1.143 1.143s0.512 1.143 1.143 1.143v0zM14.861 24.002h2.285c0.631 0 1.143-0.512 1.143-1.143s-0.512-1.143-1.143-1.143h-2.285c-0.631 0-1.143 0.512-1.143 1.143s0.512 1.143 1.143 1.143v0zM27.43 3.436h-4.57v-1.151c0-0.631-0.512-1.143-1.143-1.143s-1.143 0.512-1.143 1.143v1.151h-9.149v-1.151c0-0.631-0.512-1.143-1.143-1.143s-1.143 0.512-1.143 1.143v1.151h-4.57c-2.52 0.009-4.561 2.050-4.57 4.569v18.282c0.009 2.52 2.050 4.561 4.569 4.57h22.86c2.52-0.009 4.561-2.050 4.57-4.569v-18.282c-0.009-2.52-2.050-4.561-4.569-4.57h-0.001zM29.715 26.295c-0.027 1.243-1.039 2.241-2.285 2.245h-22.86c-1.26-0.005-2.281-1.025-2.285-2.285v-13.695h27.43zM29.715 10.315h-27.43v-2.309c0.005-1.26 1.025-2.281 2.285-2.285h4.571v1.143c0 0.631 0.512 1.143 1.143 1.143s1.143-0.512 1.143-1.143v-1.143h9.149v1.143c0 0.631 0.512 1.143 1.143 1.143s1.143-0.512 1.143-1.143v-1.143h4.57c1.26 0.005 2.281 1.025 2.285 2.285v0zM7.99 24.002h2.285c0.631 0 1.143-0.512 1.143-1.143s-0.512-1.143-1.143-1.143h-2.285c-0.631 0-1.143 0.512-1.143 1.143s0.512 1.143 1.143 1.143v0zM21.717 19.432h2.253c0.631 0 1.143-0.512 1.143-1.143s-0.512-1.143-1.143-1.143h-2.253c-0.631 0-1.143 0.512-1.143 1.143s0.512 1.143 1.143 1.143v0zM7.99 19.432h2.285c0.631 0 1.143-0.512 1.143-1.143s-0.512-1.143-1.143-1.143h-2.285c-0.631 0-1.143 0.512-1.143 1.143s0.512 1.143 1.143 1.143v0zM21.709 24.002h2.261c0.631 0 1.143-0.512 1.143-1.143s-0.512-1.143-1.143-1.143h-2.253c-0.631 0-1.143 0.512-1.143 1.143s0.512 1.143 1.143 1.143v0z"></path>
</svg>
