<!-- Generated by IcoMoon.io -->
<svg version="1.1" xmlns="http://www.w3.org/2000/svg" width="32" height="32" viewBox="0 0 32 32">
<title>code</title>
<path d="M31.995 12.128c-0.080 0.213-0.085 0.449-0.155 0.669-0.237 0.75-0.847 1.317-1.607 1.491l-0.015 0.003c-0.303 0.081-0.652 0.127-1.011 0.127-0.040 0-0.081-0.001-0.121-0.002h0.006q-4.512 0.006-9.029 0c-0.016 0-0.035 0.001-0.054 0.001-0.628 0-1.201-0.238-1.633-0.629l0.002 0.002c-0.344-0.333-0.585-0.77-0.675-1.26l-0.002-0.014c-0.075-0.327-0.118-0.702-0.118-1.087 0-0.017 0-0.034 0-0.051v0.003q-0.008-4.36 0-8.724c-0.001-0.027-0.002-0.060-0.002-0.092 0-0.643 0.228-1.232 0.608-1.692l-0.004 0.004c0.312-0.348 0.729-0.596 1.202-0.695l0.014-0.003c0.337-0.082 0.723-0.13 1.12-0.13 0.002 0 0.004 0 0.005 0v0q2.4 0 4.811-0.004c0.069 0 0.149 0.050 0.197-0.037-0.011 0.107-0.101 0.092-0.171 0.1-0.052 0.004-0.113 0.007-0.174 0.007-0.038 0-0.076-0.001-0.114-0.003h0.005c-1.547 0-3.088-0.004-4.629 0.004-0.043 0-0.085 0.008-0.123 0.010 0.043 0 0.085-0.010 0.123-0.010 1.547-0.008 3.088-0.004 4.629-0.004 0.033 0.002 0.072 0.003 0.111 0.003 0.062 0 0.124-0.003 0.185-0.007l-0.008 0.001c0.064-0.009 0.155 0.012 0.171-0.096h3.616c0.037 0.079 0.107 0.042 0.16 0.037 0.032-0.001 0.069-0.002 0.106-0.002 0.243 0 0.479 0.033 0.702 0.094l-0.019-0.004c0.836 0.189 1.493 0.806 1.734 1.604l0.004 0.017c0.064 0.205 0.075 0.413 0.133 0.614 0 0.002 0 0.004 0 0.006 0 0.022 0.008 0.042 0.022 0.057v0 9.689c-0.002 0.002-0.003 0.003-0.005 0.005v0zM19.136 0.331c-0.717 0.246-1.251 0.848-1.395 1.591l-0.002 0.013c-0.061 0.256-0.096 0.551-0.096 0.853 0 0.013 0 0.026 0 0.038v-0.002c0 2.806-0.005 5.609 0.005 8.415-0.003 0.057-0.004 0.124-0.004 0.192 0 0.543 0.093 1.063 0.265 1.547l-0.010-0.032c0.252 0.665 0.812 1.162 1.5 1.321l0.014 0.003c0.224 0.059 0.482 0.092 0.748 0.092 0.013 0 0.026 0 0.038 0h0.003c-0.011 0-0.024 0-0.036 0-0.266 0-0.523-0.034-0.769-0.097l0.021 0.005c-0.704-0.16-1.264-0.658-1.51-1.309l-0.005-0.014c-0.165-0.451-0.26-0.972-0.26-1.515 0-0.068 0.001-0.135 0.004-0.202v0.010c-0.005-2.806 0-5.609 0-8.415 0-0.011 0-0.024 0-0.036 0-0.303 0.035-0.597 0.101-0.879l-0.005 0.026c0.146-0.755 0.68-1.358 1.383-1.599l0.015-0.004c0.112-0.039 0.249-0.076 0.391-0.103l0.020-0.003c-0.164 0.031-0.303 0.068-0.439 0.113l0.023-0.007zM29.861 1.897c-0.144-0.052-0.31-0.083-0.483-0.087h-0.002q-4.587-0.006-9.179-0.004c-0.024-0.002-0.053-0.004-0.081-0.004-0.209 0-0.401 0.069-0.556 0.185l0.002-0.002c-0.175 0.161-0.285 0.391-0.285 0.646 0 0.022 0.001 0.045 0.003 0.067v-0.003 4.406q0 2.347 0.005 4.698c-0.006 0.036-0.010 0.076-0.010 0.118 0 0.278 0.164 0.517 0.401 0.627l0.004 0.002c0.152 0.064 0.329 0.105 0.514 0.112h4.59c1.552 0 3.099 0.009 4.651-0.004 0.028 0.004 0.059 0.006 0.092 0.006 0.421 0 0.762-0.341 0.762-0.762 0 0 0 0 0 0v0c0.011-3.124 0.005-6.248 0.005-9.372 0.001-0.012 0.001-0.026 0.001-0.041 0-0.275-0.18-0.508-0.429-0.588l-0.004-0.001zM26.613 9.453c-0.101 0.034-0.217 0.054-0.338 0.054-0.011 0-0.021 0-0.032 0h0.002c-0.987 0.004-1.979 0.004-2.965 0-0.004 0-0.008 0-0.012 0-0.218 0-0.413-0.095-0.547-0.246l-0.001-0.001c-0.103-0.125-0.171-0.283-0.186-0.456v-0.003c-0.005-0.025 0.005-0.063-0.037-0.071v-3.154c0.016-0.031 0.026-0.068 0.027-0.106v0c0.044-0.189 0.157-0.346 0.312-0.445l0.003-0.002c0.148-0.092 0.329-0.147 0.521-0.147 0.012 0 0.023 0 0.035 0.001h-0.002c0.539-0.009 1.077-0.004 1.621-0.004 0.007 0.003 0.015 0.006 0.024 0.006 0.016 0 0.030-0.007 0.040-0.018v0h1.168c0.011 0.042 0.043 0.034 0.069 0.034 0.058 0.001 0.113 0.007 0.166 0.018l-0.006-0.001c0.309 0.045 0.555 0.272 0.628 0.567l0.001 0.005c0.018 0.058 0.029 0.125 0.029 0.194 0 0.020-0.001 0.040-0.003 0.059v-0.003 3.003c0 0.008 0 0.017 0 0.026 0 0.326-0.216 0.601-0.513 0.69l-0.005 0.001zM30.107 0.135c-0.206-0.057-0.442-0.090-0.686-0.090-0.036 0-0.073 0.001-0.109 0.002h0.005c-0.053 0.004-0.128 0.046-0.16-0.042 0.163 0.025 0.352 0.040 0.543 0.040 0.049 0 0.098-0.001 0.147-0.003h-0.007c1.188 0.122 2.111 1.104 2.139 2.307v0.020c-0.059-0.2-0.069-0.413-0.133-0.614-0.248-0.813-0.904-1.43-1.723-1.617l-0.016-0.003zM12.592 14.288c-0.321 0.080-0.69 0.126-1.070 0.126-0.019 0-0.039 0-0.058 0h0.003c-3.024 0-6.048 0.017-9.072-0.008-0.028 0.001-0.061 0.002-0.095 0.002-0.889 0-1.654-0.53-1.996-1.292l-0.006-0.014c-0.156-0.305-0.25-0.665-0.256-1.046v-0.002c0-0.034 0.016-0.083-0.037-0.088 0.045 0.006 0.081 0.039 0.091 0.082v0.001c-0.008-0.049-0.043-0.089-0.090-0.103h-0.001v-9.731c0.011-0.016 0.005-0.035 0.016-0.053-0.011 0.019-0.011 0.041-0.021 0.059 0.015-0.444 0.16-0.852 0.399-1.189l-0.005 0.007c0.423-0.597 1.11-0.982 1.887-0.986h0.001c0.133-0.004 0.267 0 0.4-0.004 0.027 0 0.048-0.004 0.075-0.004 0.144 0 0.288 0 0.437 0 1.515-0.023 3.029-0.005 4.544-0.015 0.021 0.004 0.046 0.006 0.070 0.006 0.051 0 0.1-0.009 0.146-0.026l-0.003 0.001c0.004-0.003 0.007-0.006 0.011-0.010v0h3.611c0.003 0.005 0.007 0.010 0.011 0.015v0c0.051 0.032 0.112 0.051 0.178 0.051 0.035 0 0.070-0.005 0.102-0.016l-0.002 0.001c0.562 0.001 1.082 0.179 1.507 0.482l-0.008-0.005c0.517 0.386 0.877 0.958 0.98 1.615l0.002 0.014c0.025 0.154 0.039 0.331 0.039 0.512 0 0.036-0.001 0.072-0.002 0.107v-0.005c0 3.082 0.011 6.164-0.011 9.247 0.001 0.026 0.002 0.057 0.002 0.088 0 1.072-0.756 1.967-1.763 2.181l-0.015 0.003zM0.075 1.88c-0.007 0.041-0.013 0.091-0.016 0.141v0.004c0.002-0.055 0.010-0.108 0.022-0.158l-0.001 0.005c0.027-0.087 0.059-0.167 0.091-0.249-0.032 0.085-0.069 0.167-0.096 0.258zM12.667 2.494c0.002-0.016 0.003-0.036 0.003-0.055 0-0.269-0.186-0.494-0.436-0.554l-0.004-0.001c-0.149-0.051-0.321-0.081-0.5-0.084h-8.897c-0.020-0.001-0.044-0.001-0.068-0.001-0.164 0-0.325 0.016-0.481 0.046l0.016-0.003c-0.331 0.058-0.581 0.339-0.592 0.679v9.452c0.001 0.164 0.066 0.312 0.171 0.422v0c0.155 0.16 0.372 0.259 0.613 0.259 0.030 0 0.060-0.002 0.090-0.005h-0.004c1.531 0.008 3.061 0.004 4.592 0.004 1.509 0 3.013 0 4.528 0.004 0.005 0 0.010 0 0.016 0 0.174 0 0.341-0.031 0.495-0.086l-0.010 0.003c0.274-0.075 0.471-0.321 0.471-0.614 0-0.018-0.001-0.035-0.002-0.052v0.002-9.418zM14.224 1.926c0-0.004-0.005-0.007-0.005-0.012 0.061 0.235 0.096 0.505 0.096 0.783 0 0.001 0 0.001 0 0.002v0 9.267c0.001 0.026 0.002 0.056 0.002 0.086 0 1.003-0.663 1.85-1.575 2.128l-0.016 0.004c-0.324 0.104-0.696 0.163-1.082 0.163-0.021 0-0.041 0-0.062-0.001h0.003c-3.056 0.013-6.101 0.013-9.152 0-0.020 0.001-0.044 0.001-0.067 0.001-0.667 0-1.265-0.292-1.675-0.754l-0.002-0.002c-0.166-0.186-0.3-0.405-0.39-0.646l-0.005-0.014c0.097 0.259 0.23 0.482 0.397 0.675l-0.002-0.003c0.416 0.465 1.018 0.757 1.688 0.757 0.021 0 0.043 0 0.064-0.001h-0.003q4.576 0.018 9.152 0c0.016 0 0.035 0 0.054 0 0.388 0 0.762-0.060 1.114-0.171l-0.026 0.007c0.925-0.284 1.586-1.131 1.586-2.132 0-0.030-0.001-0.060-0.002-0.090v0.004c0.005-3.091 0-6.177 0.005-9.268 0 0 0-0.001 0-0.002 0-0.278-0.035-0.548-0.101-0.806l0.005 0.022zM9.013 9.774c-0.102 0.034-0.22 0.054-0.342 0.054-0.009 0-0.019 0-0.028 0h0.001c-0.987 0.004-1.979 0.004-2.965 0-0.004 0-0.009 0-0.013 0-0.219 0-0.416-0.095-0.551-0.246l-0.001-0.001c-0.099-0.127-0.166-0.284-0.186-0.455v-0.004c-0.005-0.025 0.011-0.063-0.032-0.071v-3.154c0.016-0.031 0.026-0.068 0.027-0.106v0c0.044-0.188 0.155-0.344 0.307-0.445l0.003-0.002c0.15-0.092 0.332-0.147 0.526-0.147 0.012 0 0.024 0 0.035 0.001h-0.002c0.539-0.009 1.077-0.004 1.616-0.004 0.007 0.003 0.016 0.005 0.025 0.005 0.017 0 0.033-0.007 0.044-0.018v0h1.168c0.005 0.042 0.043 0.034 0.069 0.034 0.058 0.002 0.113 0.008 0.166 0.018l-0.006-0.001c0.308 0.045 0.552 0.272 0.623 0.567l0.001 0.005c0.021 0.068 0.032 0.146 0.032 0.227 0 0.008 0 0.017 0 0.025v-0.001 3.003c0 0.007 0 0.015 0 0.023 0 0.327-0.216 0.603-0.513 0.694l-0.005 0.001zM10.736 17.609c-1.403-0.029-2.8 0.021-4.197 0.053-1.344 0.033-2.677 0.008-4.016 0.029-0.487 0.002-0.944 0.127-1.343 0.346l0.015-0.007c-0.528 0.29-0.911 0.788-1.043 1.381l-0.003 0.014c0.002 0.013 0.002 0.027 0.002 0.042 0 0.12-0.059 0.227-0.151 0.292l-0.001 0.001c0.096-0.238 0.107-0.501 0.213-0.739 0.301-0.674 0.905-1.166 1.634-1.305l0.014-0.002c0.226-0.053 0.486-0.084 0.752-0.084 0.005 0 0.011 0 0.016 0h-0.001c1.125 0.004 2.251 0.029 3.371-0.008 0.779-0.029 1.557 0.008 2.325-0.042 0.939-0.058 1.877-0.042 2.816-0.021 0.069-0.004 0.15-0.006 0.232-0.006 0.512 0 1.005 0.083 1.465 0.237l-0.033-0.009c0.751 0.291 1.311 0.927 1.49 1.709l0.003 0.016c0.051 0.212 0.081 0.456 0.081 0.706 0 0.023 0 0.047-0.001 0.070v-0.003c0 3.103 0.005 6.21-0.005 9.314 0 0.010 0 0.021 0 0.033 0 0.592-0.223 1.131-0.589 1.539l0.002-0.002c-0.344 0.363-0.798 0.618-1.308 0.712l-0.015 0.002c-0.297 0.057-0.638 0.090-0.986 0.090-0.053 0-0.105-0.001-0.157-0.002h0.008q-4.128-0.006-8.261 0c-0.024-0.008-0.052-0.012-0.080-0.012-0.049 0-0.095 0.013-0.134 0.036l0.001-0.001c-0.002 0.004-0.003 0.009-0.005 0.013v0.001h-0.085v-0.004c-0.162-0.023-0.349-0.037-0.539-0.037-0.058 0-0.116 0.001-0.174 0.004h0.008c-0.976-0.1-1.761-0.81-1.97-1.739l-0.003-0.015c-0.053-0.221-0.043-0.451-0.085-0.673 0.085 0.23 0.091 0.476 0.16 0.714 0.194 0.804 0.813 1.426 1.601 1.621l0.015 0.003c0.205 0.058 0.441 0.091 0.684 0.091 0.043 0 0.085-0.001 0.127-0.003h-0.006c-0.036 0.002-0.077 0.003-0.119 0.003-0.244 0-0.48-0.033-0.705-0.095l0.019 0.004c-0.802-0.2-1.42-0.821-1.613-1.61l-0.003-0.015c-0.069-0.238-0.075-0.484-0.155-0.714v-9.772c0.092-0.071 0.151-0.18 0.151-0.304 0-0.011 0-0.021-0.001-0.032v0.001c0.132-0.607 0.516-1.106 1.034-1.389l0.011-0.005c0.384-0.212 0.841-0.337 1.327-0.339h0.001c1.333-0.021 2.672 0.005 4.011-0.029 1.397-0.034 2.8-0.084 4.203-0.053 0.464 0.012 0.933 0.034 1.397 0.083 0.479 0.050 0.909 0.229 1.265 0.5l-0.006-0.004c-0.35-0.27-0.782-0.45-1.253-0.499l-0.011-0.001c-0.464-0.055-0.933-0.076-1.397-0.085zM12.667 24.751v-4.696c0-0.007 0-0.015 0-0.023 0-0.24-0.138-0.447-0.338-0.548l-0.004-0.002c-0.187-0.085-0.406-0.134-0.636-0.134-0.058 0-0.115 0.003-0.171 0.009l0.007-0.001c-3.029 0.013-6.053-0.067-9.083 0.034-0.013-0.001-0.028-0.001-0.043-0.001-0.388 0-0.702 0.314-0.702 0.702 0 0.025 0.001 0.050 0.004 0.075v-0.003c0.005 3.066 0.011 6.127-0.005 9.188-0.003 0.027-0.005 0.058-0.005 0.089 0 0.424 0.344 0.768 0.768 0.768 0.026 0 0.052-0.001 0.078-0.004h-0.003c2.784 0 5.563-0.004 8.341 0.004 0.163 0.015 0.353 0.024 0.545 0.024 0.174 0 0.347-0.007 0.517-0.021l-0.022 0.001c0.42-0.007 0.758-0.35 0.758-0.771 0-0.012 0-0.025-0.001-0.037v0.002c-0.011-1.554-0.005-3.103-0.005-4.657zM8.992 27.265c-0.103 0.034-0.222 0.054-0.346 0.054-0.010 0-0.020 0-0.029 0h0.001c-0.987 0.004-1.979 0.004-2.965 0-0.004 0-0.008 0-0.012 0-0.218 0-0.413-0.095-0.547-0.246l-0.001-0.001c-0.103-0.125-0.171-0.283-0.186-0.456v-0.003c-0.005-0.025 0.005-0.062-0.032-0.071v-3.153c0.014-0.029 0.021-0.063 0.021-0.099 0-0.003 0-0.005 0-0.008v0c0.046-0.188 0.159-0.344 0.312-0.445l0.003-0.002c0.149-0.092 0.329-0.147 0.523-0.147 0.011 0 0.022 0 0.034 0.001h-0.002c0.539-0.008 1.083-0.004 1.621-0.004 0.021 0 0.048 0.017 0.064-0.012h1.168c0.007 0.022 0.027 0.037 0.051 0.037 0.007 0 0.013-0.001 0.019-0.003v0c0.059 0.001 0.116 0.007 0.172 0.018l-0.007-0.001c0.307 0.047 0.551 0.273 0.623 0.567l0.001 0.005c0.018 0.063 0.028 0.135 0.028 0.209 0 0.015 0 0.029-0.001 0.043v-0.002 3.003c0 0.008 0 0.017 0 0.026 0 0.324-0.213 0.598-0.507 0.69l-0.005 0.001zM20.027 21.522c-0.025 0.002-0.053 0.004-0.082 0.004-0.258 0-0.491-0.105-0.659-0.275v0c-0.122-0.13-0.198-0.305-0.198-0.498 0-0.006 0-0.011 0-0.017v0.001c-0.005-0.373 0-0.751 0-1.127v-1.086c0-0.006 0-0.014 0-0.021 0-0.411 0.333-0.743 0.743-0.743 0.003 0 0.006 0 0.009 0v0c0.033-0.004 0.072-0.006 0.111-0.006 0.19 0 0.367 0.054 0.517 0.147l-0.004-0.002c0.195 0.133 0.32 0.354 0.32 0.604 0 0.009 0 0.018 0 0.028v-0.001c0.011 0.739 0.011 1.474 0.005 2.213-0.015 0.419-0.346 0.756-0.76 0.781h-0.002zM19.909 22.9c0.026-0.003 0.055-0.005 0.085-0.005 0.437 0 0.79 0.354 0.79 0.79 0 0.013 0 0.026-0.001 0.039v-0.002c0.005 2.397 0.011 4.8 0 7.196 0.001 0.016 0.002 0.035 0.002 0.054 0 0.427-0.346 0.773-0.773 0.773-0.029 0-0.057-0.002-0.085-0.005h0.003c-0.019 0.002-0.041 0.003-0.064 0.003-0.434 0-0.786-0.352-0.786-0.786 0-0.017 0.001-0.034 0.002-0.051v0.002-7.176c-0.001-0.012-0.001-0.025-0.001-0.038 0-0.44 0.357-0.796 0.796-0.796 0.011 0 0.022 0 0.033 0.001h-0.002zM25.296 17.788c0.544-0.121 1.147 0.037 1.136 0.831-0.005 0.643 0 1.28 0 1.92 0 0.665-0.005 1.324 0 1.984-0.015 0.438-0.374 0.788-0.815 0.788-0.055 0-0.109-0.005-0.161-0.016l0.005 0.001c-0.424-0.048-0.75-0.404-0.75-0.837 0-0.054 0.005-0.107 0.015-0.159l-0.001 0.005v-3.692c-0.001-0.018-0.002-0.038-0.002-0.059 0-0.361 0.239-0.666 0.567-0.766l0.006-0.001zM25.525 24.78c0.021-0.002 0.046-0.003 0.072-0.003 0.393 0 0.724 0.266 0.823 0.627l0.001 0.006c0.007 0.045 0.011 0.098 0.011 0.151 0 0.010 0 0.020 0 0.030v-0.001 5.345c0 0.003 0 0.007 0 0.011 0 0.447-0.363 0.81-0.81 0.81-0.065 0-0.127-0.008-0.187-0.022l0.006 0.001c-0.409-0.039-0.725-0.381-0.725-0.797 0-0.046 0.004-0.091 0.011-0.135l-0.001 0.005c0-1.717-0.005-3.437 0.005-5.154-0.003-0.025-0.004-0.054-0.004-0.083 0-0.437 0.354-0.79 0.79-0.79 0.003 0 0.006 0 0.009 0v0zM30.144 17.751c0.326 0.011 0.603 0.212 0.723 0.496l0.002 0.005c0.041 0.099 0.066 0.213 0.069 0.333v0.001c0 0.66 0.011 1.324-0.005 1.983 0.001 0.016 0.002 0.034 0.002 0.052 0 0.407-0.315 0.74-0.714 0.771h-0.003c-0.049 0.010-0.105 0.016-0.162 0.016-0.379 0-0.698-0.252-0.801-0.597l-0.002-0.006c-0.014-0.046-0.022-0.098-0.022-0.152 0-0.011 0-0.022 0.001-0.033v0.002-1.042c0-0.292 0.021-0.587 0-0.877-0.009-0.044-0.014-0.095-0.014-0.148 0-0.449 0.364-0.813 0.813-0.813 0.040 0 0.079 0.003 0.117 0.008l-0.004-0.001zM30.187 22.909c0.433 0.032 0.773 0.391 0.773 0.829 0 0.057-0.006 0.112-0.016 0.165l0.001-0.005c0 2.318 0.005 4.636-0.005 6.954 0.004 0.030 0.006 0.065 0.006 0.1 0 0.419-0.323 0.762-0.734 0.793h-0.003c-0.037 0.005-0.079 0.009-0.123 0.009-0.384 0-0.71-0.246-0.83-0.589l-0.002-0.006c-0.012-0.046-0.018-0.099-0.018-0.153 0-0.018 0.001-0.037 0.002-0.054v0.002-3.633c0-1.22-0.005-2.435 0-3.654 0.015-0.43 0.368-0.772 0.799-0.772 0.053 0 0.105 0.005 0.155 0.015l-0.005-0.001z"></path>
</svg>
