<!-- Generated by IcoMoon.io -->
<svg version="1.1" xmlns="http://www.w3.org/2000/svg" width="32" height="32" viewBox="0 0 32 32">
<title>Correct2</title>
<path d="M28 32h-24c-2.209 0-4-1.791-4-4v0-24c0-2.209 1.791-4 4-4v0h24c2.209 0 4 1.791 4 4v0 24c0 2.209-1.791 4-4 4v0zM23.362 8.884c-0.43 0.005-0.815 0.193-1.081 0.491l-0.001 0.001-8.82 9.73-3.742-4.214c-0.262-0.3-0.645-0.488-1.072-0.488-0.004 0-0.008 0-0.012 0h0.001c-0.851 0.041-1.525 0.741-1.525 1.598 0 0.017 0 0.034 0.001 0.050v-0.002c0 0.006 0 0.012 0 0.019 0 0.446 0.168 0.853 0.444 1.161l-0.001-0.002 4.826 5.388c0.262 0.301 0.647 0.49 1.075 0.49 0.002 0 0.005 0 0.007 0v0c0.429-0.006 0.814-0.193 1.081-0.489l0.001-0.001 9.904-10.892c0.274-0.311 0.442-0.721 0.442-1.171 0-0.007 0-0.013 0-0.020v0.001c0.001-0.015 0.001-0.034 0.001-0.052 0-0.858-0.675-1.558-1.523-1.598h-0.004z"></path>
</svg>
