<!-- Generated by IcoMoon.io -->
<svg version="1.1" xmlns="http://www.w3.org/2000/svg" width="32" height="32" viewBox="0 0 32 32">
<title>czmm</title>
<path fill="#595959" d="M16.001 6.554c2.839 0.051 5.131 2.319 5.223 5.142v1.1h0.5c1.293 0.001 2.341 1.050 2.341 2.343 0 0.002 0 0.004 0 0.006v0 6.244c0 0.001 0 0.003 0 0.004 0 1.293-1.048 2.342-2.341 2.343l-11.366 0.018c-0.005 0-0.010 0-0.016 0-1.295 0-2.345-1.050-2.345-2.345 0-0.001 0-0.001 0-0.002v0-6.261c0 0 0 0 0 0 0-1.297 1.052-2.349 2.349-2.349 0.004 0 0.008 0 0.013 0h0.48v-1.091c0-0.013 0-0.029 0-0.044 0-2.82 2.286-5.107 5.107-5.107 0.020 0 0.040 0 0.059 0h-0.003zM18.783 11.705c-0.097-1.485-1.291-2.662-2.775-2.731h-0.006c-0.010 0-0.021 0-0.032 0-1.496 0-2.71 1.213-2.71 2.71 0 0.001 0 0.003 0 0.004v0 1.091l5.523 0.018v-1.091zM10.438 15.217v6.079h11.186v-6.079h-11.186zM16.021 20.349c-0.672-0.005-1.215-0.547-1.221-1.218v-1.697c0.006-0.671 0.549-1.214 1.22-1.219v0c0.002 0 0.004 0 0.006 0 0.671 0 1.215 0.544 1.215 1.215 0 0.001 0 0.003 0 0.004v0 1.693c-0.003 0.673-0.548 1.218-1.22 1.223v0zM30.79 22.242c-0.841 1.979-2.003 3.667-3.44 5.076l-0.002 0.002c-2.901 2.891-6.904 4.679-11.325 4.679-2.248 0-4.387-0.462-6.329-1.297l0.104 0.040c-1.973-0.834-3.655-1.991-5.061-3.42l-0.002-0.002c-1.424-1.417-2.579-3.103-3.383-4.976l-0.039-0.103c-0.809-1.821-1.281-3.946-1.281-6.181 0-0.022 0-0.044 0-0.066v0.003c0-0.016 0-0.035 0-0.054 0-2.229 0.464-4.35 1.3-6.271l-0.039 0.102c0.833-1.98 1.989-3.668 3.42-5.079l0.002-0.002c1.418-1.415 3.097-2.568 4.959-3.381l0.104-0.041c1.822-0.804 3.946-1.273 6.179-1.273 0.016 0 0.031 0 0.047 0h-0.002c0.005 0 0.010 0 0.016 0 4.509 0 8.582 1.869 11.486 4.874l0.004 0.005 0.1-1.075c0.060-0.528 0.505-0.935 1.044-0.935 0.041 0 0.081 0.002 0.121 0.007h-0.005c0.523 0.049 0.929 0.485 0.929 1.016 0 0.046-0.003 0.091-0.009 0.135l0.001-0.005-0.34 3.44c0.004 0.034 0.007 0.072 0.007 0.112 0 0.103-0.017 0.202-0.049 0.295l0.002-0.006v0.056c-0.057 0.521-0.495 0.923-1.027 0.923-0.061 0-0.122-0.005-0.18-0.016l0.006 0.001-3.842-0.672c-0.502-0.081-0.881-0.511-0.881-1.030 0-0.576 0.467-1.043 1.043-1.043 0.063 0 0.125 0.006 0.185 0.016l-0.006-0.001 0.86 0.146c-2.441-2.354-5.767-3.804-9.431-3.804-7.508 0-13.594 6.086-13.594 13.594s6.086 13.594 13.594 13.594c7.502 0 13.585-6.077 13.594-13.577v-0.001c0-0.002 0-0.005 0-0.008 0-0.576 0.397-1.059 0.932-1.191l0.008-0.002c0.082-0.020 0.177-0.032 0.274-0.032 0.655 0 1.187 0.531 1.187 1.187 0 0.004 0 0.007 0 0.011v-0.001c0 0.009 0 0.020 0 0.032 0 2.235-0.456 4.363-1.28 6.297l0.040-0.105z"></path>
</svg>
