<!-- Generated by IcoMoon.io -->
<svg version="1.1" xmlns="http://www.w3.org/2000/svg" width="32" height="32" viewBox="0 0 32 32">
<title>daipai</title>
<path fill="#ffe0c1" d="M32 16c0 8.837-7.163 16-16 16s-16-7.163-16-16c0-8.837 7.163-16 16-16s16 7.163 16 16z"></path>
<path fill="#f93" d="M23.667 8.787c-1.952-1.952-4.649-3.16-7.628-3.16-5.957 0-10.787 4.829-10.787 10.787s4.829 10.787 10.787 10.787c2.979 0 5.676-1.208 7.628-3.16v0c1.968-1.945 3.186-4.643 3.186-7.627s-1.218-5.682-3.185-7.626l-0.001-0.001zM22.667 23.053c-1.697 1.697-4.042 2.747-6.632 2.747-5.18 0-9.38-4.2-9.38-9.38s4.2-9.38 9.38-9.38c2.59 0 4.935 1.050 6.632 2.747v0c1.718 1.688 2.782 4.037 2.782 6.633s-1.064 4.945-2.781 6.632l-0.001 0.001zM20.693 19.067l-3.72-2.16v-5.88c-0.007-0.495-0.409-0.893-0.905-0.893 0 0-0.001 0-0.002 0v0c-0.493 0-0.893 0.4-0.893 0.893v0 6.293c0.096 0.35 0.347 0.627 0.672 0.757l0.008 0.003c0.113 0.117 0.246 0.215 0.392 0.289l0.008 0.004 3.72 2.24c0.12 0.078 0.267 0.124 0.424 0.124 0.31 0 0.578-0.179 0.707-0.439l0.002-0.005c0.061-0.119 0.097-0.26 0.097-0.409 0-0.357-0.206-0.666-0.505-0.815l-0.005-0.002z"></path>
</svg>
