<!-- Generated by IcoMoon.io -->
<svg version="1.1" xmlns="http://www.w3.org/2000/svg" width="32" height="32" viewBox="0 0 32 32">
<title>dele2</title>
<path d="M25.754 4.398h-0.001c0.006 0 0.012 0 0.018 0 0.895 0 1.704 0.369 2.283 0.964v0c0.593 0.592 0.96 1.41 0.96 2.315 0 0.004 0 0.009 0 0.012v0.2h-26.031v-0.199c0-0.004 0-0.009 0-0.013 0-0.904 0.367-1.723 0.96-2.315l0.001-0.001c0.579-0.595 1.388-0.964 2.283-0.964 0.006 0 0.012 0 0.018 0h19.509zM19.652 2.627l0.48 3.037h-8.284l0.48-3.037h7.323zM20.352 0h-8.684c-0.937 0.036-1.704 0.725-1.859 1.623l-0.002 0.012-0.62 4.602c-0.012 0.069-0.019 0.149-0.019 0.23 0 0.774 0.627 1.401 1.401 1.401 0.007 0 0.013 0 0.020 0h10.844c0.007 0 0.016 0 0.025 0 0.421 0 0.798-0.185 1.055-0.479l0.001-0.002c0.209-0.254 0.335-0.582 0.335-0.941 0-0.075-0.006-0.148-0.016-0.22l0.001 0.008-0.64-4.602c-0.148-0.907-0.909-1.597-1.837-1.633h-0.004zM26.314 10.126h-20.609c-0.009 0-0.020 0-0.031 0-0.574 0-1.090 0.247-1.448 0.641l-0.001 0.002c-0.317 0.351-0.512 0.818-0.512 1.33 0 0.075 0.004 0.15 0.012 0.223l-0.001-0.009 1.781 17.5c0.121 1.216 1.127 2.161 2.358 2.187h16.27c1.236-0.032 2.243-0.972 2.38-2.176l0.001-0.011 1.761-17.5c0.007-0.064 0.012-0.139 0.012-0.214 0-0.513-0.194-0.98-0.513-1.332l0.002 0.002c-0.347-0.395-0.854-0.643-1.418-0.643-0.015 0-0.030 0-0.045 0.001h0.002zM11.248 28.895h-3.261l-1.1-15.447h4.362v15.447zM17.751 28.895h-3.482v-15.447h3.482v15.447zM24.014 28.895h-3.241v-15.447h4.342z"></path>
</svg>
