<!-- Generated by IcoMoon.io -->
<svg version="1.1" xmlns="http://www.w3.org/2000/svg" width="32" height="32" viewBox="0 0 32 32">
<title>detail</title>
<path d="M31.631 30.753h-21.366c-0.001 0-0.002 0-0.002 0-0.216 0-0.391-0.175-0.391-0.391 0-0.002 0-0.003 0-0.005v0-4.098c0-0.001 0-0.003 0-0.005 0-0.216 0.175-0.391 0.391-0.391 0.001 0 0.002 0 0.003 0h21.341c0.001 0 0.002 0 0.003 0 0.216 0 0.391 0.175 0.391 0.391 0 0.002 0 0.003 0 0.005v0 4.113c-0.001 0.206-0.164 0.373-0.369 0.382h-0.001zM31.631 18.446h-21.366c-0.001 0-0.002 0-0.002 0-0.216 0-0.391-0.175-0.391-0.391 0-0.002 0-0.003 0-0.005v0-4.098c0-0.001 0-0.003 0-0.005 0-0.216 0.175-0.391 0.391-0.391 0.001 0 0.002 0 0.003 0h21.341c0.001 0 0.002 0 0.003 0 0.216 0 0.391 0.175 0.391 0.391 0 0.002 0 0.003 0 0.005v0 4.113c-0.001 0.206-0.164 0.373-0.369 0.382h-0.001zM31.631 6.138h-21.366c-0.001 0-0.002 0-0.002 0-0.216 0-0.391-0.175-0.391-0.391 0-0.002 0-0.003 0-0.005v0-4.098c0-0.001 0-0.003 0-0.005 0-0.216 0.175-0.391 0.391-0.391 0.001 0 0.002 0 0.003 0h21.341c0.001 0 0.002 0 0.003 0 0.216 0 0.391 0.175 0.391 0.391 0 0.002 0 0.003 0 0.005v0 4.113c-0.001 0.206-0.164 0.373-0.369 0.382h-0.001zM4.48 30.753h-4.086c-0.001 0-0.002 0-0.003 0-0.216 0-0.391-0.175-0.391-0.391 0-0.002 0-0.003 0-0.005v0-4.098c0-0.001 0-0.003 0-0.005 0-0.216 0.175-0.391 0.391-0.391 0.001 0 0.002 0 0.003 0h4.086c0.001 0 0.002 0 0.003 0 0.216 0 0.391 0.175 0.391 0.391 0 0.002 0 0.003 0 0.005v0 4.113c-0.004 0.212-0.177 0.382-0.389 0.382-0.002 0-0.003 0-0.005 0v0zM4.48 18.446h-4.086c-0.001 0-0.002 0-0.003 0-0.216 0-0.391-0.175-0.391-0.391 0-0.002 0-0.003 0-0.005v0-4.098c0-0.001 0-0.003 0-0.005 0-0.216 0.175-0.391 0.391-0.391 0.001 0 0.002 0 0.003 0h4.086c0.001 0 0.002 0 0.003 0 0.216 0 0.391 0.175 0.391 0.391 0 0.002 0 0.003 0 0.005v0 4.113c-0.004 0.212-0.177 0.382-0.389 0.382-0.002 0-0.003 0-0.005 0v0zM4.48 6.138h-4.086c-0.001 0-0.002 0-0.003 0-0.216 0-0.391-0.175-0.391-0.391 0-0.002 0-0.003 0-0.005v0-4.098c0-0.001 0-0.003 0-0.005 0-0.216 0.175-0.391 0.391-0.391 0.001 0 0.002 0 0.003 0h4.086c0.001 0 0.002 0 0.003 0 0.216 0 0.391 0.175 0.391 0.391 0 0.002 0 0.003 0 0.005v0 4.113c-0.004 0.212-0.177 0.382-0.389 0.382-0.002 0-0.003 0-0.005 0v0z"></path>
</svg>
