<!-- Generated by IcoMoon.io -->
<svg version="1.1" xmlns="http://www.w3.org/2000/svg" width="32" height="32" viewBox="0 0 32 32">
<title>display</title>
<path d="M16.836 25.083c-0.040 0.021-0.077 0.059-0.117 0.075-0.256 0.13-0.558 0.206-0.877 0.206-0.559 0-1.064-0.233-1.423-0.607l-0.001-0.001-13.872-14.74c-0.338-0.359-0.546-0.843-0.546-1.377 0-0.572 0.239-1.088 0.623-1.454l0.001-0.001c0.356-0.339 0.839-0.548 1.37-0.548 0.57 0 1.084 0.24 1.446 0.625l0.001 0.001 12.453 13.227 12.631-13.174c0.367-0.403 0.893-0.654 1.478-0.654 1.103 0 1.997 0.894 1.997 1.997 0 0.561-0.232 1.069-0.604 1.431v0l-14.008 14.604c-0.035 0.021-0.066 0.043-0.094 0.067l0.001-0.001c-0.021 0.020-0.040 0.042-0.058 0.065l-0.001 0.001c-0.115 0.105-0.246 0.194-0.39 0.262l-0.010 0.004z"></path>
</svg>
