<!-- Generated by IcoMoon.io -->
<svg version="1.1" xmlns="http://www.w3.org/2000/svg" width="32" height="32" viewBox="0 0 32 32">
<title>edit</title>
<path d="M18.051 11.036l-12.293 12.329 1.46 1.446 12.27-12.315-1.437-1.448zM20.947 13.949l-12.293 12.315 2.896 2.899 12.293-12.315-2.896-2.896zM16.591 9.602l-1.437-1.448-12.293 12.315 1.437 1.432 12.293-12.315zM31.369 6.393l-5.793-5.795c-0.371-0.37-0.883-0.598-1.448-0.598s-1.077 0.228-1.448 0.598v0l-3.489 3.501 8.666 8.712 3.489-3.501c0.383-0.373 0.62-0.894 0.62-1.47 0-0.565-0.228-1.076-0.597-1.447v0zM0.034 32h6.135l-6.135-6.158v6.158zM14.379 32h14.345v-2.053h-14.345v2.053z"></path>
</svg>
