<!-- Generated by IcoMoon.io -->
<svg version="1.1" xmlns="http://www.w3.org/2000/svg" width="34" height="32" viewBox="0 0 34 32">
<title>ex</title>
<path fill="#36b4f3" d="M7.496 3.429c0.019-1.879 1.547-3.395 3.428-3.395 0.006 0 0.012 0 0.018 0h15.797l6.874 6.958v13.983h-2.050v-12.286h-3.966c-0.017 0-0.037 0.001-0.057 0.001-0.694 0-1.322-0.283-1.774-0.74v0c-0.457-0.443-0.74-1.062-0.74-1.748 0-0.024 0-0.047 0.001-0.071v0.003-4.118h-14.084c-0.051-0.007-0.111-0.012-0.171-0.012-0.7 0-1.267 0.567-1.267 1.267 0 0.055 0.004 0.109 0.010 0.162l-0.001-0.006v7.378h6.555c0.002 0 0.004 0 0.007 0 0.94 0 1.702 0.759 1.708 1.697v11.866c0 0.001 0 0.001 0 0.002 0 0.937-0.759 1.696-1.696 1.696-0.006 0-0.013 0-0.019 0h-6.554v2.538c-0.006 0.045-0.009 0.097-0.009 0.149 0 0.664 0.538 1.202 1.202 1.202 0.084 0 0.165-0.009 0.244-0.025l-0.008 0.001h19.244c0.068 0.014 0.146 0.022 0.226 0.022 0.644 0 1.166-0.522 1.166-1.166 0-0.065-0.005-0.128-0.015-0.19l0.001 0.007v-9.378h2.050v9.378c-0.017 1.879-1.544 3.395-3.425 3.395-0.001 0-0.002 0-0.004 0h-19.244c-0.005 0-0.011 0-0.017 0-1.882 0-3.409-1.516-3.428-3.393v-2.54h-5.765c-0.002 0-0.004 0-0.007 0-0.94 0-1.702-0.759-1.708-1.697v-11.866c0.006-0.939 0.768-1.697 1.708-1.697 0.002 0 0.005 0 0.007 0h5.764v-7.378zM3.613 14l3.479 4.739-3.916 5.395h2.605l2.538-3.748 2.521 3.748h2.622l-3.933-5.395 3.479-4.739h-2.605l-2.084 3.092-2.101-3.092h-2.605zM26.739 2.403v3.73c0 0.004 0 0.008 0 0.012 0 0.233 0.097 0.444 0.252 0.594v0c0.155 0.155 0.369 0.251 0.605 0.252h3.613l-4.471-4.588zM20.252 14v0c0 0 0 0 0 0-0.557 0-1.008 0.451-1.008 1.008s0.451 1.008 1.008 1.008h6.17c0.541-0.019 0.973-0.463 0.973-1.008 0 0 0 0 0-0.001v0c0 0 0 0 0-0.001 0-0.545-0.433-0.989-0.975-1.008h-6.168zM20.252 18.050v0c0 0 0 0 0 0-0.557 0-1.008 0.451-1.008 1.008s0.451 1.008 1.008 1.008h6.168c0 0 0 0 0 0 0.557 0 1.008-0.451 1.008-1.008s-0.451-1.008-1.008-1.008h-6.168zM20.252 22.101v0c-0.562 0-1.017 0.455-1.017 1.017s0.455 1.017 1.017 1.017h6.168c0.562 0 1.017-0.455 1.017-1.017s-0.455-1.017-1.017-1.017h-6.168z"></path>
</svg>
