<!-- Generated by IcoMoon.io -->
<svg version="1.1" xmlns="http://www.w3.org/2000/svg" width="32" height="32" viewBox="0 0 32 32">
<title>export2</title>
<path d="M31.525 27.34l-4.393 4.248c-0.267 0.255-0.629 0.412-1.028 0.412-0.135 0-0.266-0.018-0.391-0.052l0.010 0.002c-0.501-0.129-0.891-0.51-1.030-0.996l-0.003-0.010c-0.032-0.111-0.051-0.239-0.051-0.371 0-0.391 0.163-0.745 0.426-0.995h0.001l1.896-1.827h-6.721c-0.003 0-0.007 0-0.010 0-0.533 0-1.001-0.281-1.263-0.703l-0.004-0.006c-0.124-0.202-0.197-0.446-0.197-0.708s0.073-0.506 0.201-0.714l-0.003 0.006c0.267-0.427 0.734-0.708 1.267-0.708 0.003 0 0.006 0 0.010 0h6.72l-1.896-1.827c-0.218-0.244-0.351-0.568-0.351-0.923 0-0.393 0.163-0.748 0.426-1.001v0c0.269-0.257 0.634-0.415 1.036-0.415 0.363 0 0.696 0.129 0.956 0.344l-0.003-0.002 4.318 4.164c0.255 0.22 0.431 0.524 0.487 0.868l0.001 0.008c0.012 0.067 0.019 0.143 0.019 0.222 0 0.389-0.166 0.738-0.431 0.983l-0.001 0.001zM22.026 20.135c-2.422-2.397-3.379-1.838-6.889-1.838-3.83 0-10.513 3.407-10.719 7.509v0.060c0 0.135 0.038 0.646 0.075 1.021 0.034 0.284 0.086 0.538 0.159 0.784l-0.008-0.033c3.717-0.015 12.014-0.015 12.127-0.015 0.657 0 1.201 2.523 1.201 3.176-0.007 0.654-0.539 1.181-1.194 1.181-0.003 0-0.005 0-0.008 0v0c-0.113 0-11.62 0-14.699 0.019v0c-0.794-0.044-1.444-0.613-1.612-1.362l-0.002-0.012c-0.151-0.432-0.264-0.937-0.317-1.458l-0.002-0.028c-0.060-0.39-0.094-0.841-0.094-1.299 0-0.017 0-0.033 0-0.050v0.003-0.023c0.364-6.664 5.191-12.103 11.527-13.397l0.093-0.016c-2.298-1.335-3.82-3.781-3.83-6.584v-0.001c0-4.292 3.48-7.772 7.772-7.772s7.772 3.48 7.772 7.772v0c-0.012 2.916-1.658 5.445-4.070 6.719l-0.042 0.020c0.778 0.204 1.427 0.426 2.057 0.688l-0.104-0.038c1.858 0.773 1.652 0 3.041 1.391 0.469 0.462 1.558 1.034 0.939 1.569-0.582 0.52-2.722 2.48-3.173 2.014z"></path>
</svg>
