<!-- Generated by IcoMoon.io -->
<svg version="1.1" xmlns="http://www.w3.org/2000/svg" width="32" height="32" viewBox="0 0 32 32">
<title>fail3</title>
<path d="M23.575 23.354l-0.192 0.194c-0.189 0.188-0.449 0.304-0.736 0.304s-0.547-0.116-0.736-0.304v0l-5.887-5.895-5.903 5.895c-0.189 0.188-0.449 0.304-0.736 0.304s-0.547-0.116-0.736-0.304v0l-0.192-0.194c-0.186-0.189-0.3-0.448-0.3-0.733s0.115-0.545 0.3-0.734v0l5.903-5.895-5.903-5.895c-0.186-0.189-0.3-0.448-0.3-0.733s0.115-0.545 0.3-0.734v0l0.192-0.194c0.189-0.187 0.449-0.303 0.736-0.303s0.547 0.116 0.736 0.303v0l5.903 5.896 5.887-5.896c0.189-0.187 0.449-0.303 0.736-0.303s0.547 0.116 0.736 0.303v0l0.192 0.194c0.186 0.189 0.3 0.448 0.3 0.733s-0.115 0.545-0.3 0.734v0l-5.887 5.895 5.887 5.895c0.186 0.189 0.3 0.448 0.3 0.733s-0.115 0.545-0.3 0.734v0zM15.992 31.992c-8.829-0.007-15.984-7.166-15.984-15.996 0-8.834 7.162-15.996 15.996-15.996 3.277 0 6.324 0.985 8.86 2.676l-0.059-0.037c0.3 0.209 0.494 0.553 0.494 0.942 0 0.633-0.513 1.145-1.145 1.145-0.227 0-0.439-0.066-0.617-0.18l0.005 0.003c-2.122-1.414-4.73-2.256-7.534-2.256-7.571 0-13.709 6.138-13.709 13.709s6.138 13.709 13.709 13.709c7.571 0 13.709-6.138 13.709-13.709 0-0.001 0-0.002 0-0.003v0c-0.003-0.506-0.032-1.002-0.086-1.49l0.006 0.064c-0.006-0.043-0.009-0.092-0.009-0.142 0-0.631 0.511-1.142 1.142-1.142 0.597 0 1.088 0.459 1.138 1.043v0.004c0.053 0.416 0.083 0.897 0.083 1.385 0 0.097-0.001 0.194-0.004 0.29v-0.014c-0.002 8.835-7.161 15.998-15.995 16.004h-0.001z"></path>
</svg>
