<!-- Generated by IcoMoon.io -->
<svg version="1.1" xmlns="http://www.w3.org/2000/svg" width="32" height="32" viewBox="0 0 32 32">
<title>fail</title>
<path d="M3.98 19.053l0.703 0.224c1.407 5.147 6.042 8.919 11.54 8.919 2.973 0 5.658-1.087 7.768-2.909l0.703 0.224c-2.238 2.046-5.211 3.325-8.439 3.325-5.946-0.032-10.901-4.156-12.276-9.782v0zM6.921 7.321c2.302-2.557 5.626-4.156 9.303-4.156 6.33 0 11.572 4.763 12.467 10.933l-0.639-0.192c-0.959-5.754-5.882-10.102-11.828-10.102-3.389 0-6.457 1.439-8.631 3.74l-0.671-0.224zM9.063 20.651l0.959 0.288c1.439 1.886 3.676 3.069 6.202 3.069 0.831 0 1.662-0.128 2.43-0.384l0.959 0.288c-1.055 0.48-2.206 0.703-3.389 0.703-3.005 0.032-5.658-1.566-7.161-3.964v0zM11.525 8.759c1.375-0.927 3.005-1.439 4.699-1.439 3.548 0 6.585 2.206 7.864 5.339l-0.799-0.224c-1.279-2.653-3.964-4.475-7.065-4.475-1.375 0-2.717 0.352-3.9 1.055l-0.799-0.256zM16.128 6.298l-0.32 0.128c-0.064 0.032-0.096 0.032-0.16 0s-0.096-0.064-0.128-0.096c0-0.032-0.032-0.064-0.032-0.096l0.032-0.352c0-0.064 0-0.128-0.064-0.16l-0.224-0.256c-0.064-0.096-0.064-0.224 0-0.288 0.032-0.032 0.064-0.032 0.096-0.064l0.352-0.064c0.064 0 0.096-0.064 0.128-0.096l0.16-0.32c0.032-0.064 0.096-0.096 0.192-0.096 0.064 0 0.128 0.032 0.192 0.096l0.16 0.32c0.032 0.064 0.064 0.096 0.128 0.096l0.352 0.064c0.096 0.032 0.192 0.128 0.16 0.256 0 0.032-0.032 0.064-0.064 0.096l-0.224 0.256c-0.032 0.032-0.064 0.096-0.064 0.16l0.032 0.352c0 0.128-0.064 0.224-0.192 0.224-0.032 0-0.064 0-0.096-0.032l-0.32-0.128c0.032-0.032-0.032-0.032-0.096 0v0zM21.307 7.768l-0.352-0.064c-0.064 0-0.128-0.064-0.16-0.128s0-0.16 0.032-0.192l0.224-0.288c0.032-0.032 0.064-0.096 0.032-0.16l-0.064-0.352c-0.032-0.128 0.064-0.224 0.16-0.224 0.032 0 0.064 0 0.096 0l0.32 0.128c0.064 0.032 0.128 0.032 0.16 0l0.32-0.16c0.064-0.032 0.096-0.032 0.16 0s0.096 0.064 0.128 0.096c0.032 0.032 0.032 0.064 0.032 0.096v0.352c0 0.064 0.032 0.128 0.064 0.16l0.256 0.256c0.096 0.096 0.096 0.224 0 0.288-0.032 0.032-0.064 0.032-0.096 0.064l-0.32 0.096c-0.064 0-0.096 0.064-0.128 0.096l-0.16 0.32c-0.032 0.064-0.096 0.096-0.16 0.128-0.064 0-0.128-0.032-0.192-0.096l-0.224-0.32c-0.032-0.032-0.064-0.064-0.128-0.096v0zM24.855 11.892l-0.256-0.224c-0.096-0.064-0.096-0.192-0.032-0.288 0.032-0.032 0.064-0.064 0.096-0.064l0.32-0.128c0.064-0.032 0.096-0.064 0.128-0.128l0.128-0.32c0.032-0.064 0.096-0.128 0.16-0.128s0.16 0.032 0.192 0.096l0.224 0.288c0.032 0.032 0.096 0.064 0.16 0.096l0.352 0.032c0.128 0 0.192 0.128 0.192 0.224 0 0.032 0 0.064-0.032 0.096l-0.192 0.288c-0.064 0.032-0.064 0.096-0.064 0.16l0.064 0.352c0.032 0.096-0.032 0.224-0.16 0.256-0.032 0-0.064 0-0.096 0l-0.32-0.096c-0.064-0.032-0.128 0-0.16 0.032l-0.288 0.192c-0.032 0.032-0.096 0.032-0.16 0.032s-0.096-0.032-0.128-0.096c-0.032-0.096-0.032-0.128-0.032-0.16v-0.352c0-0.064-0.032-0.128-0.096-0.16v0zM19.005 25.287l0.256-0.224c0.032-0.032 0.096-0.064 0.16-0.032 0.064 0 0.096 0.032 0.128 0.064s0.032 0.064 0.032 0.096l0.064 0.352c0 0.064 0.032 0.096 0.096 0.128l0.288 0.192c0.064 0.032 0.096 0.096 0.096 0.192 0 0.064-0.032 0.128-0.096 0.192l-0.32 0.16c-0.064 0.032-0.096 0.064-0.096 0.128l-0.096 0.352c-0.032 0.064-0.064 0.128-0.128 0.16s-0.16 0-0.192-0.064l-0.256-0.256c-0.032-0.032-0.096-0.064-0.16-0.064l-0.352 0.032c-0.064 0-0.096 0-0.16-0.064-0.032-0.032-0.064-0.096-0.064-0.128s0-0.064 0.032-0.096l0.16-0.32c0.032-0.064 0.032-0.128 0-0.16l-0.128-0.32c-0.032-0.096 0-0.224 0.128-0.256 0.032 0 0.064-0.032 0.096 0l0.352 0.064c0.064-0.096 0.096-0.096 0.16-0.128v0zM13.602 25.319l0.352-0.064c0.064 0 0.096 0 0.16 0.032 0.032 0.032 0.064 0.096 0.064 0.128s0 0.064 0 0.096l-0.128 0.32c-0.032 0.064-0.032 0.128 0 0.16l0.16 0.32c0.064 0.096 0 0.224-0.096 0.288-0.032 0.032-0.064 0.032-0.096 0.032l-0.352-0.032c-0.064 0-0.128 0.032-0.16 0.064l-0.256 0.256c-0.032 0.032-0.096 0.064-0.16 0.064s-0.096-0.032-0.128-0.064c-0.032-0.032-0.032-0.064-0.064-0.096l-0.064-0.32c0-0.064-0.064-0.096-0.096-0.128l-0.32-0.16c-0.064-0.032-0.096-0.096-0.096-0.192 0-0.064 0.032-0.128 0.096-0.192l0.288-0.192c0.064-0.032 0.096-0.096 0.096-0.128l0.064-0.352c0-0.064 0.064-0.128 0.128-0.16s0.16 0 0.192 0.032l0.256 0.224c0.064 0.064 0.128 0.064 0.16 0.064v0zM9.063 22.41l0.32 0.16c0.064 0.032 0.096 0.096 0.128 0.16 0 0.064-0.032 0.16-0.096 0.192l-0.288 0.192c-0.032 0.032-0.064 0.096-0.096 0.16l-0.032 0.352c0 0.064-0.032 0.096-0.064 0.128s-0.096 0.064-0.16 0.032c-0.032 0-0.064-0.032-0.096-0.032l-0.288-0.224c-0.032-0.032-0.096-0.064-0.16-0.032l-0.352 0.064c-0.064 0-0.096 0-0.16-0.032-0.032-0.032-0.064-0.064-0.096-0.128 0-0.032 0-0.064 0-0.096l0.128-0.32c0.032-0.064 0-0.128 0-0.16l-0.16-0.32c-0.064-0.096-0.032-0.224 0.064-0.288 0.032-0.032 0.064-0.032 0.096-0.032h0.352c0.064 0 0.128-0.032 0.16-0.064l0.224-0.256c0.032-0.032 0.096-0.064 0.128-0.064 0.064 0 0.096 0.032 0.16 0.064 0.032 0.032 0.032 0.064 0.064 0.096l0.096 0.352c0.032 0.032 0.096 0.064 0.128 0.096v0zM11.013 7.864l-0.192 0.288c-0.032 0.064-0.096 0.096-0.192 0.096-0.064 0-0.128-0.032-0.16-0.128l-0.16-0.32c-0.032-0.064-0.064-0.096-0.128-0.096l-0.32-0.096c-0.064-0.032-0.128-0.064-0.16-0.16-0.032-0.064 0-0.16 0.064-0.192l0.256-0.256c0.032-0.032 0.064-0.096 0.064-0.16l-0.032-0.352c0-0.128 0.096-0.224 0.192-0.224 0.032 0 0.064 0 0.096 0.032l0.32 0.16c0.064 0.032 0.128 0.032 0.16 0l0.32-0.128c0.064-0.032 0.096-0.032 0.16 0s0.096 0.064 0.096 0.128c0 0.032 0.032 0.064 0 0.096l-0.064 0.352c0 0.064 0 0.128 0.032 0.16l0.224 0.288c0.064 0.096 0.064 0.224-0.032 0.288-0.032 0.032-0.064 0.032-0.096 0.032l-0.352 0.064c-0.032 0.064-0.064 0.096-0.096 0.128v0zM4.108 7.864c-0.575-0.16-1.215 0.16-1.407 0.767l-2.014 6.777c-0.192 0.607 0.16 1.247 0.735 1.439l26.469 8.216c0.607 0.192 1.215-0.16 1.407-0.767l2.014-6.745c0.192-0.607-0.16-1.247-0.735-1.439l-26.469-8.248zM4.3 7.289l26.469 8.216c0.927 0.288 1.439 1.279 1.151 2.206l-2.046 6.777c-0.288 0.927-1.247 1.471-2.174 1.183l-26.469-8.216c-0.927-0.288-1.439-1.279-1.151-2.206l2.046-6.777c0.288-0.959 1.247-1.47 2.174-1.183v0z"></path>
<path d="M4.492 11.54l0.352 1.215c0.256-0.32 0.448-0.703 0.639-1.119l-1.47-0.48 0.192-0.671 2.174 0.671-0.192 0.639c-0.32 0.671-0.703 1.247-1.119 1.726l0.384 1.343-0.735 0.224-0.256-0.959c-0.416 0.352-0.863 0.639-1.343 0.863-0.032-0.224-0.096-0.48-0.16-0.799 0.48-0.224 0.927-0.511 1.311-0.863l-0.448-1.662 0.671-0.128zM6.346 11.7l1.439 0.448 0.256-0.863 0.703 0.224-0.256 0.863 0.448 0.128-0.192 0.671-0.448-0.128-0.799 2.557c-0.064 0.256-0.192 0.416-0.352 0.511s-0.32 0.128-0.511 0.064c-0.192-0.032-0.543-0.16-1.087-0.32 0.032-0.224 0.064-0.511 0.064-0.799 0.256 0.096 0.511 0.192 0.767 0.256 0.224 0.064 0.384 0 0.448-0.224l0.703-2.334-1.439-0.448 0.256-0.607zM6.378 12.755c0.192 0.511 0.384 1.023 0.511 1.502l-0.703 0.192c-0.128-0.511-0.256-1.023-0.448-1.502l0.639-0.192z"></path>
<path d="M10.438 12.084l-0.448 1.439 1.151 0.352-0.224 0.703-1.151-0.352-0.543 1.79 1.279-0.032c-0.096 0.256-0.16 0.511-0.224 0.767-0.799 0-1.47 0.032-1.95 0.128l-0.192-0.703c0.16-0.064 0.256-0.192 0.32-0.384l1.215-3.9 0.767 0.192zM13.475 13.746l0.48 0.703c-0.735 0.352-1.47 0.703-2.206 0.991l-0.32 1.087c-0.064 0.224 0 0.352 0.16 0.384l0.352 0.096c0.128 0.032 0.224 0.032 0.288-0.064 0.064-0.064 0.224-0.416 0.448-0.991 0.224 0.192 0.448 0.352 0.671 0.48-0.128 0.32-0.256 0.575-0.384 0.799s-0.224 0.352-0.352 0.416c-0.096 0.064-0.224 0.096-0.384 0.096s-0.32-0.032-0.543-0.096l-0.639-0.192c-0.48-0.16-0.639-0.48-0.48-0.991l1.247-4.060 0.735 0.224-0.575 1.854c0.543-0.16 1.023-0.448 1.502-0.735z"></path>
<path d="M14.625 13.65l4.603 1.439-0.224 0.671-1.79-0.543c-0.192 0.256-0.416 0.48-0.639 0.671l0.256 0.064-0.192 0.607 0.639-0.32c0.32 0.543 0.703 1.215 1.183 1.982l-0.767 0.384c-0.288-0.639-0.639-1.311-1.055-2.046l-0.799 2.557-0.767-0.224 0.735-2.398c-0.607 0.416-1.279 0.735-2.078 0.991-0.064-0.192-0.16-0.448-0.32-0.831 1.279-0.352 2.238-0.927 2.909-1.694l-1.886-0.607 0.192-0.703z"></path>
<path d="M23.353 20.619c-0.192 0.224-0.32 0.416-0.448 0.575l-2.621-0.831c-0.32-0.096-0.543-0.224-0.735-0.384-0.16-0.16-0.32-0.32-0.384-0.511l-0.735 0.448-0.064-0.863 0.607-0.256 0.416-1.375-0.448-0.128 0.192-0.671 1.087 0.32-0.639 2.046c0.128 0.352 0.416 0.575 0.927 0.735l1.119 0.352c0.511 0.192 1.087 0.384 1.726 0.543zM20.316 15.057c0.192 0.448 0.32 0.799 0.416 1.119l-0.703 0.224c-0.128-0.416-0.224-0.799-0.352-1.151l0.639-0.192zM24.312 16.495l-0.192 0.575-1.215 0.256 1.055 0.32-0.671 2.174c-0.064 0.16-0.128 0.288-0.224 0.352s-0.192 0.096-0.32 0.096c-0.128 0-0.384-0.064-0.767-0.192 0.032-0.16 0.032-0.352 0.032-0.543 0.16 0.064 0.288 0.096 0.384 0.128 0.128 0.032 0.224 0 0.288-0.16l0.032-0.096-0.671-0.224-0.224 0.767-0.607-0.192 0.224-0.767-0.671-0.192-0.224 0.767-0.639-0.192 0.831-2.717 0.959 0.288-0.448-0.511 0.352-0.224-0.703-0.224 0.16-0.511 3.261 1.023zM20.923 18.35l0.671 0.192 0.096-0.32-0.671-0.192-0.096 0.32zM21.147 17.614l0.671 0.192 0.096-0.32-0.671-0.192-0.096 0.32zM23.257 16.751l-1.471-0.448c0.16 0.192 0.352 0.384 0.575 0.639l0.895-0.192zM22.17 18.765l0.671 0.224 0.096-0.32-0.671-0.224-0.096 0.32zM23.161 17.902l-0.671-0.224-0.096 0.32 0.671 0.224 0.096-0.32z"></path>
<path d="M28.499 22.154c-0.192 0.256-0.32 0.448-0.448 0.607l-2.845-0.927c-0.224-0.064-0.416-0.192-0.575-0.32s-0.256-0.288-0.32-0.448c-0.384 0.192-0.639 0.32-0.799 0.416l-0.032-0.863 0.639-0.256 0.416-1.375-0.448-0.16 0.192-0.671 1.151 0.352-0.639 2.046c0.16 0.352 0.448 0.607 0.863 0.735l0.767 0.256c0.543 0.16 1.215 0.384 2.078 0.607zM25.526 16.655c0.128 0.416 0.256 0.799 0.32 1.151-0.064 0.032-0.32 0.064-0.767 0.16-0.064-0.384-0.16-0.767-0.256-1.151l0.703-0.16zM26.453 18.637c0.16 0.32 0.32 0.767 0.543 1.343-0.224 0.064-0.48 0.16-0.735 0.256-0.16-0.416-0.32-0.895-0.48-1.375l0.671-0.224zM28.244 17.55l0.735 0.224-0.256 0.831 0.735 0.224-0.192 0.607-0.735-0.224-0.511 1.662c-0.096 0.288-0.224 0.48-0.384 0.575-0.192 0.096-0.384 0.128-0.639 0.064s-0.575-0.16-0.991-0.288c0.032-0.224 0.032-0.48 0.032-0.767 0.384 0.16 0.671 0.256 0.799 0.288 0.256 0.064 0.416-0.032 0.511-0.288l0.448-1.471-1.982-0.607 0.192-0.607 1.982 0.607 0.256-0.831z"></path>
</svg>
