<!-- Generated by IcoMoon.io -->
<svg version="1.1" xmlns="http://www.w3.org/2000/svg" width="32" height="32" viewBox="0 0 32 32">
<title>file</title>
<path d="M32 20.834v-0.233l-5.149-15.688c-0.293-0.993-1.196-1.705-2.265-1.705-0.013 0-0.026 0-0.040 0h-17.109c-0.008 0-0.017 0-0.027 0-1.084 0-1.997 0.732-2.272 1.728l-0.004 0.017-5.101 15.626v0.12c-0.018 0.040-0.029 0.086-0.032 0.135v5.686c0.006 0.631 0.268 1.2 0.687 1.608v0c0.436 0.412 1.026 0.665 1.675 0.665 0.001 0 0.003 0 0.004 0h27.266c0.001 0 0.003 0 0.004 0 0.649 0 1.239-0.253 1.676-0.666l-0.001 0.001c0.419-0.409 0.682-0.978 0.688-1.608v-5.686zM7.436 5.481h17.111l4.782 14.215h-5.037c-0.007 0-0.016 0-0.024 0-0.633 0-1.147 0.507-1.159 1.136v2.843h-14.217v-2.842c-0.012-0.631-0.527-1.137-1.159-1.137-0.008 0-0.017 0-0.025 0h-5.036zM14.121 20.248l-5.229-4.719 2.239-2.052 2.991 2.667 6.765-6.131 2.239 2.050z"></path>
</svg>
