<!-- Generated by IcoMoon.io -->
<svg version="1.1" xmlns="http://www.w3.org/2000/svg" width="32" height="32" viewBox="0 0 32 32">
<title>file3</title>
<path fill="#62c321" d="M6.416 0.027c-0.118-0.017-0.255-0.027-0.393-0.027-1.562 0-2.828 1.266-2.828 2.828 0 0.139 0.010 0.275 0.029 0.408l-0.002-0.015v25.553c-0.006 0.070-0.009 0.152-0.009 0.234 0 1.64 1.329 2.969 2.969 2.969 0.083 0 0.164-0.003 0.245-0.010l-0.011 0.001h19.165c0.126 0.020 0.272 0.032 0.42 0.032 1.55 0 2.806-1.256 2.806-2.806 0-0.148-0.011-0.294-0.034-0.435l0.002 0.016v-19.165s-2.827-2.833-5.414-5.419l-4.168-4.163h-12.776zM22.386 25.58v1.597h-1.597l-4.791-4.855-4.791 4.855h-1.597v-1.597l4.791-4.791-4.791-4.791v-1.597h1.597l4.791 4.791 4.791-4.791h1.597v1.597l-4.791 4.791z"></path>
<path fill="#c9ffa6" d="M28.774 9.61h-6.388c-1.741-0.057-3.137-1.454-3.194-3.189v-6.393z"></path>
</svg>
