<!-- Generated by IcoMoon.io -->
<svg version="1.1" xmlns="http://www.w3.org/2000/svg" width="32" height="32" viewBox="0 0 32 32">
<title>find</title>
<path d="M31.97 28.982l-6.675-6.735c1.684-2.283 2.696-5.151 2.696-8.256 0-7.727-6.264-13.99-13.99-13.99s-13.99 6.264-13.99 13.99c0 7.727 6.264 13.99 13.99 13.99 3.105 0 5.974-1.012 8.295-2.723l-0.038 0.027 6.715 6.715 3.018-3.018h-0.020zM14.002 23.966c-0.003 0-0.006 0-0.010 0-5.502 0-9.963-4.461-9.963-9.963s4.461-9.963 9.963-9.963c5.499 0 9.957 4.455 9.963 9.953v0.001c0 0.004 0 0.009 0 0.014 0 5.498-4.455 9.956-9.953 9.959v0z"></path>
</svg>
