<!-- Generated by IcoMoon.io -->
<svg version="1.1" xmlns="http://www.w3.org/2000/svg" width="34" height="32" viewBox="0 0 34 32">
<title>guize</title>
<path fill="#fff" d="M4.237 31.965c-1.134-0.008-2.162-0.452-2.927-1.174l0.002 0.002c-0.763-0.723-1.251-1.73-1.293-2.852v-12.225c0.036-0.684 0.329-1.294 0.783-1.74v0c0.46-0.451 1.082-0.737 1.771-0.763h2.369c0.373 0.016 0.671 0.318 0.68 0.692v0.001c0 0.001 0 0.002 0 0.004 0 0.377-0.303 0.684-0.68 0.689h-2.364c-0.308 0.029-0.579 0.166-0.779 0.373v0c-0.201 0.191-0.337 0.45-0.371 0.74l-0.001 0.006v12.218c0.040 0.742 0.373 1.399 0.886 1.863l0.002 0.002c0.516 0.484 1.213 0.781 1.979 0.781 0.002 0 0.003 0 0.005 0v0c0.003 0 0.007 0 0.010 0 0.743 0 1.416-0.298 1.906-0.782v0c0.325-0.312 0.575-0.7 0.722-1.134l0.006-0.020c0.073-0.212 0.115-0.456 0.115-0.71v-25.554c-0.001-0.026-0.002-0.055-0.002-0.085 0-0.615 0.244-1.174 0.64-1.584l-0.001 0.001c0.406-0.437 0.983-0.71 1.625-0.71h21.882c0.001 0 0.003 0 0.004 0 0.688 0 1.312 0.271 1.773 0.711l-0.001-0.001c0.457 0.418 0.752 1.006 0.783 1.664v25.559c-0.033 1.128-0.517 2.136-1.275 2.857l-0.002 0.002c-0.763 0.747-1.808 1.208-2.962 1.208-0.001 0-0.002 0-0.002 0l-25.284-0.036zM7.386 30.597h22.132c0.762-0.004 1.455-0.301 1.971-0.783l-0.002 0.002c0.505-0.476 0.829-1.138 0.865-1.876v-25.56c-0.041-0.277-0.175-0.517-0.37-0.692l-0.001-0.001c-0.206-0.185-0.478-0.299-0.777-0.302h-21.893c-0.253 0.005-0.478 0.121-0.629 0.301l-0.001 0.001c-0.142 0.164-0.229 0.38-0.229 0.616 0 0.027 0.001 0.054 0.003 0.080v-0.003 25.554c-0.020 1.030-0.421 1.963-1.068 2.667l0.003-0.003zM26.73 9.731h-13.354c-0.382 0-0.693-0.31-0.693-0.693s0.31-0.693 0.693-0.693v0h13.354c0.001 0 0.003 0 0.005 0 0.254 0 0.477 0.134 0.603 0.334l0.002 0.003c0.059 0.102 0.093 0.225 0.093 0.355s-0.035 0.253-0.095 0.359l0.002-0.004c-0.127 0.204-0.35 0.337-0.605 0.337-0.002 0-0.003 0-0.005 0v0zM26.73 13.905h-9.129c-0.382 0-0.693-0.31-0.693-0.693s0.31-0.693 0.693-0.693v0h9.138c0.001 0 0.003 0 0.005 0 0.254 0 0.477 0.134 0.603 0.334l0.002 0.003c0.059 0.102 0.093 0.225 0.093 0.355s-0.035 0.253-0.095 0.359l0.002-0.004c-0.127 0.204-0.35 0.337-0.605 0.337-0.002 0-0.003 0-0.005 0v0zM26.73 18.77h-13.354c-0.005 0-0.010 0-0.016 0-0.383 0-0.693-0.31-0.694-0.693v0c0.010-0.385 0.324-0.693 0.71-0.693 0 0 0 0 0 0h13.354c0 0 0 0 0 0 0.386 0 0.7 0.308 0.71 0.692v0.001c-0.001 0.383-0.311 0.693-0.694 0.693-0.006 0-0.011 0-0.017 0h0.001z"></path>
</svg>
