<!-- Generated by IcoMoon.io -->
<svg version="1.1" xmlns="http://www.w3.org/2000/svg" width="34" height="32" viewBox="0 0 34 32">
<title>huifu</title>
<path fill="#fff" d="M32.436 31.978h-23.396c-0.971-0.018-1.752-0.81-1.752-1.784 0-0.004 0-0.008 0-0.012v0.001-16.174c0-0.008 0-0.017 0-0.026 0-0.971 0.782-1.759 1.751-1.769h6.325v-3.269c0.001-0.050 0.002-0.109 0.002-0.168 0-3.665-2.971-6.636-6.636-6.636s-6.636 2.971-6.636 6.636c0 0.059 0.001 0.118 0.002 0.177v-0.009 0.278h-2.094v-0.278c-0.001-0.057-0.002-0.125-0.002-0.193 0-4.822 3.909-8.73 8.73-8.73s8.73 3.909 8.73 8.73c0 0.068-0.001 0.136-0.002 0.203v-0.010 3.269h14.978c0.97 0.010 1.752 0.798 1.752 1.769 0 0.009 0 0.018 0 0.027v-0.001 16.174c0 0.003 0 0.007 0 0.011 0 0.974-0.781 1.766-1.75 1.784h-0.002zM32.094 15.056c-0.004-0.388-0.317-0.701-0.705-0.705h-21.302c-0.388 0.004-0.701 0.317-0.705 0.705v14.059c0.004 0.388 0.317 0.701 0.705 0.705h21.302c0.388-0.004 0.701-0.317 0.705-0.705v-14.059zM20.748 25.098c-0.002 0-0.004 0-0.007 0-0.575 0-1.041-0.466-1.041-1.041 0-0.010 0-0.020 0-0.029v0.001-3.889c0-0.008 0-0.018 0-0.028 0-0.575 0.466-1.041 1.041-1.041 0.002 0 0.005 0 0.007 0v0c0.579 0.004 1.047 0.474 1.047 1.053 0 0.005 0 0.011 0 0.016v-0.001 3.889c0 0.004 0 0.010 0 0.015 0 0.58-0.468 1.050-1.047 1.053v0z"></path>
</svg>
