<!-- Generated by IcoMoon.io -->
<svg version="1.1" xmlns="http://www.w3.org/2000/svg" width="32" height="32" viewBox="0 0 32 32">
<title>import2</title>
<path d="M26.101 28.603c-0.179 0.179-0.358 0.358-0.536 0.358-0.358 0-0.536-0.179-0.536-0.358 0 0 0 0 0 0l-3.218-3.218c-0.179-0.358-0.358-0.715-0.179-0.894 0-0.179 0.358-0.536 0.536-0.536s0.536 0 0.715 0.179l2.145 2.145v-6.078c0-0.179 0.358-0.536 0.536-0.536 0.358 0 0.536 0.179 0.536 0.536v6.078l2.145-2.145c0.358-0.358 0.715-0.358 1.073 0s0.358 0.715 0 1.073l-3.218 3.397c0.179-0.179 0.179-0.179 0 0v0zM30.391 31.285h-9.654c-0.358 0-0.715-0.358-0.715-0.715 0 0 0-0.715 0.715-0.715h9.654c0.358 0 0.536 0.358 0.536 0.715s-0.179 0.715-0.536 0.715v0z"></path>
<path d="M22.168 18.235c2.503-1.788 4.112-4.827 4.112-8.045 0-5.721-4.469-10.19-10.011-10.19s-10.011 4.469-10.011 10.011c0 3.397 1.609 6.257 4.112 8.045 0 0 0 0 0 0-1.788 0.715-3.397 1.788-4.827 3.218s-2.503 3.039-3.218 4.827c-0.715 1.788-1.073 3.575-1.251 5.542 0 0.179 0 0.179 0.179 0.179 0 0 0.179 0.179 0.179 0.179h2.324c0.179 0 0.358-0.179 0.358-0.358 0-3.039 1.251-6.078 3.575-8.223 2.324-2.324 5.363-3.575 8.581-3.575 1.609 0 3.039 0.358 4.469 0.894 0.894-0.894 1.966-1.43 3.218-1.788-0.715-0.179-1.251-0.536-1.788-0.715 0 0 0 0 0 0zM16.268 16.983c-1.788 0-3.575-0.715-5.006-1.966-1.251-1.43-1.966-3.218-1.966-5.006s0.715-3.575 1.966-5.006c1.43-1.251 3.039-1.966 5.006-1.966 1.788 0 3.575 0.715 4.827 1.966s1.966 3.039 1.966 5.006c0 1.788-0.715 3.575-1.966 5.006-1.251 1.251-3.039 1.966-4.827 1.966z"></path>
</svg>
