<!-- Generated by IcoMoon.io -->
<svg version="1.1" xmlns="http://www.w3.org/2000/svg" width="32" height="32" viewBox="0 0 32 32">
<title>import</title>
<path d="M31.915 28.29v0c-0.057 0.518-0.162 0.989-0.312 1.44l0.014-0.048c-0.164 0.709-0.771 1.237-1.508 1.278h-0.004c-2.876-0.017-13.656-0.017-13.763-0.017-0.003 0-0.006 0-0.009 0-0.613 0-1.111-0.492-1.12-1.103v-0.001c0-0.611 0.511-2.968 1.129-2.968 0.085 0 7.862 0 11.356 0.013 0.057-0.2 0.102-0.438 0.126-0.682l0.001-0.017c0.043-0.352 0.085-0.829 0.085-0.957v-0.055c-0.192-3.835-6.455-7.011-10.056-7.011-3.281 0-4.176-0.524-6.434 1.717-0.426 0.426-2.429-1.398-2.983-1.896s0.447-1.035 0.873-1.468c1.321-1.304 1.108-0.577 2.855-1.3 0.514-0.204 1.147-0.401 1.797-0.555l0.099-0.020c-2.333-1.196-3.905-3.579-3.92-6.33v-0.002c0-4.024 3.262-7.286 7.286-7.286s7.286 3.262 7.286 7.286v0c-0.014 2.636-1.454 4.933-3.587 6.16l-0.035 0.018c6.027 1.199 10.56 6.284 10.907 12.486l0.002 0.035v0.021c0 0.358-0.064 1.050-0.085 1.261zM12.272 25.497c0.008 0.056 0.013 0.12 0.013 0.186 0 0.368-0.152 0.701-0.396 0.939v0l-4.091 3.971c-0.25 0.238-0.59 0.385-0.963 0.385-0.127 0-0.25-0.017-0.367-0.049l0.010 0.002c-0.469-0.124 0.192-0.484 0.32-0.94 0.027-0.1 0.043-0.215 0.043-0.333 0-0.372-0.155-0.707-0.405-0.945h-0.001l1.193-1.704h-6.264c-0.005 0-0.010 0-0.016 0-0.49 0-0.918-0.262-1.153-0.654l-0.003-0.006c-0.12-0.187-0.192-0.416-0.192-0.662s0.071-0.474 0.195-0.666l-0.003 0.005c0.237-0.399 0.666-0.663 1.156-0.663 0.005 0 0.011 0 0.016 0h6.263l-1.193-1.704c0.469-0.526-1.001-1.308-0.49-1.798 0.25-0.24 0.59-0.388 0.965-0.388 0.339 0 0.649 0.121 0.891 0.322l-0.002-0.002 4.005 3.89c0.247 0.198 0.419 0.482 0.468 0.807l0.001 0.007z"></path>
</svg>
