<!-- Generated by IcoMoon.io -->
<svg version="1.1" xmlns="http://www.w3.org/2000/svg" width="32" height="32" viewBox="0 0 32 32">
<title>init2</title>
<path d="M27.049 9.016c0.555 0.215 0.944 0.738 0.96 1.353v0.002c0 0.014 0.001 0.030 0.001 0.046 0 0.61-0.358 1.137-0.876 1.38l-0.009 0.004c-0.186 0.092-0.406 0.146-0.638 0.146-0.811 0-1.468-0.657-1.468-1.468 0-0.202 0.041-0.395 0.115-0.57l-0.004 0.010c0.139-0.382 0.422-0.684 0.781-0.843l0.009-0.004c0.185-0.090 0.403-0.143 0.633-0.143 0.178 0 0.349 0.032 0.507 0.089l-0.010-0.003zM28.856 13.986c0.741 0.285 1.261 0.983 1.28 1.805v0.002c0 0.012 0 0.025 0 0.039 0 0.814-0.481 1.517-1.174 1.838l-0.012 0.005c-0.244 0.118-0.531 0.188-0.834 0.188-0.515 0-0.984-0.2-1.332-0.527l0.001 0.001c-0.382-0.367-0.62-0.883-0.62-1.453 0-1.112 0.902-2.014 2.014-2.014 0.242 0 0.475 0.043 0.69 0.121l-0.014-0.004zM27.652 19.972c0.932 0.367 1.58 1.26 1.58 2.304 0 0.322-0.062 0.63-0.174 0.913l0.006-0.017c-0.376 0.952-1.289 1.614-2.356 1.614-0.303 0-0.593-0.053-0.862-0.151l0.018 0.006c-0.942-0.36-1.599-1.256-1.599-2.306 0-0.322 0.062-0.629 0.174-0.911l-0.006 0.017c0.245-0.624 0.712-1.116 1.302-1.387l0.016-0.006c0.305-0.145 0.663-0.23 1.041-0.23 0.309 0 0.605 0.057 0.877 0.161l-0.017-0.006zM22.325 24.941c1.028 0.409 1.741 1.395 1.741 2.548 0 0.349-0.066 0.683-0.185 0.991l0.006-0.019c-0.403 1.062-1.413 1.803-2.595 1.803-0.339 0-0.663-0.061-0.963-0.172l0.019 0.006c-1.030-0.4-1.747-1.384-1.747-2.535 0-0.354 0.068-0.693 0.192-1.003l-0.006 0.018c0.267-0.691 0.782-1.236 1.432-1.536l0.017-0.007c0.338-0.165 0.736-0.262 1.156-0.262 0.335 0 0.656 0.061 0.952 0.174l-0.018-0.006zM13.835 24.998c1.221 0.469 2.072 1.633 2.072 2.995 0 0.427-0.083 0.834-0.235 1.206l0.008-0.021c-0.476 1.246-1.661 2.115-3.050 2.115-0.398 0-0.78-0.072-1.133-0.202l0.023 0.007c-1.218-0.471-2.065-1.633-2.065-2.992 0-0.42 0.081-0.822 0.228-1.189l-0.008 0.022c0.312-0.813 0.913-1.457 1.674-1.817l0.020-0.009c0.4-0.194 0.871-0.307 1.368-0.307 0.394 0 0.771 0.071 1.12 0.201l-0.022-0.007zM6.946 18.146c1.39 0.521 2.366 1.828 2.391 3.366v0.003c0.001 0.026 0.001 0.057 0.001 0.087 0 1.525-0.891 2.843-2.18 3.46l-0.023 0.010c-0.462 0.223-1.006 0.354-1.579 0.354-0.977 0-1.865-0.378-2.526-0.996l0.002 0.002c-0.71-0.689-1.151-1.653-1.151-2.719 0-2.093 1.696-3.789 3.789-3.789 0.458 0 0.897 0.081 1.303 0.23l-0.026-0.008zM7.68 7.191c1.5 0.584 2.544 2.017 2.544 3.693 0 0.513-0.098 1.004-0.276 1.453l0.009-0.027c-0.586 1.54-2.049 2.614-3.764 2.614-0.493 0-0.966-0.089-1.402-0.252l0.028 0.009c-1.5-0.584-2.544-2.017-2.544-3.693 0-0.513 0.098-1.004 0.276-1.453l-0.009 0.027c0.387-1.004 1.127-1.799 2.065-2.248l0.025-0.011c0.487-0.229 1.059-0.363 1.661-0.363 0.499 0 0.976 0.092 1.416 0.259l-0.027-0.009zM17.958 0.301c1.75 0.673 2.976 2.325 3.012 4.269v0.004c0.001 0.033 0.001 0.072 0.001 0.111 0 1.934-1.136 3.603-2.776 4.375l-0.029 0.012c-0.575 0.271-1.25 0.43-1.961 0.43-1.236 0-2.361-0.479-3.199-1.261l0.003 0.003c-0.902-0.864-1.462-2.079-1.462-3.424 0-0.61 0.115-1.193 0.325-1.728l-0.011 0.032c0.463-1.188 1.343-2.129 2.455-2.66l0.029-0.013c0.583-0.277 1.267-0.439 1.989-0.439 0.583 0 1.142 0.106 1.658 0.299l-0.033-0.011z"></path>
</svg>
