<!-- Generated by IcoMoon.io -->
<svg version="1.1" xmlns="http://www.w3.org/2000/svg" width="19" height="32" viewBox="0 0 19 32">
<title>jiantou</title>
<path fill="#fff" d="M18.122 17.149l-14.827 14.243c-0.339 0.321-0.795 0.521-1.298 0.53h-0.002c-0.008 0-0.018 0-0.028 0-0.493 0-0.941-0.192-1.273-0.505l0.001 0.001c-0.333-0.312-0.541-0.755-0.541-1.246 0-0.478 0.197-0.911 0.514-1.22v0l13.554-13.023-13.686-12.891c-0.33-0.304-0.537-0.738-0.537-1.22s0.206-0.916 0.536-1.219l0.001-0.001c0.342-0.323 0.805-0.521 1.314-0.521 0.495 0 0.947 0.188 1.287 0.496l-0.002-0.001 14.959 14.111c0.345 0.306 0.561 0.751 0.561 1.245 0 0.482-0.205 0.917-0.533 1.22l-0.001 0.001z"></path>
</svg>
