<!-- Generated by IcoMoon.io -->
<svg version="1.1" xmlns="http://www.w3.org/2000/svg" width="37" height="32" viewBox="0 0 37 32">
<title>jiance</title>
<path d="M6.116 23.067c0.235 0.158 0.524 0.252 0.835 0.252 0.518 0 0.975-0.261 1.246-0.659l0.003-0.005 1.832-2.749 3.23 4.306c0.269 0.373 0.702 0.615 1.191 0.618h0.001c0.007 0.001 0.014 0.001 0.022 0.001 0.042 0 0.081-0.009 0.117-0.024l-0.002 0.001c0.535-0.039 0.988-0.361 1.21-0.816l0.004-0.009 3.413-6.849 3.047 4.077c0.285 0.367 0.726 0.601 1.221 0.601 0.046 0 0.091-0.002 0.136-0.006h-0.006c0.528-0.062 0.971-0.376 1.21-0.816l4.494-9.056c0.104-0.198 0.165-0.434 0.165-0.683 0-0.826-0.67-1.496-1.496-1.496-0.591 0-1.103 0.343-1.345 0.841l-0.004 0.009-3.413 6.849-3.047-4.077c-0.285-0.367-0.726-0.601-1.221-0.601-0.046 0-0.091 0.002-0.136 0.006h0.006c-0.528 0.062-0.971 0.376-1.21 0.816l-0.004 0.008-3.413 6.849-3.047-4.054c-0.274-0.377-0.714-0.619-1.21-0.619-0.516 0-0.97 0.262-1.238 0.66l-0.003 0.005-3.001 4.535c-0.158 0.235-0.252 0.524-0.252 0.835 0 0.518 0.261 0.975 0.659 1.246l0.005 0.003zM35.39-0.023h-0.001c0.003 0 0.007 0 0.010 0 0.686 0 1.243 0.552 1.251 1.237v29.573c-0.008 0.684-0.565 1.236-1.251 1.236-0.003 0-0.007 0-0.009 0h-34.129c-0.008 0-0.016 0-0.024 0-0.683 0-1.237-0.554-1.237-1.237 0 0 0 0 0 0v-29.572c0 0 0 0 0 0 0-0.683 0.554-1.237 1.237-1.237 0.008 0 0.016 0 0.023 0h34.13l-29.274 23.089zM-22.311 26.434l0.002-0.011c-0.021 0.106-0.032 0.216-0.032 0.328 0 0.927 0.752 1.679 1.679 1.679 0.105 0 0.209-0.010 0.298-0.027l0.010-0.001c0.782-0.134 1.377-0.815 1.377-1.635 0-0.916-0.742-1.658-1.658-1.658-0.131 0-0.259 0.015-0.37 0.042l-0.011 0.002c-0.643 0.131-1.151 0.631-1.295 1.281zM-26.709 26.434l0.002-0.011c-0.022 0.109-0.034 0.222-0.034 0.337 0 0.924 0.749 1.672 1.672 1.672 0.109 0 0.215-0.010 0.307-0.028l0.012-0.002c0.64-0.149 1.143-0.652 1.294-1.303l-0.002 0.011c0.020-0.104 0.031-0.212 0.031-0.322 0-0.92-0.746-1.665-1.665-1.665-0.11 0-0.218 0.011-0.311 0.029l-0.010 0.001c-0.652 0.115-1.168 0.623-1.296 1.281zM4.925 52.295v-21.967h-31.748v21.967h31.748z"></path>
</svg>
