<!-- Generated by IcoMoon.io -->
<svg version="1.1" xmlns="http://www.w3.org/2000/svg" width="30" height="32" viewBox="0 0 30 32">
<title>jsqxgl</title>
<path fill="#fff" d="M28.165 32h-8.535c-0.009 0-0.019 0-0.030 0-0.898 0-1.627-0.723-1.636-1.618v-4.937c0.017-0.868 0.707-1.568 1.569-1.603h0.003v-1.116c0.043-2.353 1.961-4.244 4.32-4.244 0.012 0 0.024 0 0.036 0h-0.002c0.005 0 0.011 0 0.017 0 1.192 0 2.273 0.474 3.065 1.243l-0.001-0.001c0.785 0.748 1.273 1.802 1.273 2.97 0 0.012 0 0.023 0 0.034v-0.002 1.116c0.871 0.027 1.569 0.731 1.588 1.602v4.953c-0.023 0.89-0.75 1.604-1.644 1.604-0.008 0-0.016 0-0.024 0h0.001zM26.342 22.726c0-0.004 0-0.009 0-0.014 0-0.659-0.271-1.256-0.707-1.683v0c-0.454-0.428-1.068-0.692-1.743-0.692 0 0-0.001 0-0.001 0v0c-0.005 0-0.011 0-0.017 0-1.326 0-2.402 1.066-2.419 2.388v1.102h4.889v-1.1zM27.914 25.681h-8.048v4.464h8.048v-4.464zM14.757 19.409v0.016c-0.012 0-0.026 0-0.039 0-3.518 0-6.709 1.397-9.050 3.666l0.003-0.003c-2.317 2.231-3.757 5.36-3.757 8.826 0 0.003 0 0.006 0 0.009v0h-1.902c0-0.003 0-0.006 0-0.009 0-2.015 0.428-3.931 1.198-5.66l-0.035 0.089c0.785-1.776 1.85-3.289 3.156-4.555l0.004-0.004c1.313-1.28 2.867-2.32 4.587-3.045l0.097-0.036c0.362-0.141 0.739-0.267 1.1-0.393-0.941-0.479-1.748-1.061-2.455-1.747l0.002 0.002c-1.803-1.734-2.924-4.167-2.924-6.861s1.12-5.127 2.921-6.858l0.003-0.003c1.828-1.758 4.316-2.841 7.058-2.841s5.23 1.083 7.061 2.844l-0.003-0.003c1.794 1.738 2.908 4.17 2.908 6.861s-1.114 5.123-2.905 6.859l-0.003 0.002c-1.81 1.769-4.289 2.861-7.023 2.861-0.001 0-0.002 0-0.004 0v0-0.016zM14.725 1.851c-4.245 0.123-7.639 3.593-7.639 7.856 0 4.341 3.519 7.859 7.86 7.859s7.858-3.517 7.86-7.856v0c-0.075-4.348-3.617-7.844-7.976-7.844-0.036 0-0.073 0-0.109 0.001h0.005v-0.016z"></path>
</svg>
