<!-- Generated by IcoMoon.io -->
<svg version="1.1" xmlns="http://www.w3.org/2000/svg" width="32" height="32" viewBox="0 0 32 32">
<title>loadFail</title>
<path fill="#82c2ff" d="M8.389 16.119h-0.357v-0.357c0-0.131-0.106-0.238-0.238-0.238s-0.238 0.107-0.238 0.238v0 0.357h-0.357c-0.131 0-0.238 0.107-0.238 0.238s0.106 0.238 0.238 0.238v0h0.357v0.357c0 0.131 0.106 0.238 0.238 0.238s0.238-0.107 0.238-0.238v0-0.357h0.357c0.131 0 0.238-0.107 0.238-0.238s-0.107-0.238-0.238-0.238v0z"></path>
<path fill="#ffc966" d="M14.099 8.387h-0.357v-0.357c0-0.131-0.107-0.238-0.238-0.238s-0.238 0.106-0.238 0.238v0 0.357h-0.357c-0.131 0-0.238 0.107-0.238 0.238s0.107 0.238 0.238 0.238v0h0.357v0.357c0 0.131 0.107 0.238 0.238 0.238s0.238-0.107 0.238-0.238v0-0.357h0.357c0.131 0 0.238-0.107 0.238-0.238s-0.107-0.238-0.238-0.238v0z"></path>
<path fill="#d8d8d8" d="M22.188 20.52h-0.357v-0.357c0-0.131-0.107-0.238-0.238-0.238s-0.238 0.107-0.238 0.238v0 0.357h-0.357c-0.131 0-0.238 0.107-0.238 0.238s0.107 0.238 0.238 0.238v0h0.357v0.357c0 0.131 0.107 0.238 0.238 0.238s0.238-0.107 0.238-0.238v0-0.357h0.357c0.131 0 0.238-0.107 0.238-0.238s-0.107-0.238-0.238-0.238v0z"></path>
<path fill="#fafafa" d="M9.222 16.833h18.32c0.854 0 1.546 0.692 1.546 1.546s-0.692 1.546-1.546 1.546h-18.32c-0.854 0-1.546-0.692-1.546-1.546s0.692-1.546 1.546-1.546z"></path>
<path fill="#fafafa" d="M4.106 10.706h28.907c0.854 0 1.546 0.692 1.546 1.546s-0.692 1.546-1.546 1.546h-28.907c-0.854 0-1.546-0.692-1.546-1.546s0.692-1.546 1.546-1.546z"></path>
<path fill="#fafafa" d="M7.794 4.58h16.535c0.854 0 1.546 0.692 1.546 1.546s-0.692 1.546-1.546 1.546h-16.535c-0.854 0-1.546-0.692-1.546-1.546s0.692-1.546 1.546-1.546z"></path>
<path fill="#ffd784" d="M17.5 6.053l-5.615 9.725c-0.063 0.107-0.1 0.235-0.1 0.372 0 0.411 0.333 0.744 0.743 0.744 0 0 0 0 0 0h11.23c0.41 0 0.743-0.333 0.743-0.744 0-0.137-0.037-0.265-0.101-0.375l0.002 0.004-5.615-9.725c-0.131-0.224-0.37-0.372-0.644-0.372s-0.512 0.147-0.641 0.367l-0.002 0.003z"></path>
<path fill="#e7e8e2" d="M20.642 28.61c0 0.46-1.145 0.833-2.558 0.833s-2.558-0.373-2.558-0.833c0-0.46 1.145-0.833 2.558-0.833s2.558 0.373 2.558 0.833z"></path>
<path fill="#ebebeb" d="M17.979 18.141h0.328c0.106 0 0.193 0.086 0.193 0.193v9.845c0 0.106-0.086 0.193-0.193 0.193h-0.328c-0.106 0-0.193-0.086-0.193-0.193v-9.845c0-0.106 0.086-0.193 0.193-0.193z"></path>
<path fill="#ebebeb" d="M17.979 2.558h0.328c0.106 0 0.193 0.086 0.193 0.193v2.113c0 0.106-0.086 0.193-0.193 0.193h-0.328c-0.106 0-0.193-0.086-0.193-0.193v-2.113c0-0.106 0.086-0.193 0.193-0.193z"></path>
<path fill="#6a5939" d="M16.597 11.48c0 0.197-0.16 0.357-0.357 0.357s-0.357-0.16-0.357-0.357c0-0.197 0.16-0.357 0.357-0.357s0.357 0.16 0.357 0.357z"></path>
<path fill="#6a5939" d="M20.285 11.48c0 0.197-0.16 0.357-0.357 0.357s-0.357-0.16-0.357-0.357c0-0.197 0.16-0.357 0.357-0.357s0.357 0.16 0.357 0.357z"></path>
<path fill="none" stroke="#f3787d" stroke-linejoin="miter" stroke-linecap="butt" stroke-miterlimit="10" stroke-width="0.4248" d="M6.407 10.666c0.318 0.285 0.345 0.774 0.060 1.092s-0.774 0.345-1.092 0.060c-0.318-0.285-0.345-0.774-0.060-1.092s0.774-0.345 1.092-0.060z"></path>
<path fill="none" stroke="#aff788" stroke-linejoin="miter" stroke-linecap="butt" stroke-miterlimit="10" stroke-width="0.4248" d="M27.105 8.763c0.318 0.285 0.345 0.774 0.060 1.092s-0.774 0.345-1.092 0.060c-0.318-0.285-0.345-0.774-0.060-1.092s0.774-0.345 1.092-0.060z"></path>
</svg>
