<!-- Generated by IcoMoon.io -->
<svg version="1.1" xmlns="http://www.w3.org/2000/svg" width="32" height="32" viewBox="0 0 32 32">
<title>nan</title>
<path fill="#36b4f3" d="M15.98 32c-8.837 0-16-7.163-16-16s7.163-16 16-16c8.837 0 16 7.163 16 16v0c-0.027 8.826-7.174 15.973-15.997 16h-0.003zM25.34 7.040c-0.16-0.108-0.348-0.191-0.549-0.238l-0.011-0.002-5.040-0.4c-0.013-0.001-0.029-0.001-0.045-0.001-0.582 0-1.056 0.462-1.075 1.039l-0 0.002c0 0.547 0.421 0.995 0.956 1.040l0.004 0 2.64 0.24-3.44 3.44c-0.941-0.79-2.065-1.395-3.297-1.745l-0.063-0.015c-0.486-0.11-1.043-0.173-1.615-0.173-3.609 0-6.631 2.511-7.415 5.882l-0.010 0.051c-0.12 0.512-0.188 1.099-0.188 1.703 0 3.65 2.508 6.715 5.894 7.566l0.054 0.011c0.512 0.121 1.099 0.191 1.703 0.191 3.632 0 6.676-2.515 7.486-5.898l0.011-0.052c0.126-0.515 0.198-1.105 0.198-1.713 0-1.537-0.462-2.965-1.256-4.154l0.017 0.027 3.2-3.36-0.16 2.4c-0 0.012-0.001 0.026-0.001 0.040 0 0.553 0.448 1.001 1.001 1.001 0.539 0 0.978-0.426 1-0.959l0-0.002 0.4-5.12c-0.016-0.322-0.168-0.606-0.398-0.799l-0.002-0.001zM12.46 23.12c-2.401-0.597-4.153-2.734-4.153-5.28 0-3.001 2.432-5.433 5.433-5.433 0.454 0 0.896 0.056 1.317 0.161l-0.037-0.008c2.397 0.645 4.132 2.799 4.132 5.358 0 0.426-0.048 0.841-0.139 1.239l0.007-0.037c-0.598 2.401-2.736 4.152-5.282 4.152-0.454 0-0.894-0.056-1.315-0.16l0.037 0.008z"></path>
</svg>
