<!-- Generated by IcoMoon.io -->
<svg version="1.1" xmlns="http://www.w3.org/2000/svg" width="32" height="32" viewBox="0 0 32 32">
<title>nv</title>
<path fill="#fab0e0" d="M16 0.020c-8.692 0.002-15.763 6.94-15.98 15.58l-0 0.020v0.8c0.223 8.663 7.299 15.6 15.995 15.6 8.837 0 16-7.163 16-16s-7.163-16-16-16c-0.005 0-0.011 0-0.016 0h0.001zM24.14 18.48c-1.374 1.388-3.279 2.248-5.385 2.248-1.745 0-3.351-0.59-4.632-1.581l0.017 0.013-1.82 1.84 4.12 4.040-1.22 1.24-4.12-4.040-2.9 2.94-1.24-1.22 2.9-2.92-4.14-4.040 1.22-1.24 4.14 4.040 1.82-1.86c-1.037-1.272-1.665-2.913-1.665-4.701 0-2.041 0.819-3.891 2.146-5.24l-0.001 0.001c1.372-1.388 3.276-2.248 5.38-2.248 2.055 0 3.918 0.82 5.281 2.15l-0.002-0.001c1.388 1.357 2.248 3.248 2.248 5.34 0 2.042-0.82 3.893-2.149 5.241l0.001-0.001zM14.64 9.22c-1.012 1.036-1.636 2.455-1.636 4.020 0 3.179 2.577 5.756 5.756 5.756s5.756-2.577 5.756-5.756c0-1.604-0.656-3.055-1.715-4.099l-0.001-0.001c-1.041-1.019-2.467-1.648-4.040-1.648-1.613 0-3.071 0.661-4.119 1.727l-0.001 0.001z"></path>
</svg>
