<!-- Generated by IcoMoon.io -->
<svg version="1.1" xmlns="http://www.w3.org/2000/svg" width="32" height="32" viewBox="0 0 32 32">
<title>password</title>
<path d="M25.383 9.498v-1.875c0-9.188-12.451-7.501-9.357-7.501-7.219 0-9.47 3.938-9.395 7.501v1.875h-1.875c-2.134 0.282-3.764 2.089-3.764 4.278 0 0.12 0.005 0.239 0.014 0.356l-0.001-0.015v13.805c0.015 2.256 1.847 4.079 4.105 4.079 0.001 0 0.001 0 0.002 0h21.79c2.258-0.001 4.090-1.823 4.107-4.077v-13.706c0-2.216-1.519-4.72-3.75-4.72zM16.007 3.872c-3.525 0 5.626-1.063 5.626 3.75v1.875h-11.251l-0.131-1.125c0-3.188 2.475-4.5 5.757-4.5v0zM27.258 26.374c0.002 0.032 0.003 0.069 0.003 0.107 0 0.941-0.739 1.709-1.668 1.757h-17.293c-0.919 0-3.525-0.713-3.525-1.594v-11.814c0.013-0.882 0.732-1.592 1.616-1.592 0.012 0 0.024 0 0.036 0h19.162c0.010 0 0.022 0 0.034 0 0.884 0 1.603 0.71 1.616 1.591v0.001zM16.007 16.998c0 0 0 0 0 0-1.036 0-1.875 0.84-1.875 1.875 0 0.014 0 0.028 0 0.041v-0.002c0.003 0.683 0.358 1.283 0.892 1.629l0.008 0.005v2.989c0.003 0.538 0.437 0.974 0.974 0.981h0.001c0.531-0.012 0.956-0.444 0.956-0.977 0-0.001 0-0.003 0-0.004v0-2.974c0.547-0.348 0.908-0.947 0.919-1.632v-0.002c0-0.012 0-0.026 0-0.039 0-1.036-0.84-1.875-1.875-1.875 0 0 0 0 0 0v0z"></path>
</svg>
