<!-- Generated by IcoMoon.io -->
<svg version="1.1" xmlns="http://www.w3.org/2000/svg" width="29" height="32" viewBox="0 0 29 32">
<title>pdf</title>
<path fill="#36b4f3" d="M26.944 24.368h-0.784v6.4c0 0.002 0 0.004 0 0.007 0 0.677-0.549 1.226-1.226 1.226-0.008 0-0.016 0-0.024 0h-21.023c-0.007 0-0.016 0-0.024 0-0.682 0-1.236-0.551-1.24-1.232v-6.4h-0.768c-0.005 0-0.010 0-0.016 0-1.002 0-1.815-0.808-1.824-1.807v-9.329c0.016-0.993 0.825-1.792 1.821-1.792 0.007 0 0.014 0 0.020 0h0.767v-10.208c0.004-0.681 0.558-1.232 1.24-1.232 0.008 0 0.017 0 0.025 0h15.359c0.009-0.001 0.020-0.001 0.032-0.001 0.046 0 0.090 0.006 0.132 0.018l-0.003-0.001c0.006 0.010 0.016 0.016 0.028 0.016 0.001 0 0.003 0 0.004 0v0l0.128 0.064c0.068 0.031 0.122 0.081 0.159 0.142l0.001 0.002 6.272 7.040c0.099 0.106 0.16 0.248 0.16 0.405 0 0.004 0 0.008 0 0.012v-0.001 3.792h0.784c0.014 0 0.031-0.001 0.048-0.001 0.981 0 1.776 0.795 1.776 1.776 0 0.006 0 0.012 0 0.018v-0.001 9.28c-0.006 1-0.818 1.808-1.819 1.808-0.002 0-0.003 0-0.005 0v0zM3.872 30.432h21.024v-6.048h-21.024v6.048zM19.072 17.152c-0.105-1.699-1.388-3.070-3.037-3.31l-0.019-0.002c-0.256-0.028-0.489-0.079-0.713-0.151l0.025 0.007h-3.84v8.272c0 0.208 0.048 0.272 0.272 0.256 0.544-0.016 1.056 0 1.568 0 0.19 0.010 0.412 0.016 0.635 0.016 0.543 0 1.078-0.035 1.603-0.103l-0.062 0.007c1.369-0.209 2.506-1.045 3.125-2.201l0.011-0.023c0.302-0.612 0.479-1.333 0.479-2.095 0-0.237-0.017-0.471-0.050-0.699l0.003 0.026zM6.128 19.264c0.16 0.010 0.346 0.016 0.534 0.016 0.325 0 0.645-0.017 0.961-0.052l-0.039 0.003c1.332-0.132 2.392-1.148 2.59-2.448l0.002-0.016c0.036-0.157 0.056-0.337 0.056-0.523 0-1.143-0.777-2.104-1.831-2.386l-0.017-0.004c-0.24-0.064-0.48-0.112-0.736-0.16h-3.472c-0.176 0-0.192 0.048-0.192 0.224v8.336c0.528 0 1.088-0.016 1.648 0 0.176 0 0.208-0.048 0.208-0.24v-2.48c0-0.224 0.064-0.272 0.288-0.272zM24.896 8.336h-5.632c-0.005 0-0.012 0-0.018 0-0.344 0-0.622-0.279-0.622-0.622 0-0.006 0-0.013 0-0.019v0.001-6.4h-14.752v10.192h21.024v-3.152zM20.528 13.696c0 2.784 0 5.568-0.016 8.352 0 0.16 0.048 0.176 0.176 0.176 0.48 0 0.992-0.016 1.472 0 0.192 0 0.224-0.064 0.224-0.24 0-0.96 0-1.936-0.032-2.88 0-0.224 0.064-0.256 0.272-0.256 0.784 0.016 1.584 0 2.384 0 0.144 0 0.192-0.016 0.192-0.192-0.016-0.384-0.016-0.752 0-1.12 0-0.16-0.032-0.208-0.224-0.208h-2.4c-0.015 0.004-0.032 0.006-0.050 0.006-0.109 0-0.197-0.088-0.197-0.197 0-0.018 0.002-0.035 0.007-0.051v0.001c0.016-0.576 0.016-1.136 0-1.728 0-0.192 0.064-0.224 0.224-0.208h2.656c0.176 0 0.208-0.032 0.208-0.192 0.064-0.384 0.016-0.832 0.064-1.264h-4.96zM5.824 15.296c0-0.144 0.016-0.192 0.192-0.192 0.094-0.004 0.205-0.006 0.316-0.006 0.289 0 0.574 0.014 0.856 0.040l-0.036-0.003c0.623 0.077 1.101 0.604 1.101 1.242 0 0.064-0.005 0.127-0.014 0.189l0.001-0.007c0 0.001 0 0.002 0 0.003 0 0.72-0.584 1.304-1.304 1.304-0.059 0-0.118-0.004-0.175-0.012l0.007 0.001c-0.256 0.016-0.528 0-0.768 0-0.16 0-0.176-0.064-0.176-0.192v-2.368zM14.608 20.72c-0.368 0.032-0.72 0-1.088 0.032-0.011 0.003-0.023 0.004-0.036 0.004-0.088 0-0.16-0.072-0.16-0.16 0-0.013 0.002-0.025 0.004-0.037v0.001-5.152c-0.003-0.013-0.005-0.028-0.005-0.044 0-0.102 0.083-0.186 0.186-0.186 0.015 0 0.030 0.002 0.045 0.005h-0.001c0.122-0.008 0.264-0.012 0.408-0.012 0.433 0 0.856 0.039 1.267 0.114l-0.043-0.007c1.128 0.239 1.963 1.227 1.963 2.41 0 0.081-0.004 0.161-0.012 0.24l0.001-0.010c0.001 0.034 0.002 0.074 0.002 0.114 0 0.81-0.338 1.542-0.881 2.061l-0.001 0.001c-0.44 0.382-1.016 0.617-1.647 0.624h-0.001z"></path>
</svg>
