<!-- Generated by IcoMoon.io -->
<svg version="1.1" xmlns="http://www.w3.org/2000/svg" width="32" height="32" viewBox="0 0 32 32">
<title>ppt</title>
<path d="M24.48 7.52h4.64l-4.64-4.64v4.64zM30.88 6.88c0.8 0.8 1.12 1.6 1.12 2.72v20.32c0 1.12-0.96 2.080-2.080 2.080h-21.44c-1.12 0-2.080-0.96-2.080-2.080v-1.6h1.6v1.6c0 0.16 0.32 0.48 0.48 0.48h21.28c0.32 0 0.48-0.32 0.48-0.48v-20.32c0-0.16 0-0.32 0-0.48h-7.36v-7.52c-0.16 0-0.32 0-0.48 0h-13.92c-0.16 0-0.48 0.32-0.48 0.48v4.8h-1.6v-4.8c0-1.12 0.96-2.080 2.080-2.080h13.92c0.96 0 1.92 0.32 2.56 1.12 0.16 0 5.92 5.76 5.92 5.76zM20.8 14.72v-1.6h7.52v1.6h-7.52zM20.8 19.52v-1.6h7.52v1.6h-7.52zM20.8 24.32v-1.6h7.52v1.6h-7.52zM0 26.72v-18.24h18.080v18.080c0 0.16-18.080 0.16-18.080 0.16zM9.28 19.040c3.040 0 4.48-1.28 4.48-3.84s-1.44-3.68-4.48-3.68h-4.96v12.16h2.080v-4.64h2.88zM11.2 13.76c0.48 0.32 0.64 0.8 0.64 1.6s-0.16 1.28-0.64 1.6c-0.48 0.32-1.12 0.48-1.92 0.48h-2.88v-4.16h2.88c0.8 0 1.44 0.16 1.92 0.48z"></path>
</svg>
