<!-- Generated by IcoMoon.io -->
<svg version="1.1" xmlns="http://www.w3.org/2000/svg" width="32" height="32" viewBox="0 0 32 32">
<title>quan2</title>
<path d="M16 32c-8.837 0-16-7.163-16-16s7.163-16 16-16c8.837 0 16 7.163 16 16v0c0 8.837-7.163 16-16 16v0zM16 1.778c-7.847 0.010-14.204 6.374-14.204 14.222 0 7.855 6.367 14.222 14.222 14.222s14.222-6.367 14.222-14.222v0c-0.009-7.857-6.38-14.222-14.238-14.222-0.001 0-0.001 0-0.002 0v0zM16 24.888c-0.003 0-0.007 0-0.010 0-4.91 0-8.89-3.98-8.89-8.89s3.98-8.89 8.89-8.89c4.91 0 8.89 3.98 8.89 8.89 0 0.001 0 0.001 0 0.002v0c0 4.906-3.975 8.883-8.88 8.888v0z"></path>
</svg>
