<!-- Generated by IcoMoon.io -->
<svg version="1.1" xmlns="http://www.w3.org/2000/svg" width="32" height="32" viewBox="0 0 32 32">
<title>queding</title>
<path fill="#fff" d="M14.859 22.37c-0.252 0.166-0.555 0.277-0.88 0.308l-0.008 0.001c-0.006 0-0.013 0-0.020 0-0.403 0-0.767-0.171-1.022-0.444l-0.001-0.001-4.461-4.75c-0.276-0.233-0.45-0.579-0.45-0.965s0.174-0.733 0.448-0.964l0.002-0.002c0.237-0.268 0.582-0.435 0.966-0.435s0.728 0.168 0.964 0.434l0.001 0.001 3.572 3.707 10.273-8.882c0.209-0.125 0.461-0.199 0.73-0.199 0.499 0 0.938 0.253 1.197 0.638l0.003 0.005c0.199 0.239 0.32 0.548 0.32 0.886 0 0.416-0.183 0.789-0.473 1.043l-0.002 0.001zM32.122 18.083c-0.617 4.304-2.856 7.994-6.066 10.497l-0.036 0.027c-2.647 2.115-6.043 3.393-9.738 3.393-0.761 0-1.509-0.054-2.241-0.159l0.084 0.010c-4.38-0.435-8.171-2.646-10.691-5.893l-0.026-0.035c-2.108-2.66-3.382-6.066-3.382-9.768 0-0.681 0.043-1.353 0.127-2.012l-0.008 0.078c0.567-4.408 2.814-8.204 6.068-10.788l0.034-0.026c2.655-2.124 6.063-3.408 9.77-3.408 0.749 0 1.487 0.052 2.208 0.154l-0.083-0.010c3.338 0.439 6.292 1.827 8.651 3.879l-0.020-0.017c0.287 0.254 0.468 0.623 0.468 1.034 0 0.344-0.126 0.658-0.334 0.899l0.002-0.002c-0.259 0.279-0.628 0.453-1.037 0.453-0.34 0-0.652-0.12-0.896-0.32l0.002 0.002c-1.94-1.648-4.378-2.766-7.059-3.102l-0.067-0.007c-0.536-0.078-1.154-0.123-1.783-0.123-3.050 0-5.854 1.050-8.072 2.808l0.027-0.021c-3.154 2.419-5.168 6.189-5.168 10.43 0 3.065 1.052 5.884 2.814 8.116l-0.021-0.028c2.14 2.729 5.278 4.59 8.856 5.033l0.065 0.007c0.534 0.078 1.151 0.122 1.777 0.122 3.052 0 5.858-1.050 8.078-2.807l-0.027 0.021c2.752-2.050 4.627-5.146 5.034-8.689l0.005-0.058c0.078-0.577 0.122-1.244 0.122-1.921s-0.044-1.344-0.131-1.998l0.008 0.077c-0.057-0.134-0.090-0.29-0.090-0.453 0-0.588 0.429-1.076 0.991-1.168l0.007-0.001c0.139-0.066 0.302-0.105 0.474-0.105 0.202 0 0.391 0.053 0.555 0.146l-0.006-0.003c0.318 0.171 0.544 0.479 0.598 0.843l0.001 0.006c0.123 1.010 0.194 2.18 0.194 3.367 0 0.534-0.014 1.065-0.042 1.592l0.003-0.074z"></path>
</svg>
