<!-- Generated by IcoMoon.io -->
<svg version="1.1" xmlns="http://www.w3.org/2000/svg" width="31" height="32" viewBox="0 0 31 32">
<title>quxiao</title>
<path fill="#595959" d="M18.629 31.693c-0.903 0.187-1.941 0.294-3.004 0.294-6.527 0-12.112-4.039-14.39-9.753l-0.037-0.105c-0.757-1.81-1.197-3.913-1.197-6.119 0-5.477 2.713-10.321 6.869-13.261l0.051-0.034c2.423-1.691 5.43-2.702 8.673-2.702 4.311 0 8.205 1.787 10.981 4.66l0.004 0.004c2.832 2.927 4.578 6.921 4.578 11.323 0 0.007 0 0.013 0 0.020v-0.001c0 0.042 0.001 0.092 0.001 0.142 0 7.585-5.314 13.929-12.422 15.512l-0.106 0.020zM18.097 3.145c-0.75-0.158-1.612-0.248-2.494-0.248-5.317 0-9.868 3.281-11.739 7.929l-0.030 0.085c-0.631 1.493-0.997 3.23-0.997 5.052 0 4.473 2.209 8.43 5.595 10.84l0.041 0.028c1.986 1.396 4.454 2.231 7.117 2.231 3.518 0 6.696-1.457 8.962-3.801l0.003-0.003h0.020c2.313-2.384 3.74-5.639 3.74-9.228 0-0.003 0-0.006 0-0.009v0c0.001-0.055 0.001-0.121 0.001-0.186 0-6.192-4.333-11.371-10.132-12.672l-0.087-0.016zM20.57 23.355l-4.986-5.15-4.986 5.15-2.146-2.207 4.986-5.129-4.986-5.15 2.146-2.187 4.986 5.129 4.986-5.129 2.146 2.187-4.986 5.15 4.986 5.129z"></path>
</svg>
