<!-- Generated by IcoMoon.io -->
<svg version="1.1" xmlns="http://www.w3.org/2000/svg" width="32" height="32" viewBox="0 0 32 32">
<title>right</title>
<path d="M25.057 15.139c0.019 0.040 0.056 0.077 0.072 0.117 0.13 0.256 0.207 0.559 0.207 0.88 0 0.559-0.232 1.065-0.606 1.424l-0.001 0.001-14.696 13.893c-0.357 0.338-0.84 0.547-1.372 0.547-1.102 0-1.996-0.894-1.996-1.996 0-0.57 0.239-1.085 0.623-1.449l0.001-0.001 13.186-12.469-13.135-12.653c-0.377-0.364-0.611-0.873-0.611-1.438 0-1.102 0.893-1.996 1.996-1.996 0.538 0 1.026 0.213 1.385 0.559l-0.001-0.001 14.557 14.029c0.024 0.035 0.046 0.066 0.071 0.095l-0.001-0.002c0.020 0.019 0.042 0.038 0.065 0.055l0.002 0.001c0.104 0.116 0.193 0.249 0.262 0.393l0.004 0.010z"></path>
</svg>
