<!-- Generated by IcoMoon.io -->
<svg version="1.1" xmlns="http://www.w3.org/2000/svg" width="32" height="32" viewBox="0 0 32 32">
<title>roleTurn</title>
<path d="M31.494 10.696l-7.907-9.131c-0.352-0.447-0.894-0.731-1.502-0.731s-1.149 0.284-1.498 0.727l-0.003 0.004c-0.338 0.404-0.543 0.929-0.543 1.501 0 0.002 0 0.004 0 0.005v0 3.845h-3.019c-0.373 0.002-0.699 0.203-0.876 0.503l-0.003 0.005c-0.084 0.245-0.132 0.528-0.132 0.822s0.048 0.577 0.137 0.84l-0.005-0.019c0.18 0.304 0.506 0.505 0.878 0.506h4.505c0.005 0 0.012 0 0.018 0 0.269 0 0.512-0.113 0.684-0.294v0c0.186-0.183 0.302-0.436 0.303-0.717v-4.016c0-0.072 0.016-0.125 0.016-0.16l6.693 7.613c0.030 0.058 0.048 0.127 0.048 0.2s-0.018 0.142-0.049 0.202l0.001-0.002-6.709 7.987c-0.023-0.032-0.037-0.072-0.037-0.115 0-0.016 0.002-0.031 0.005-0.046v0.001-4.168c-0.005-0.555-0.452-1.004-1.006-1.013h-9.521v-4.268c0.002-0.030 0.002-0.065 0.002-0.1 0-1.143-0.897-2.077-2.026-2.136h-0.005c-0.602 0.004-1.14 0.277-1.499 0.705l-0.002 0.003-7.859 9.14c-0.344 0.411-0.553 0.945-0.553 1.527 0 0.574 0.203 1.101 0.54 1.512l-0.003-0.004 7.891 9.011c0.35 0.445 0.889 0.729 1.494 0.729s1.144-0.284 1.49-0.725l0.003-0.004c0.338-0.404 0.543-0.929 0.543-1.501 0-0.002 0-0.004 0-0.005v0-3.802h3.083c0.589-0.195 1.006-0.741 1.006-1.384s-0.417-1.189-0.996-1.381l-0.010-0.003h-4.824c0 0-0.001 0-0.001 0-0.28 0-0.534 0.114-0.718 0.297v0c-0.175 0.187-0.284 0.438-0.288 0.715v3.71c-0.003 0.055-0.014 0.107-0.033 0.155l0.001-0.003-6.022-7.126c-0.038-0.056-0.060-0.125-0.060-0.199s0.022-0.143 0.061-0.2l-0.001 0.001 6.022-7.243c0.018 0.047 0.029 0.102 0.032 0.159v4.167c0 0.002 0 0.004 0 0.006 0 0.556 0.451 1.006 1.006 1.006 0 0 0 0 0 0h9.792v3.526c-0.001 0.024-0.001 0.051-0.001 0.079 0 1.151 0.904 2.091 2.041 2.149h0.005c0.001 0 0.002 0 0.003 0 0.597 0 1.13-0.274 1.48-0.704l0.003-0.003 7.907-9.137c0.344-0.411 0.553-0.945 0.553-1.527 0-0.574-0.203-1.1-0.54-1.512l0.003 0.004z"></path>
</svg>
