<!-- Generated by IcoMoon.io -->
<svg version="1.1" xmlns="http://www.w3.org/2000/svg" width="32" height="32" viewBox="0 0 32 32">
<title>roleAdmin</title>
<path d="M24.016 31.861h-15.731c-0.196 0.002-0.428 0.003-0.661 0.003-2.577 0-5.121-0.143-7.624-0.423l0.308 0.028c0.464-5.155 3.403-9.535 7.605-11.985l0.073-0.039c2.26 1.662 5.098 2.66 8.169 2.66s5.909-0.998 8.207-2.687l-0.038 0.027c4.278 2.487 7.217 6.869 7.672 11.966l0.004 0.059c-2.197 0.251-4.742 0.395-7.322 0.395-0.233 0-0.466-0.001-0.698-0.003h0.035zM16.154 19.669c-0.244 0.022-0.528 0.034-0.814 0.034-5.403 0-9.784-4.38-9.784-9.784s4.38-9.784 9.784-9.784c0.287 0 0.57 0.012 0.851 0.037l-0.037-0.003c0.244-0.022 0.528-0.034 0.814-0.034 5.403 0 9.784 4.38 9.784 9.784s-4.38 9.784-9.784 9.784c-0.287 0-0.57-0.012-0.851-0.037l0.037 0.003z"></path>
</svg>
