<!-- Generated by IcoMoon.io -->
<svg version="1.1" xmlns="http://www.w3.org/2000/svg" width="34" height="32" viewBox="0 0 34 32">
<title>rycdap</title>
<path fill="#fff" d="M33.552 28.149c-0.071 0.037-0.155 0.059-0.244 0.059-0.017 0-0.033-0.001-0.050-0.002h0.002c-0.003 0-0.008 0-0.012 0-0.221 0-0.413-0.12-0.516-0.299l-0.002-0.003-0.411-0.716c-0.381 2.695-2.672 4.745-5.441 4.745-2.173 0-4.051-1.262-4.942-3.092l-0.014-0.033c-0.058-0.076-0.092-0.172-0.092-0.276 0-0.206 0.136-0.38 0.322-0.439l0.003-0.001c0.081-0.053 0.179-0.084 0.285-0.084 0.212 0 0.395 0.126 0.478 0.307l0.001 0.003c0.736 1.465 2.216 2.459 3.931 2.486h0.004c2.213-0.014 4.039-1.652 4.346-3.781l0.003-0.024-0.646 0.414c-0.063 0.050-0.145 0.081-0.233 0.081-0.022 0-0.044-0.002-0.065-0.006h0.002c-0.222-0.005-0.415-0.123-0.526-0.299l-0.002-0.003c-0.065-0.095-0.104-0.212-0.104-0.338 0-0.213 0.11-0.4 0.276-0.508l0.002-0.001 1.884-1.205c0.022-0.035 0.059-0.057 0.103-0.057 0.005 0 0.010 0 0.015 0.001h-0.001c0.060-0.075 0.060-0.075 0.117-0.075h0.237c0.058 0 0.058 0.075 0.117 0.075s0.058 0.056 0.119 0.056l0.058 0.056c0 0.056 0.058 0.056 0.058 0.113l1.117 1.94c0.049 0.097 0.078 0.212 0.078 0.334 0 0.227-0.101 0.431-0.26 0.569l-0.001 0.001zM31.088 23.139c-0.679-1.496-2.159-2.519-3.878-2.524h-0.001c-2.292 0.033-4.166 1.778-4.404 4.011l-0.002 0.020 0.704-0.659c0.103-0.11 0.25-0.179 0.413-0.179s0.309 0.069 0.412 0.179v0c0.107 0.109 0.173 0.259 0.173 0.424s-0.066 0.315-0.173 0.424v0l-1.59 1.563c-0.030 0.030-0.070 0.050-0.114 0.056h-0.001c-0.001 0.031-0.027 0.057-0.058 0.057-0.001 0-0.001 0-0.002 0v0c-0.062 0.047-0.141 0.076-0.226 0.076-0.004 0-0.008 0-0.012 0h0.001c-0.010 0.001-0.023 0.002-0.035 0.002-0.077 0-0.147-0.029-0.199-0.078v0l-0.175-0.17-1.467-1.695c-0.079-0.108-0.127-0.243-0.127-0.389 0-0.178 0.070-0.34 0.185-0.459v0c0.102-0.075 0.229-0.119 0.368-0.119 0.178 0 0.339 0.075 0.453 0.195v0l0.294 0.527c0.373-2.765 2.693-4.882 5.517-4.935h0.063c2.171 0.054 4.031 1.332 4.92 3.169l0.015 0.033c0.031 0.070 0.050 0.151 0.050 0.237 0 0.236-0.139 0.44-0.34 0.534l-0.004 0.002c-0.070 0.033-0.151 0.052-0.237 0.052-0.236 0-0.438-0.144-0.523-0.35l-0.001-0.004zM29.224 17.394c-0.393 0.602-0.954 1.065-1.615 1.329l-0.023 0.008c-1.621-1.283-3.637-2.134-5.84-2.351l-0.046-0.004h-0.013c-0.173-0.019-0.347-0.019-0.522-0.038-0.124 0.019-0.245 0.019-0.36 0.038h-0.153c1.038 0.633 1.935 1.356 2.727 2.18l0.004 0.005c-0.527 0.461-0.981 0.988-1.352 1.572l-0.017 0.029c-1.853-2.083-4.439-3.479-7.349-3.782l-0.049-0.004h-0.011c-0.175-0.019-0.348-0.019-0.524-0.038-0.124 0.019-0.245 0.019-0.358 0.038h-0.166c-0.377 0-0.727 0.019-1.083 0.038h-0.013c-5.876 0.659-10.401 5.599-10.401 11.596 0 0.029 0 0.058 0 0.086v-0.004 1.789h10.171l0.023-0.056h8.099c0.015 0.301-0.036 0.584-0.013 0.866 0.047 0.414 0 0.829 0 1.243h-4.308c0.015 0.007 0.027 0.021 0.032 0.037v0h-15.034c-0.57-0.007-1.028-0.471-1.028-1.041 0-0.005 0-0.009 0-0.014v0.001-2.825c0-0.030 0-0.065 0-0.101 0-5.717 3.489-10.619 8.453-12.693l0.091-0.034 0.586-0.245-0.495-0.396c-0.484-0.391-0.912-0.817-1.291-1.284l-0.012-0.016c-1.121-1.39-1.799-3.177-1.799-5.123 0-0.007 0-0.014 0-0.021v0.001c0-0.019 0-0.041 0-0.063 0-4.429 3.566-8.025 7.984-8.074h0.005c1.028 0.546 2.248 0.866 3.542 0.866s2.514-0.321 3.584-0.887l-0.042 0.020c2.492 0.008 4.712 1.162 6.164 2.961l0.012 0.015c1.151 1.404 1.848 3.219 1.848 5.196 0 2.582-1.189 4.886-3.049 6.395l-0.015 0.012-0.475 0.377 0.526 0.226c1.385 0.555 2.579 1.285 3.627 2.181l-0.018-0.015zM13.556 2.175c-3.284 0.037-5.932 2.708-5.932 5.997 0 0.017 0 0.035 0 0.052v-0.003c0 0.008 0 0.018 0 0.029 0 1.45 0.509 2.781 1.357 3.825l-0.009-0.011c1.085 1.322 2.718 2.16 4.546 2.166h0.001c3.283-0.037 5.93-2.707 5.93-5.995 0-0.018 0-0.036 0-0.054v0.003c0-0.001 0-0.002 0-0.002 0-1.459-0.509-2.799-1.36-3.852l0.009 0.012c-1.084-1.322-2.715-2.16-4.542-2.166h-0.001zM26.532 8.184c0-0.001 0-0.003 0-0.005 0-1.458-0.509-2.797-1.358-3.849l0.009 0.012c-1.084-1.322-2.715-2.16-4.542-2.166h-0.001c-0.558 0.015-1.091 0.103-1.595 0.256l0.043-0.011c0.202 0.207 0.426 0.377 0.607 0.603 1.151 1.394 1.85 3.2 1.85 5.169 0 2.285-0.941 4.35-2.456 5.83l-0.002 0.002c0.455 0.13 0.977 0.206 1.517 0.207h0.001c3.282-0.037 5.928-2.706 5.928-5.993 0-0.019 0-0.037 0-0.056v0.003z"></path>
</svg>
