<!-- Generated by IcoMoon.io -->
<svg version="1.1" xmlns="http://www.w3.org/2000/svg" width="32" height="32" viewBox="0 0 32 32">
<title>rygl</title>
<path fill="#fff" d="M23.442 20.842c-0.002 0-0.003 0-0.005 0-1.739 0-3.149 1.41-3.149 3.149s1.41 3.149 3.149 3.149c1.736 0 3.143-1.405 3.148-3.139v0c0 0 0 0 0 0 0-1.739-1.406-3.149-3.142-3.157h-0.001zM23.442 25.508c-0.835-0.004-1.509-0.681-1.509-1.517 0-0.838 0.679-1.517 1.517-1.517s1.517 0.679 1.517 1.517c0 0.003 0 0.006 0 0.009v0c-0.005 0.834-0.682 1.508-1.517 1.508-0.003 0-0.005 0-0.008 0v0zM31.756 22.35c-0.041-0.551-0.478-0.988-1.025-1.029h-0.075c-0.98 0-1.774-0.794-1.774-1.774v0c0.016-0.247 0.072-0.476 0.161-0.688l-0.005 0.014c0.064-0.149 0.102-0.323 0.102-0.505 0-0.454-0.231-0.853-0.581-1.088l-0.005-0.003-2.082-1.153c-0.152-0.067-0.329-0.107-0.515-0.107-0.006 0-0.012 0-0.018 0h0.001c-0.388 0.002-0.739 0.157-0.997 0.408v0c-0.287 0.501-0.818 0.833-1.427 0.833s-1.14-0.332-1.423-0.825l-0.004-0.008c-0.254-0.263-0.61-0.426-1.004-0.426 0 0 0 0 0 0v0c-0.004 0-0.009 0-0.014 0-0.181 0-0.352 0.039-0.507 0.11l0.008-0.003-0.041 0.018-2.118 1.153-0.051 0.035c-0.33 0.236-0.542 0.618-0.542 1.050 0 0.185 0.039 0.36 0.109 0.519l-0.003-0.008c0.086 0.198 0.142 0.428 0.156 0.669v0.005c0 0.98-0.794 1.774-1.774 1.774v0h-0.082c-0.547 0.046-0.978 0.481-1.018 1.025v0.004c-0.112 0.496-0.176 1.065-0.176 1.65s0.064 1.154 0.185 1.702l-0.010-0.052c0.041 0.551 0.479 0.989 1.027 1.029h0.073c0.98 0 1.774 0.794 1.774 1.774v0c-0.011 0.246-0.067 0.476-0.161 0.686l0.005-0.012c-0.064 0.149-0.101 0.323-0.101 0.506 0 0.453 0.23 0.852 0.579 1.088l0.005 0.003 2.042 1.135c0.153 0.067 0.331 0.107 0.519 0.107 0.005 0 0.009 0 0.014 0h-0.001c0.002 0 0.004 0 0.007 0 0.393 0 0.748-0.163 1-0.425v0c0.375-0.423 0.872-0.729 1.435-0.865l0.019-0.004c0.588 0.141 1.088 0.455 1.459 0.883l0.003 0.003c0.249 0.273 0.606 0.444 1.003 0.444 0.004 0 0.008 0 0.012 0h-0.001c0.001 0 0.001 0 0.002 0 0.207 0 0.402-0.053 0.572-0.145l-0.006 0.003 2.065-1.135 0.050-0.035c0.329-0.233 0.54-0.611 0.54-1.040 0-0.182-0.038-0.355-0.107-0.512l0.003 0.008c-0.083-0.203-0.139-0.439-0.156-0.685v-0.007c0-0.98 0.794-1.774 1.774-1.774v0h0.082c0.546-0.046 0.978-0.481 1.018-1.025v-0.004c0.096-0.486 0.16-1.054 0.177-1.634v-0.016c-0.017-0.595-0.081-1.163-0.188-1.716l0.011 0.066zM30.209 25.082c-1.676 0.23-2.953 1.65-2.957 3.37v0c0.003 0.369 0.067 0.723 0.184 1.051l-0.007-0.022-1.49 0.834c-0.186-0.19-0.387-0.365-0.6-0.523l-0.014-0.010c-0.516-0.42-1.172-0.688-1.888-0.727h-0.008c-0.721 0.029-1.373 0.299-1.885 0.731l0.005-0.004c-0.228 0.158-0.428 0.321-0.614 0.498l0.002-0.002-1.419-0.78c0.115-0.324 0.181-0.698 0.181-1.088 0-1.712-1.283-3.124-2.939-3.327l-0.016-0.002c-0.055-0.318-0.092-0.691-0.103-1.071v-0.011c0.010-0.39 0.047-0.763 0.109-1.128l-0.007 0.046c1.676-0.224 2.955-1.645 2.955-3.365 0-0.002 0-0.004 0-0.006v0c-0.006-0.37-0.070-0.723-0.184-1.052l0.007 0.024 1.54-0.851c0.184 0.183 0.384 0.352 0.596 0.504l0.015 0.010c0.505 0.402 1.144 0.658 1.841 0.692h0.007c0.697-0.036 1.331-0.284 1.844-0.68l-0.008 0.006c0.226-0.167 0.424-0.329 0.612-0.502l-0.006 0.005 1.474 0.816c-0.108 0.306-0.172 0.659-0.177 1.026v0.002c0 0.002 0 0.003 0 0.005 0 1.72 1.28 3.142 2.94 3.363l0.017 0.002c0.055 0.319 0.092 0.693 0.101 1.073v0.009c-0.008 0.389-0.045 0.762-0.107 1.127l0.006-0.045zM2.113 29.694v-1.774c0.018-6.063 4.652-11.039 10.571-11.597l0.047-0.004h0.012c0.365-0.035 0.734-0.071 1.109-0.071 0.055 0 0.11 0.018 0.167 0.018 1.622-0.022 3.124-0.523 4.374-1.366l-0.029 0.018 0.513-0.39c1.911-1.486 3.128-3.785 3.129-6.368v0c0-4.506-3.653-8.16-8.16-8.16s-8.16 3.653-8.16 8.16v0c0.001 2.584 1.22 4.882 3.113 6.354l0.018 0.014 0.509 0.39-0.6 0.248c-5.148 2.035-8.724 6.968-8.724 12.736 0 0.006 0 0.013 0 0.019v-0.001 2.82c0.007 0.57 0.47 1.029 1.041 1.029 0.003 0 0.006 0 0.009 0h15.357c-0.476-0.602-0.899-1.284-1.241-2.011l-0.027-0.064h-13.036zM7.79 8.16c0-0.012 0-0.026 0-0.041 0-3.344 2.711-6.054 6.054-6.054s6.054 2.711 6.054 6.054c0 3.343-2.709 6.053-6.052 6.054v0c-0.004 0-0.009 0-0.014 0-3.327 0-6.025-2.689-6.042-6.012v-0.002z"></path>
</svg>
