<!-- Generated by IcoMoon.io -->
<svg version="1.1" xmlns="http://www.w3.org/2000/svg" width="32" height="32" viewBox="0 0 32 32">
<title>saveSucc</title>
<path fill="#f2fef4" d="M1.353 15.84h15.020c0.747 0 1.353 0.606 1.353 1.353s-0.606 1.353-1.353 1.353h-15.020c-0.747 0-1.353-0.606-1.353-1.353s0.606-1.353 1.353-1.353z"></path>
<path fill="#f2fef4" d="M6.297 23.024h24.35c0.747 0 1.353 0.606 1.353 1.353s-0.606 1.353-1.353 1.353h-24.35c-0.747 0-1.353-0.606-1.353-1.353s0.606-1.353 1.353-1.353z"></path>
<path fill="#e3ffe8" d="M25.656 17.892c0 4.946-4.010 8.956-8.956 8.956s-8.956-4.010-8.956-8.956c0-4.946 4.010-8.956 8.956-8.956s8.956 4.010 8.956 8.956z"></path>
<path fill="#28e649" d="M16.7 23.304c-0.001 0-0.003 0-0.004 0-2.937 0-5.318-2.381-5.318-5.318s2.381-5.318 5.318-5.318c0.876 0 1.702 0.212 2.431 0.587l-0.030-0.014c0.232 0.052 0.403 0.256 0.403 0.501 0 0.283-0.229 0.512-0.512 0.512-0.104 0-0.201-0.031-0.282-0.084l0.002 0.001-0.009 0.017c-0.578-0.31-1.265-0.492-1.994-0.492-2.368 0-4.288 1.92-4.288 4.288s1.92 4.288 4.288 4.288c2.368 0 4.288-1.92 4.288-4.288 0-0.823-0.232-1.592-0.634-2.245l0.011 0.019 0.004-0.003c-0.078-0.089-0.126-0.207-0.126-0.337 0-0.282 0.229-0.511 0.511-0.511 0.2 0 0.373 0.115 0.457 0.282l0.001 0.003 0.006-0.004c0.499 0.795 0.795 1.762 0.795 2.798 0 2.937-2.381 5.317-5.317 5.317 0 0-0.001 0-0.001 0v0zM15.673 20.785l-2.146-1.959 1.306-0.84 0.84 1.493s1.594-2.992 3.918-3.918c0 0-0.287 0.731-0.187 1.959 0 0-1.795 0.507-3.732 3.265z"></path>
<path fill="#9ff5ae" d="M24.443 10.009c0 0.386-0.313 0.7-0.7 0.7s-0.7-0.313-0.7-0.7c0-0.386 0.313-0.7 0.7-0.7s0.7 0.313 0.7 0.7z"></path>
<path fill="#9ff5ae" d="M6.811 21.204c0 0.283-0.23 0.513-0.513 0.513s-0.513-0.23-0.513-0.513c0-0.283 0.23-0.513 0.513-0.513s0.513 0.23 0.513 0.513z"></path>
<path fill="#28e649" opacity="0.5" d="M18.255 7.931l-0.347-1.042-1.042-0.347 1.042-0.348 0.347-1.042 0.347 1.042 1.042 0.348-1.042 0.347z"></path>
<path fill="#9ff5ae" opacity="0.8" d="M26.776 16.773l-0.257-0.77-0.77-0.257 0.77-0.257 0.257-0.771 0.257 0.771 0.769 0.257-0.77 0.257z"></path>
<path fill="#28e649" d="M10.262 12.388l-0.233-0.7-0.7-0.233 0.7-0.233 0.233-0.7 0.233 0.7 0.7 0.233-0.7 0.233z"></path>
<path fill="#28e649" opacity="0.5" d="M21.644 23.77l0.233-0.7 0.7-0.233-0.7-0.233-0.233-0.7-0.233 0.7-0.7 0.233 0.7 0.233z"></path>
<path fill="#28e649" opacity="0.5" d="M17.773 25.543h2.799c0.077 0 0.14 0.063 0.14 0.14s-0.063 0.14-0.14 0.14h-2.799c-0.077 0-0.14-0.063-0.14-0.14s0.063-0.14 0.14-0.14z"></path>
<path fill="#28e649" opacity="0.5" d="M16.933 25.543h0.28c0.077 0 0.14 0.063 0.14 0.14s-0.063 0.14-0.14 0.14h-0.28c-0.077 0-0.14-0.063-0.14-0.14s0.063-0.14 0.14-0.14z"></path>
<path fill="#28e649" opacity="0.5" d="M16.187 25.543h0.28c0.077 0 0.14 0.063 0.14 0.14s-0.063 0.14-0.14 0.14h-0.28c-0.077 0-0.14-0.063-0.14-0.14s0.063-0.14 0.14-0.14z"></path>
</svg>
