<!-- Generated by IcoMoon.io -->
<svg version="1.1" xmlns="http://www.w3.org/2000/svg" width="32" height="32" viewBox="0 0 32 32">
<title>sc</title>
<path fill="#595959" d="M25.066 27.593c0 0.011 0 0.025 0 0.038 0 1.079-0.868 1.955-1.944 1.967h-14.099c-1.079-0.021-1.945-0.901-1.945-1.983 0-0.008 0-0.016 0-0.024v0.001-21.204h17.988v21.208zM10.989 2.797c0-0.221 0.18-0.401 0.401-0.401h9.405c0.221 0 0.401 0.18 0.401 0.401v0 1.203h-10.207v-1.203zM30.942 4h-7.42v-1.203c0-0.008 0-0.017 0-0.026 0-1.514-1.217-2.744-2.725-2.765h-9.407c-1.511 0.021-2.727 1.251-2.727 2.765 0 0.009 0 0.018 0 0.028v-0.001 1.203h-7.46c-0.664 0-1.203 0.539-1.203 1.203s0.539 1.203 1.203 1.203v0h3.509v21.182c0.001 1.212 0.483 2.311 1.264 3.117l-0.001-0.001c0.775 0.792 1.854 1.285 3.047 1.289h14.098c1.195-0.001 2.275-0.494 3.047-1.288l0.001-0.001c0.781-0.805 1.262-1.904 1.263-3.116v-21.2h3.509c0.656-0.011 1.183-0.546 1.183-1.203 0 0 0 0 0 0v0c0 0 0 0 0 0 0-0.65-0.527-1.177-1.177-1.177-0.002 0-0.004 0-0.006 0v0zM16.083 25.98c0.645-0.012 1.163-0.538 1.163-1.185 0-0.006 0-0.013 0-0.019v0.001-12.808c0-0.648-0.525-1.173-1.173-1.173s-1.173 0.525-1.173 1.173v0 12.808c0 0.004 0 0.009 0 0.014 0 0.655 0.529 1.186 1.183 1.189v0zM10.588 25.98c0.656-0.011 1.183-0.546 1.183-1.203 0 0 0 0 0 0v0-12.808c0 0 0 0 0 0 0-0.657-0.527-1.192-1.182-1.203h-0.001c-0.654 0.002-1.183 0.533-1.183 1.187 0 0.006 0 0.011 0 0.017v-0.001 12.808c0.014 0.652 0.533 1.178 1.181 1.203h0.002zM21.557 25.98c0.654-0.003 1.183-0.534 1.183-1.189 0-0.005 0-0.010 0-0.015v0.001-12.808c0-0.648-0.525-1.173-1.173-1.173s-1.173 0.525-1.173 1.173v0 12.808c0 0.005 0 0.012 0 0.018 0 0.647 0.518 1.173 1.162 1.185h0.001z"></path>
</svg>
