<!-- Generated by IcoMoon.io -->
<svg version="1.1" xmlns="http://www.w3.org/2000/svg" width="32" height="32" viewBox="0 0 32 32">
<title>select</title>
<path d="M31.837 13.734c-1.148-7.803-7.796-13.725-15.828-13.725-4.407 0-8.398 1.783-11.29 4.667v0c-0.538 0.532-1.035 1.1-1.49 1.703l-0.029 0.039c-1.998 2.636-3.2 5.97-3.2 9.585 0 3.201 0.943 6.183 2.566 8.681l-0.038-0.062c0.209 0.316 0.563 0.521 0.964 0.521 0.23 0 0.444-0.067 0.623-0.183l-0.005 0.003c0.317-0.205 0.523-0.556 0.523-0.955 0-0.233-0.070-0.449-0.19-0.629l0.003 0.004c-1.012-1.55-1.724-3.388-2.006-5.365l-0.008-0.072c-0.089-0.585-0.139-1.261-0.139-1.948 0-7.568 6.135-13.703 13.703-13.703s13.703 6.135 13.703 13.703c0 7.568-6.135 13.703-13.703 13.703-2.626 0-5.079-0.739-7.164-2.019l0.060 0.034c-0.168-0.103-0.372-0.165-0.591-0.165-0.411 0-0.772 0.217-0.973 0.543l-0.003 0.005c-0.107 0.169-0.17 0.375-0.17 0.596 0 0.411 0.22 0.771 0.549 0.968l0.005 0.003c2.366 1.459 5.232 2.324 8.301 2.324 8.831 0 15.989-7.159 15.989-15.989 0-0.803-0.059-1.592-0.173-2.363l0.011 0.087zM12.89 21.888v0c0.060 0.051 0.128 0.095 0.203 0.127l0.005 0.002c0.028 0.022 0.059 0.043 0.093 0.059l0.003 0.001c0.104 0.043 0.224 0.067 0.35 0.067 0.001 0 0.001 0 0.002 0v0c0.003 0 0.006 0 0.010 0 0.13 0 0.253-0.028 0.364-0.077l-0.006 0.002c0.043-0.019 0.080-0.043 0.113-0.071l-0.001 0.001c0.079-0.043 0.147-0.089 0.21-0.142l-0.002 0.002s0-0.010 0.016-0.013v0l11.017-11.305c0.181-0.21 0.291-0.486 0.291-0.787 0-0.358-0.155-0.679-0.402-0.9l-0.001-0.001c-0.221-0.201-0.516-0.324-0.839-0.324s-0.618 0.123-0.84 0.325l0.001-0.001-9.945 10.519-5.037-4.859c-0.207-0.19-0.483-0.307-0.788-0.307-0.324 0-0.616 0.132-0.827 0.345v0c-0.199 0.217-0.321 0.508-0.321 0.827 0 0.293 0.103 0.563 0.274 0.774l-0.002-0.002 6.044 5.739s0.016 0 0.016 0.010v0z"></path>
</svg>
