<!-- Generated by IcoMoon.io -->
<svg version="1.1" xmlns="http://www.w3.org/2000/svg" width="32" height="32" viewBox="0 0 32 32">
<title>set</title>
<path d="M31.72 18.941c-0.105 0.509-0.494 0.905-0.991 1.018l-0.009 0.002c-1.452 0.337-2.652 1.23-3.387 2.436l-0.013 0.024c-0.442 0.731-0.704 1.614-0.704 2.558 0 0.551 0.089 1.082 0.254 1.577l-0.010-0.035c0.039 0.116 0.062 0.25 0.062 0.389 0 0.391-0.179 0.739-0.46 0.969l-0.002 0.002c-1.467 1.268-3.196 2.281-5.089 2.946l-0.111 0.034c-0.125 0.040-0.268 0.063-0.417 0.063-0.393 0-0.749-0.162-1.003-0.423v0c-0.957-1.023-2.316-1.66-3.823-1.66-0.006 0-0.012 0-0.018 0h0.001c-1.512 0.003-2.874 0.64-3.838 1.657l-0.002 0.002c-0.231 0.258-0.566 0.42-0.938 0.42-0.008 0-0.015 0-0.023 0h0.001c-0.066 0.010-0.142 0.015-0.22 0.015s-0.154-0.005-0.229-0.016l0.009 0.001c-2.003-0.722-3.73-1.747-5.22-3.037l0.021 0.017c-0.282-0.233-0.461-0.583-0.461-0.974 0-0.138 0.022-0.271 0.063-0.395l-0.003 0.009c0.15-0.454 0.237-0.977 0.237-1.52 0-0.953-0.267-1.844-0.729-2.601l0.012 0.022c-0.75-1.224-1.95-2.111-3.364-2.433l-0.036-0.007c-0.506-0.115-0.895-0.511-0.999-1.012l-0.001-0.008c-0.178-0.865-0.28-1.859-0.28-2.876 0-0.036 0-0.073 0-0.109v0.006c0-0.034 0-0.075 0-0.116 0-1.006 0.102-1.989 0.297-2.938l-0.016 0.094c0.105-0.509 0.494-0.905 0.991-1.018l0.009-0.002c1.451-0.325 2.649-1.222 3.367-2.436l0.013-0.024c0.449-0.737 0.715-1.628 0.715-2.582 0-0.542-0.086-1.064-0.245-1.553l0.010 0.035c-0.039-0.116-0.062-0.25-0.062-0.389 0-0.391 0.179-0.739 0.46-0.969l0.002-0.002c1.464-1.269 3.194-2.278 5.091-2.928l0.109-0.032c0.133-0.049 0.288-0.077 0.448-0.077 0.382 0 0.727 0.16 0.971 0.417l0.001 0.001c0.957 1.023 2.316 1.66 3.823 1.66 0.006 0 0.012 0 0.018 0h-0.001c0.019 0 0.041 0 0.064 0 1.478 0 2.814-0.605 3.776-1.58l0.001-0.001c0.245-0.257 0.589-0.417 0.972-0.417 0.161 0 0.315 0.028 0.458 0.080l-0.009-0.003c2.006 0.682 3.736 1.69 5.219 2.976l-0.019-0.016c0.283 0.231 0.462 0.58 0.462 0.97 0 0.139-0.023 0.273-0.065 0.398l0.003-0.009c-0.155 0.461-0.244 0.991-0.244 1.542 0 0.944 0.262 1.827 0.716 2.58l-0.013-0.022c0.757 1.203 1.957 2.069 3.365 2.374l0.035 0.006c0.506 0.115 0.895 0.511 0.999 1.011l0.001 0.008c0.178 0.859 0.28 1.846 0.28 2.857 0 0.036 0 0.072 0 0.108v-0.006c0 0.030 0 0.066 0 0.102 0 1.004-0.102 1.985-0.296 2.931l0.016-0.094zM28.4 14.481c-1.681-0.601-3.047-1.74-3.921-3.206l-0.019-0.034c-0.626-1.024-0.996-2.263-0.996-3.589 0-0.485 0.050-0.959 0.144-1.416l-0.008 0.045c-0.807-0.614-1.731-1.139-2.721-1.532l-0.079-0.028c-1.303 1.047-2.978 1.68-4.8 1.68s-3.497-0.633-4.815-1.691l0.015 0.012c-1.069 0.426-1.992 0.951-2.831 1.582l0.031-0.022c0.079 0.403 0.125 0.867 0.125 1.341 0 1.332-0.358 2.58-0.983 3.654l0.019-0.035c-0.901 1.501-2.272 2.639-3.908 3.224l-0.052 0.016c-0.064 0.436-0.101 0.939-0.101 1.45 0 0.046 0 0.091 0.001 0.137v-0.007c0.003 0.56 0.039 1.108 0.107 1.647l-0.007-0.067c1.687 0.58 3.057 1.717 3.922 3.186l0.018 0.034c0.66 1.061 1.051 2.349 1.051 3.728 0 0.443-0.040 0.876-0.117 1.296l0.007-0.044c0.787 0.604 1.682 1.133 2.638 1.548l0.082 0.032c1.3-1.056 2.975-1.695 4.8-1.695s3.5 0.639 4.814 1.706l-0.014-0.011c1.062-0.452 1.976-0.981 2.816-1.606l-0.036 0.026c-0.079-0.401-0.124-0.861-0.124-1.332 0-3.177 2.046-5.877 4.893-6.852l0.051-0.015c0.064-0.436 0.101-0.939 0.101-1.45 0-0.046 0-0.091-0.001-0.137v0.007c-0.003-0.56-0.039-1.108-0.107-1.647l0.007 0.067zM21.060 17.841c-0.197 0.144-0.445 0.23-0.712 0.23-0.095 0-0.187-0.011-0.276-0.031l0.008 0.002c-0.368-0.060-0.679-0.266-0.877-0.555l-0.003-0.005c-0.147-0.197-0.235-0.445-0.235-0.713 0-0.102 0.013-0.201 0.037-0.295l-0.002 0.008c0.010-0.081 0.015-0.175 0.015-0.27s-0.005-0.189-0.016-0.281l0.001 0.011c-0.021-1.268-0.82-2.344-1.939-2.773l-0.021-0.007c-0.338-0.138-0.73-0.218-1.141-0.218-0.86 0-1.638 0.351-2.199 0.918v0c-0.53 0.542-0.856 1.285-0.856 2.104 0 0.44 0.094 0.858 0.264 1.235l-0.008-0.019c0.494 1.082 1.567 1.821 2.812 1.821 0.024 0 0.048 0 0.071-0.001h-0.004c0.084 0.010 0.181 0.015 0.28 0.015s0.196-0.005 0.292-0.016l-0.012 0.001c0.1-0.027 0.215-0.043 0.334-0.043 0.392 0 0.743 0.171 0.985 0.442l0.001 0.001c0.204 0.229 0.329 0.532 0.329 0.865 0 0.679-0.521 1.236-1.184 1.295h-0.005c-0.153 0.019-0.33 0.030-0.51 0.030s-0.357-0.011-0.531-0.032l0.021 0.002c-0.105 0.007-0.228 0.011-0.352 0.011-2.045 0-3.837-1.083-4.833-2.706l-0.014-0.025c-0.518-0.827-0.825-1.833-0.825-2.91s0.307-2.082 0.839-2.933l-0.014 0.023c1.080-1.637 2.91-2.703 4.99-2.703 3.18 0 5.778 2.491 5.949 5.628l0.001 0.015c-0.004 0.356-0.040 0.701-0.106 1.036l0.006-0.036c-0.052 0.371-0.26 0.685-0.555 0.877l-0.005 0.003z"></path>
</svg>
