<!-- Generated by IcoMoon.io -->
<svg version="1.1" xmlns="http://www.w3.org/2000/svg" width="32" height="32" viewBox="0 0 32 32">
<title>set2</title>
<path d="M28.21 17.576c0.069-0.467 0.111-1.011 0.116-1.564v-0.006c-0.006-0.559-0.048-1.102-0.124-1.635l0.008 0.066 3.47-2.637c0.186-0.147 0.304-0.372 0.304-0.625 0-0.147-0.040-0.284-0.109-0.402l0.002 0.004-3.285-5.538c-0.151-0.243-0.416-0.402-0.719-0.402-0.103 0-0.201 0.018-0.293 0.052l0.006-0.002-4.090 1.599c-0.802-0.609-1.717-1.135-2.697-1.536l-0.081-0.029-0.621-4.236c-0.057-0.39-0.389-0.686-0.79-0.686-0.007 0-0.014 0-0.020 0h-6.57c-0.006 0-0.014 0-0.021 0-0.397 0-0.726 0.29-0.787 0.67l-0.001 0.005-0.624 4.24c-1.061 0.44-1.976 0.965-2.812 1.589l0.034-0.024-4.090-1.599c-0.089-0.036-0.192-0.057-0.3-0.057-0.3 0-0.563 0.163-0.704 0.405l-0.002 0.004-3.285 5.538c-0.070 0.115-0.112 0.254-0.112 0.403 0 0.253 0.12 0.477 0.307 0.62l0.002 0.001 3.468 2.637c-0.072 0.472-0.114 1.016-0.114 1.57s0.041 1.098 0.121 1.63l-0.007-0.060-3.468 2.637c-0.185 0.147-0.303 0.373-0.303 0.626 0 0.146 0.040 0.284 0.108 0.402l-0.002-0.004 3.285 5.538c0.151 0.243 0.417 0.402 0.72 0.402 0.103 0 0.201-0.018 0.292-0.052l-0.006 0.002 4.090-1.599c0.801 0.61 1.717 1.135 2.698 1.534l0.080 0.029 0.624 4.243c0.061 0.384 0.389 0.674 0.786 0.674 0.008 0 0.016 0 0.024 0h6.57c0.007 0 0.015 0 0.023 0 0.396 0 0.725-0.29 0.785-0.67l0.001-0.005 0.624-4.243c1.061-0.434 1.976-0.959 2.81-1.586l-0.032 0.023 4.090 1.599c0.088 0.036 0.191 0.057 0.299 0.057 0.301 0 0.563-0.163 0.705-0.405l0.002-0.004 3.285-5.538c0.067-0.114 0.106-0.251 0.106-0.398 0-0.253-0.118-0.478-0.301-0.624l-0.002-0.001zM16.010 21.607c-3.028-0.084-5.451-2.559-5.451-5.6 0-3.094 2.508-5.602 5.602-5.602s5.602 2.508 5.602 5.602c0 0 0 0 0 0v0c-0.049 3.103-2.576 5.6-5.686 5.6-0.024 0-0.047 0-0.070 0h0.004z"></path>
</svg>
