<!-- Generated by IcoMoon.io -->
<svg version="1.1" xmlns="http://www.w3.org/2000/svg" width="32" height="32" viewBox="0 0 32 32">
<title>shanchutishi</title>
<path fill="#ff4d4f" d="M16 32c-8.837 0-16-7.163-16-16s7.163-16 16-16c8.837 0 16 7.163 16 16v0c0 8.837-7.163 16-16 16v0zM16 28.19c1.262 0 2.286-1.023 2.286-2.286s-1.023-2.286-2.286-2.286c-1.262 0-2.286 1.023-2.286 2.286v0c0 1.262 1.023 2.286 2.286 2.286v0zM16 5.333c-1.683 0-3.048 1.364-3.048 3.048v0l0.762 10.667c0 1.262 1.023 2.286 2.286 2.286s2.286-1.023 2.286-2.286v0l0.762-10.667c0-1.683-1.364-3.048-3.048-3.048v0z"></path>
</svg>
