<!-- Generated by IcoMoon.io -->
<svg version="1.1" xmlns="http://www.w3.org/2000/svg" width="36" height="32" viewBox="0 0 36 32">
<title>shangchuan</title>
<path fill="#f5f5f6" d="M31.028 32h-26.055c-0.008 0-0.017 0-0.026 0-2.71 0-4.91-2.188-4.929-4.894v-8.254c0-0.004 0-0.009 0-0.015 0-0.577 0.468-1.045 1.045-1.045 0.012 0 0.024 0 0.036 0.001h-0.002c0.007 0 0.014 0 0.022 0 0.584 0 1.057 0.473 1.057 1.057 0 0.001 0 0.002 0 0.002v0 8.252c0.016 1.526 1.257 2.757 2.785 2.757 0.004 0 0.009 0 0.013 0h26.015c0.004 0 0.008 0 0.012 0 1.528 0 2.769-1.231 2.785-2.756v-8.254c0-0.001 0-0.001 0-0.002 0-0.584 0.473-1.057 1.057-1.057 0.008 0 0.015 0 0.023 0h-0.001c0.004 0 0.010 0 0.015 0 0.594 0 1.079 0.469 1.104 1.057v8.254c-0.026 2.709-2.228 4.895-4.941 4.895-0.005 0-0.010 0-0.015 0h0.001zM25.533 9.621c-0.295-0.012-0.561-0.131-0.76-0.32v0l-5.715-5.655v17.703c0 0.596-0.483 1.079-1.079 1.079s-1.079-0.483-1.079-1.079v0-17.703l-5.715 5.655c-0.195 0.195-0.462 0.316-0.759 0.32h-0.001c-0.314-0.018-0.597-0.136-0.822-0.322l0.002 0.002c-0.203-0.187-0.329-0.453-0.329-0.749s0.127-0.563 0.329-0.749l0.001-0.001 7.553-7.453c0.039-0.068 0.102-0.118 0.178-0.139l0.002-0.001c0.012-0.022 0.034-0.038 0.060-0.040v0c0.029-0.039 0.070-0.068 0.118-0.080h0.001c0.028-0.015 0.062-0.029 0.096-0.039l0.004-0.001c0.039-0.005 0.073-0.012 0.106-0.021l-0.006 0.001c0.066-0.019 0.142-0.030 0.22-0.030s0.154 0.011 0.226 0.031l-0.006-0.001c0.039 0.006 0.073 0.013 0.106 0.021l-0.006-0.001c0.040 0 0.080 0.040 0.12 0.040 0.040 0.040 0.060 0.040 0.1 0.080 0.021 0.021 0.048 0.035 0.079 0.040h0.001c0.070 0.037 0.13 0.083 0.179 0.139l0.001 0.001 7.533 7.453c0.203 0.187 0.329 0.453 0.329 0.749s-0.127 0.563-0.329 0.749l-0.001 0.001c-0.191 0.188-0.45 0.308-0.737 0.32h-0.002z"></path>
</svg>
