<!-- Generated by IcoMoon.io -->
<svg version="1.1" xmlns="http://www.w3.org/2000/svg" width="32" height="32" viewBox="0 0 32 32">
<title>shanchury1</title>
<path fill="#f66" d="M16.011 0c-8.828 0.011-15.98 7.17-15.98 16 0 8.837 7.163 16 16 16s16-7.163 16-16c0-0.007 0-0.014 0-0.021v0.001c-0.062-8.814-7.202-15.941-16.016-15.98h-0.004zM24.482 22.468c0.203 0.206 0.329 0.489 0.329 0.801 0 0.63-0.51 1.14-1.14 1.14-0.317 0-0.604-0.13-0.811-0.339l-6.448-6.448-6.468 6.468c-0.205 0.194-0.482 0.313-0.787 0.313-0.634 0-1.147-0.514-1.147-1.147 0-0.305 0.119-0.582 0.313-0.788l-0.001 0.001 6.468-6.468-6.468-6.468c-0.222-0.21-0.36-0.506-0.36-0.835 0-0.634 0.514-1.147 1.147-1.147 0.329 0 0.625 0.138 0.834 0.36l0.001 0.001 6.448 6.488 6.488-6.488c0.205-0.194 0.482-0.313 0.787-0.313 0.634 0 1.147 0.514 1.147 1.147 0 0.305-0.119 0.582-0.313 0.788l0-0.001-6.488 6.468z"></path>
</svg>
