<!-- Generated by IcoMoon.io -->
<svg version="1.1" xmlns="http://www.w3.org/2000/svg" width="32" height="32" viewBox="0 0 32 32">
<title>succ</title>
<path d="M16.007 31.993c-0.004 0-0.009 0-0.013 0-8.833 0-15.993-7.16-15.993-15.993s7.16-15.993 15.993-15.993c2.634 0 5.119 0.637 7.31 1.765l-0.090-0.042c0.698 0.156 1.212 0.771 1.212 1.506 0 0.851-0.69 1.541-1.541 1.541-0.313 0-0.604-0.093-0.847-0.253l0.006 0.004-0.028 0.051c-1.739-0.932-3.805-1.48-5.998-1.48-7.123 0-12.897 5.774-12.897 12.897s5.774 12.897 12.897 12.897c7.123 0 12.897-5.774 12.897-12.897 0-2.475-0.697-4.787-1.906-6.751l0.032 0.056 0.012-0.008c-0.236-0.269-0.38-0.624-0.38-1.012 0-0.849 0.689-1.538 1.538-1.538 0.602 0 1.123 0.346 1.375 0.849l0.004 0.009 0.019-0.011c1.501 2.391 2.391 5.298 2.391 8.412 0 8.833-7.16 15.993-15.993 15.993 0 0 0 0 0 0v0zM12.92 24.417l-6.453-5.892 3.928-2.525 2.525 4.489s4.795-8.998 11.785-11.785c0 0-0.863 2.2-0.561 5.892 0 0-5.4 1.524-11.223 9.82z"></path>
</svg>
