<!-- Generated by IcoMoon.io -->
<svg version="1.1" xmlns="http://www.w3.org/2000/svg" width="32" height="32" viewBox="0 0 32 32">
<title>success</title>
<path d="M3.984 19.082l0.691 0.214c1.417 5.153 6.047 8.881 11.552 8.913h0.004c0.002 0 0.005 0 0.007 0 2.977 0 5.698-1.099 7.778-2.914l-0.014 0.012 0.691 0.214c-2.212 2.052-5.186 3.311-8.453 3.311-0.003 0-0.006 0-0.010 0v0c-5.929-0.037-10.888-4.143-12.229-9.664l-0.018-0.087zM6.924 7.325c2.295-2.557 5.61-4.159 9.3-4.159 0.002 0 0.005 0 0.007 0v0c6.338 0 11.581 4.757 12.477 10.951l-0.64-0.205c-0.97-5.746-5.893-10.073-11.833-10.106h-0.003c-3.405 0.006-6.472 1.445-8.632 3.746l-0.006 0.006zM9.058 20.647l0.96 0.301c1.441 1.877 3.686 3.074 6.21 3.074 0.868 0 1.703-0.142 2.483-0.403l-0.055 0.016 0.96 0.297c-0.994 0.451-2.155 0.713-3.378 0.713-0.004 0-0.007 0-0.011 0h0.001c-3.011-0.005-5.654-1.58-7.152-3.951l-0.021-0.035zM11.525 8.775c1.318-0.907 2.949-1.449 4.706-1.449v0c3.545 0.016 6.576 2.196 7.843 5.286l0.021 0.057-0.787-0.224c-1.295-2.661-3.974-4.465-7.075-4.479h-0.002c-0.003 0-0.006 0-0.009 0-1.437 0-2.783 0.391-3.937 1.072l0.036-0.020zM16.135 6.289l-0.32 0.144c-0.025 0.011-0.054 0.018-0.084 0.018-0.084 0-0.156-0.050-0.187-0.122l-0.001-0.001c-0.011-0.025-0.017-0.053-0.017-0.083 0-0.008 0-0.016 0.001-0.023v0.001l0.035-0.349c0.001-0.006 0.001-0.014 0.001-0.021 0-0.053-0.020-0.102-0.052-0.139v0l-0.23-0.262c-0.037-0.038-0.060-0.090-0.060-0.147s0.023-0.109 0.060-0.147v0c0.026-0.023 0.059-0.040 0.095-0.048h0.001l0.339-0.074c0.058-0.013 0.106-0.049 0.134-0.098l0.001-0.001 0.173-0.32c0.036-0.062 0.102-0.103 0.178-0.103s0.142 0.041 0.177 0.102l0.001 0.001 0.173 0.32c0.029 0.050 0.076 0.086 0.133 0.099h0.001l0.336 0.074c0.093 0.024 0.16 0.106 0.16 0.205 0 0.053-0.019 0.101-0.051 0.138v0l-0.23 0.262c-0.032 0.037-0.052 0.086-0.052 0.139 0 0.007 0 0.015 0.001 0.022v-0.001l0.035 0.349c0.001 0.007 0.001 0.015 0.001 0.024 0 0.106-0.080 0.194-0.183 0.206h-0.001c-0.022-0.005-0.041-0.013-0.059-0.023l0.001 0.001-0.32-0.144c-0.024-0.011-0.053-0.018-0.083-0.018s-0.059 0.007-0.084 0.018l0.001-0.001zM21.304 7.783l-0.342-0.054c-0.099-0.018-0.174-0.104-0.174-0.208 0-0.050 0.017-0.096 0.046-0.132v0l0.218-0.272c0.029-0.036 0.047-0.082 0.047-0.133 0-0.011-0.001-0.021-0.002-0.032v0.001l-0.054-0.349c-0.002-0.011-0.003-0.023-0.003-0.035 0-0.102 0.074-0.187 0.171-0.205h0.001c0.016-0.004 0.034-0.007 0.053-0.007s0.037 0.003 0.054 0.007h-0.001l0.32 0.125c0.024 0.011 0.053 0.018 0.083 0.018s0.059-0.007 0.084-0.018l-0.001 0.001 0.32-0.16c0.027-0.014 0.058-0.022 0.091-0.022 0.080 0 0.15 0.046 0.183 0.113l0.001 0.001c0.014 0.028 0.023 0.060 0.023 0.095 0 0.004 0 0.007 0 0.011v0l-0.019 0.355c0 0.002 0 0.005 0 0.008 0 0.058 0.023 0.11 0.061 0.148v0l0.243 0.25c0.037 0.038 0.060 0.090 0.060 0.147s-0.023 0.109-0.060 0.147v0c-0.025 0.025-0.056 0.044-0.091 0.054h-0.001l-0.32 0.090c-0.056 0.016-0.102 0.054-0.127 0.104l-0.001 0.001-0.157 0.32c-0.034 0.068-0.103 0.113-0.183 0.113-0.072 0-0.135-0.037-0.172-0.093v-0.001l-0.211-0.301c-0.031-0.049-0.081-0.083-0.14-0.093h-0.001zM24.878 11.894l-0.259-0.23c-0.043-0.039-0.070-0.095-0.070-0.157 0-0.053 0.019-0.101 0.051-0.138v0c0.023-0.027 0.052-0.048 0.085-0.060h0.001l0.32-0.115c0.055-0.020 0.099-0.061 0.121-0.114l0.001-0.001 0.134-0.32c0.032-0.074 0.104-0.126 0.189-0.126 0.066 0 0.125 0.032 0.163 0.080v0.001l0.208 0.282c0.034 0.047 0.086 0.078 0.146 0.083h0.001l0.346 0.032c0.105 0.011 0.187 0.1 0.187 0.207 0 0.007 0 0.014-0.001 0.021v-0.001c-0.003 0.038-0.016 0.073-0.036 0.103v-0.001l-0.198 0.288c-0.023 0.033-0.037 0.075-0.037 0.12 0 0.017 0.002 0.033 0.006 0.048v-0.001l0.077 0.342c0.003 0.014 0.006 0.031 0.006 0.047 0 0.097-0.067 0.179-0.158 0.202h-0.001c-0.016 0.004-0.034 0.007-0.053 0.007s-0.037-0.003-0.054-0.007h0.001l-0.32-0.102c-0.019-0.006-0.040-0.010-0.062-0.010-0.038 0-0.074 0.011-0.105 0.030l0.001-0.001-0.297 0.182c-0.030 0.019-0.067 0.031-0.107 0.031-0.074 0-0.139-0.040-0.174-0.1l-0.001-0.001c-0.017-0.029-0.028-0.065-0.029-0.102v-0.352c-0.001-0.061-0.028-0.116-0.070-0.153v0zM19.004 25.292l0.266-0.227c0.035-0.030 0.081-0.049 0.132-0.049 0.063 0 0.119 0.029 0.156 0.074v0c0.023 0.027 0.038 0.061 0.045 0.098v0.001l0.061 0.346c0.010 0.059 0.044 0.109 0.092 0.14h0.001l0.294 0.186c0.062 0.038 0.102 0.104 0.102 0.181s-0.040 0.143-0.101 0.18l-0.001 0.001-0.32 0.166c-0.051 0.028-0.088 0.076-0.102 0.133v0.001l-0.083 0.342c-0.022 0.091-0.103 0.157-0.199 0.157-0.056 0-0.106-0.022-0.143-0.058l-0.25-0.243c-0.036-0.036-0.086-0.058-0.142-0.058-0.005 0-0.011 0-0.016 0.001h0.001l-0.346 0.026c-0.003 0-0.006 0-0.010 0-0.11 0-0.201-0.086-0.208-0.195v-0.001c0-0.005-0.001-0.011-0.001-0.016 0-0.032 0.007-0.063 0.020-0.091l-0.001 0.001 0.15-0.32c0.011-0.025 0.018-0.054 0.018-0.085s-0.007-0.060-0.018-0.086l0.001 0.001-0.128-0.32c-0.009-0.023-0.015-0.049-0.015-0.077 0-0.087 0.053-0.162 0.128-0.194l0.001-0.001c0.016-0.004 0.034-0.007 0.053-0.007s0.037 0.003 0.054 0.007h-0.001l0.342 0.048c0.008 0.001 0.018 0.002 0.027 0.002 0.051 0 0.097-0.019 0.133-0.050v0zM13.62 25.34l0.342-0.048c0.008-0.001 0.017-0.002 0.027-0.002 0.105 0 0.191 0.079 0.203 0.18v0.001c0.005 0.016 0.007 0.035 0.007 0.054s-0.003 0.038-0.007 0.056v-0.001l-0.128 0.32c-0.011 0.025-0.018 0.054-0.018 0.085s0.007 0.060 0.018 0.086l-0.001-0.001 0.15 0.32c0.013 0.026 0.020 0.057 0.020 0.090 0 0.082-0.047 0.153-0.115 0.188l-0.001 0.001c-0.027 0.014-0.059 0.023-0.093 0.023-0.004 0-0.009 0-0.013 0h0.001l-0.346-0.026c-0.005 0-0.010-0.001-0.015-0.001-0.055 0-0.105 0.022-0.142 0.058v0l-0.25 0.243c-0.037 0.038-0.088 0.062-0.146 0.062s-0.109-0.024-0.146-0.062v0c-0.024-0.026-0.042-0.058-0.051-0.095v-0.001l-0.086-0.349c-0.014-0.058-0.051-0.106-0.101-0.134l-0.001-0.001-0.32-0.166c-0.062-0.038-0.102-0.104-0.102-0.181s0.040-0.143 0.101-0.18l0.001-0.001 0.294-0.186c0.048-0.031 0.083-0.081 0.093-0.14v-0.001l0.061-0.346c0.020-0.094 0.102-0.163 0.2-0.163 0.045 0 0.086 0.014 0.12 0.039h-0.001l0.266 0.227c0.035 0.031 0.082 0.050 0.133 0.050 0.010 0 0.019-0.001 0.028-0.002h-0.001zM9.074 22.422l0.32 0.15c0.071 0.035 0.12 0.107 0.12 0.19 0 0.070-0.034 0.132-0.087 0.171h-0.001l-0.282 0.202c-0.047 0.033-0.079 0.084-0.086 0.143v0.001l-0.051 0.361c-0.014 0.101-0.099 0.177-0.203 0.177-0.044 0-0.084-0.014-0.118-0.037h0.001l-0.275-0.211c-0.034-0.026-0.077-0.042-0.124-0.042-0.014 0-0.028 0.001-0.041 0.004h0.001l-0.339 0.067c-0.011 0.002-0.025 0.004-0.038 0.004-0.101 0-0.185-0.073-0.202-0.169v-0.001c-0.005-0.016-0.007-0.035-0.007-0.054s0.003-0.038 0.007-0.056v0.001l0.112-0.32c0.011-0.025 0.018-0.054 0.018-0.085s-0.007-0.060-0.018-0.086l0.001 0.001-0.166-0.32c-0.016-0.029-0.026-0.064-0.026-0.102 0-0.078 0.042-0.146 0.105-0.183l0.001-0.001c0.029-0.016 0.063-0.026 0.1-0.026 0.001 0 0.002 0 0.003 0h0.345c0.001 0 0.001 0 0.002 0 0.060 0 0.114-0.026 0.152-0.067v0l0.237-0.256c0.037-0.038 0.088-0.062 0.146-0.062s0.109 0.024 0.146 0.062v0c0.026 0.025 0.046 0.056 0.057 0.091v0.002l0.083 0.32c0.017 0.057 0.056 0.102 0.108 0.127l0.001 0.001zM10.993 7.876l-0.189 0.294c-0.036 0.059-0.1 0.097-0.172 0.097-0.080 0-0.15-0.047-0.182-0.115l-0.001-0.001-0.157-0.32c-0.026-0.051-0.072-0.089-0.127-0.105h-0.001l-0.32-0.093c-0.090-0.024-0.154-0.105-0.154-0.201 0-0.058 0.024-0.11 0.062-0.148v0l0.243-0.25c0.038-0.038 0.061-0.091 0.061-0.148 0-0.003 0-0.006 0-0.009v0l-0.019-0.352c0-0.003 0-0.006 0-0.010 0-0.11 0.086-0.201 0.195-0.208h0.001c0.003 0 0.006 0 0.009 0 0.034 0 0.066 0.008 0.095 0.023l-0.001-0.001 0.32 0.16c0.024 0.011 0.053 0.018 0.083 0.018s0.059-0.007 0.084-0.018l-0.001 0.001 0.32-0.125c0.022-0.009 0.047-0.013 0.073-0.013 0.088 0 0.163 0.056 0.192 0.134v0.001c0.005 0.016 0.007 0.035 0.007 0.054s-0.003 0.038-0.007 0.056v-0.001l-0.054 0.349c-0.001 0.009-0.002 0.020-0.002 0.030 0 0.050 0.018 0.097 0.047 0.133l0.217 0.272c0.028 0.036 0.045 0.081 0.045 0.131 0 0.066-0.030 0.124-0.077 0.163v0c-0.026 0.022-0.059 0.038-0.095 0.045h-0.001l-0.342 0.054c-0.060 0.010-0.11 0.044-0.14 0.092l-0.001 0.001zM4.103 7.876c-0.098-0.031-0.212-0.049-0.329-0.049-0.509 0-0.939 0.339-1.077 0.803l-0.002 0.008-2.031 6.792c-0.032 0.101-0.050 0.216-0.050 0.336 0 0.511 0.333 0.944 0.794 1.095l0.008 0.002 26.473 8.238c0.098 0.031 0.21 0.048 0.327 0.048 0.509 0 0.939-0.338 1.079-0.802l0.002-0.008 2.038-6.776c0.032-0.101 0.050-0.217 0.050-0.337 0-0.51-0.332-0.943-0.791-1.094l-0.008-0.002-26.473-8.247zM4.282 7.277l26.483 8.244c0.723 0.237 1.236 0.905 1.236 1.694 0 0.186-0.028 0.364-0.081 0.533l0.003-0.013-2.038 6.785c-0.217 0.73-0.881 1.253-1.668 1.253-0.181 0-0.355-0.028-0.519-0.079l0.012 0.003-26.476-8.238c-0.721-0.238-1.233-0.906-1.233-1.693 0-0.186 0.029-0.365 0.081-0.534l-0.003 0.013 2.038-6.785c0.217-0.73 0.881-1.253 1.668-1.253 0.181 0 0.355 0.028 0.519 0.079l-0.012-0.003z"></path>
<path d="M6.473 11.696l0.384 1.337c0.264-0.355 0.501-0.759 0.691-1.188l0.016-0.040-1.619-0.499 0.224-0.72 2.387 0.739-0.23 0.701c-0.342 0.726-0.749 1.351-1.229 1.912l0.010-0.012 0.432 1.475-0.813 0.243-0.266-1.053c-0.426 0.376-0.914 0.697-1.444 0.944l-0.037 0.016q-0.054-0.39-0.173-0.867c0.557-0.244 1.033-0.567 1.441-0.961l-0.001 0.001-0.48-1.833zM8.524 11.884l1.6 0.489 0.294-0.96 0.787 0.243-0.294 0.96 0.505 0.157-0.224 0.726-0.505-0.157-0.886 2.812c-0.056 0.234-0.189 0.43-0.372 0.564l-0.003 0.002c-0.106 0.068-0.234 0.108-0.373 0.108-0.065 0-0.129-0.009-0.189-0.026l0.005 0.001q-0.32-0.074-1.177-0.342c0.040-0.257 0.065-0.558 0.070-0.864v-0.006q0.413 0.163 0.835 0.294c0.046 0.025 0.101 0.039 0.159 0.039 0.168 0 0.309-0.12 0.339-0.28v-0.002l0.787-2.559-1.6-0.489zM8.562 13.042q0.32 0.841 0.576 1.644l-0.787 0.227c-0.16-0.683-0.325-1.239-0.517-1.783l0.037 0.119z"></path>
<path d="M12.996 12.297l-0.486 1.574 1.254 0.39-0.234 0.758-1.26-0.39-0.605 1.951 1.411-0.038q-0.147 0.432-0.24 0.835c-0.077-0.002-0.168-0.003-0.259-0.003-0.662 0-1.311 0.057-1.943 0.166l0.067-0.010-0.195-0.771c0.174-0.079 0.301-0.234 0.342-0.421l0.001-0.004 1.328-4.29zM16.355 14.108l0.541 0.784q-1.209 0.601-2.435 1.088l-0.377 1.187q-0.109 0.346 0.173 0.435l0.384 0.118c0.033 0.014 0.072 0.023 0.113 0.023 0.081 0 0.154-0.033 0.207-0.087v0c0.183-0.306 0.349-0.661 0.48-1.033l0.013-0.042q0.384 0.301 0.733 0.534c-0.146 0.347-0.287 0.631-0.444 0.905l0.021-0.041c-0.094 0.185-0.217 0.341-0.366 0.469l-0.002 0.002c-0.117 0.076-0.259 0.121-0.412 0.122v0c-0.008 0-0.018 0-0.028 0-0.197 0-0.387-0.033-0.563-0.093l0.012 0.004-0.694-0.214q-0.793-0.246-0.531-1.088l1.382-4.463 0.813 0.253-0.64 2.031q0.806-0.387 1.622-0.893z"></path>
<path d="M21.528 19.93q-0.301 0.371-0.489 0.64l-2.879-0.918c-0.305-0.094-0.57-0.235-0.802-0.417l0.005 0.004c-0.181-0.149-0.326-0.335-0.425-0.547l-0.004-0.010-0.819 0.48-0.054-0.96 0.669-0.288 0.467-1.507-0.493-0.125 0.224-0.726 1.177 0.365-0.697 2.239q0.186 0.557 1.024 0.819l1.241 0.403q0.809 0.25 1.855 0.547zM18.208 13.826q0.297 0.72 0.454 1.244l-0.781 0.227q-0.186-0.704-0.387-1.28zM22.574 15.394l-0.195 0.64-1.34 0.278 1.148 0.355-0.745 2.367c-0.039 0.152-0.12 0.282-0.23 0.38l-0.001 0.001c-0.085 0.069-0.195 0.11-0.314 0.11-0.013 0-0.027-0.001-0.040-0.002h0.002c-0.315-0.049-0.596-0.123-0.865-0.224l0.030 0.010q0.026-0.262 0.032-0.611c0.173 0.067 0.32 0.115 0.429 0.15 0.030 0.017 0.066 0.026 0.103 0.026 0.112 0 0.205-0.085 0.216-0.195v-0.001l0.029-0.093-0.742-0.23-0.25 0.806-0.659-0.205 0.256-0.825-0.72-0.224-0.256 0.832-0.694-0.214 0.918-2.966 1.046 0.32-0.48-0.553 0.381-0.237-0.774-0.24 0.176-0.573zM18.863 17.441l0.72 0.224 0.102-0.32-0.72-0.224zM19.116 16.622l0.72 0.224 0.102-0.32-0.72-0.243zM21.448 15.662l-1.606-0.489q0.278 0.301 0.64 0.691zM20.242 17.883l0.742 0.23 0.102-0.32-0.742-0.23zM21.343 16.958l-0.742-0.23-0.102 0.32 0.742 0.23z"></path>
<path d="M27.181 21.613q-0.301 0.406-0.477 0.662l-3.122-1.017c-0.246-0.074-0.46-0.19-0.643-0.342l0.003 0.002c-0.156-0.133-0.276-0.303-0.346-0.497l-0.003-0.008q-0.608 0.32-0.873 0.47l-0.042-0.96 0.688-0.294 0.47-1.52-0.502-0.154 0.224-0.726 1.26 0.39-0.694 2.239c0.17 0.399 0.509 0.698 0.924 0.81l0.010 0.002 0.848 0.275q0.867 0.259 2.275 0.665zM23.912 15.573q0.227 0.704 0.368 1.248l-0.829 0.182q-0.131-0.64-0.282-1.251zM24.926 17.732q0.24 0.531 0.592 1.462-0.371 0.128-0.803 0.294-0.24-0.701-0.537-1.494zM26.916 16.539l0.797 0.246-0.282 0.909 0.797 0.246-0.205 0.665-0.797-0.246-0.566 1.833c-0.064 0.266-0.22 0.489-0.432 0.638l-0.003 0.002c-0.12 0.069-0.265 0.11-0.418 0.11-0.095 0-0.187-0.016-0.272-0.044l0.006 0.002q-0.393-0.109-1.081-0.32 0.035-0.368 0.042-0.851 0.64 0.246 0.883 0.32 0.406 0.125 0.547-0.32l0.502-1.619-2.191-0.675 0.205-0.665 2.188 0.678z"></path>
</svg>
