<!-- Generated by IcoMoon.io -->
<svg version="1.1" xmlns="http://www.w3.org/2000/svg" width="28" height="32" viewBox="0 0 28 32">
<title>suoding</title>
<path fill="#fff" d="M26.080 32h-24.222c-0.99 0-1.793-0.803-1.793-1.793v-16.134c0-0.99 0.803-1.793 1.793-1.793v0h3.048v-3.247c0-4.989 4.044-9.033 9.033-9.033s9.033 4.044 9.033 9.033v0 3.247h3.107c0.99 0 1.793 0.803 1.793 1.793v0 16.134c0 0.99-0.803 1.793-1.793 1.793v0zM20.801 9.033c0-3.79-3.072-6.862-6.862-6.862s-6.862 3.072-6.862 6.862v0 3.247h13.724v-3.247zM25.721 15.129c-0.008-0.398-0.332-0.717-0.731-0.717-0.002 0-0.004 0-0.006 0h-22.030c-0.002 0-0.004 0-0.006 0-0.399 0-0.723 0.319-0.731 0.716v14.004c0.008 0.398 0.332 0.717 0.731 0.717 0.002 0 0.004 0 0.006 0h22.030c0.002 0 0.004 0 0.006 0 0.399 0 0.723-0.319 0.731-0.716v-14.004zM13.969 25.148c-0.001 0-0.003 0-0.004 0-0.592 0-1.072-0.48-1.072-1.072 0-0.001 0-0.003 0-0.004v0-3.884c0-0.594 0.482-1.076 1.076-1.076s1.076 0.482 1.076 1.076v0 3.884c0 0.001 0 0.003 0 0.004 0 0.592-0.48 1.072-1.072 1.072-0.001 0-0.003 0-0.004 0v0z"></path>
</svg>
