<!-- Generated by IcoMoon.io -->
<svg version="1.1" xmlns="http://www.w3.org/2000/svg" width="36" height="32" viewBox="0 0 36 32">
<title>tupian</title>
<path fill="#36b4f3" d="M32.523 31.961h-29.247c-1.815-0.024-3.277-1.501-3.277-3.32 0-0.011 0-0.023 0-0.034v0.002-25.236c0-0.009 0-0.020 0-0.030 0-1.815 1.464-3.288 3.276-3.303h29.248c1.804 0.021 3.258 1.489 3.258 3.295 0 0.007 0 0.013 0 0.020v-0.001 25.254c0 0.011 0 0.024 0 0.036 0 1.811-1.452 3.283-3.255 3.316h-0.003zM33.409 3.373c0-0.001 0-0.003 0-0.004 0-0.492-0.395-0.892-0.884-0.9h-29.248c-0.001 0-0.003 0-0.004 0-0.492 0-0.892 0.394-0.9 0.884v18.607l5.273-4.67h0.019c0.397-0.305 0.86-0.549 1.362-0.707l0.032-0.009c0.284-0.101 0.611-0.16 0.952-0.16 0.853 0 1.62 0.366 2.153 0.948l0.002 0.002c1.318 1.356 2.693 2.919 3.070 3.352 0.734-0.697 6.667-6.384 7.138-6.836 0.769-0.779 1.818-1.279 2.984-1.337h0.011c1.147 0.019 2.168 0.539 2.858 1.351l0.005 0.005c1.736 2.167 3.444 4.595 5 7.126l0.179 0.313v-17.966zM33.427 25.332c-2.402-3.772-4.678-6.959-7.102-10.024l0.19 0.249c-0.266-0.345-0.669-0.573-1.125-0.602h-0.024c-0.509 0.050-0.96 0.27-1.3 0.603l-0.056 0.056c-1.864 1.808-6.836 6.554-7.156 6.874-0.392 0.466-0.975 0.76-1.627 0.76-0.686 0-1.296-0.325-1.684-0.83l-0.004-0.005c-0.151-0.169-1.657-1.902-3.051-3.333-0.121-0.148-0.303-0.241-0.507-0.241-0.075 0-0.146 0.012-0.213 0.036l0.005-0.001c-0.229 0.070-0.429 0.166-0.611 0.288l0.008-0.005-6.799 6.083v3.352c0 0.005 0 0.010 0 0.015 0 0.5 0.404 0.906 0.904 0.908h29.247c0.501-0.010 0.904-0.418 0.904-0.921 0-0.001 0-0.001 0-0.002v0-3.258zM9.529 13.411c-0.020 0-0.043 0.001-0.066 0.001-1.929 0-3.493-1.564-3.493-3.493s1.564-3.493 3.493-3.493c1.926 0 3.488 1.558 3.493 3.483v0.001c0 0.015 0 0.032 0 0.049 0 1.898-1.532 3.439-3.426 3.454h-0.001zM9.529 8.815c-0.008 0-0.018 0-0.028 0-0.598 0-1.083 0.485-1.083 1.083s0.485 1.083 1.083 1.083c0.598 0 1.083-0.485 1.083-1.083 0-0.003 0-0.006 0-0.010v0.001c0-0.002 0-0.005 0-0.008 0-0.585-0.471-1.059-1.054-1.066h-0.001z"></path>
</svg>
