<!-- Generated by IcoMoon.io -->
<svg version="1.1" xmlns="http://www.w3.org/2000/svg" width="32" height="32" viewBox="0 0 32 32">
<title>txt</title>
<path fill="#4d97ff" d="M28.8 14.4v-8c0-0.16-0.16-0.48-0.32-0.64 0 0-0.16-0.16-0.32-0.16-0.16-0.16-0.48-0.32-0.64-0.64-0.64-0.64-1.44-1.28-2.080-1.92 0 0-0.16-0.16-0.16-0.16-0.96-0.8-1.6-1.44-2.24-1.92-0.32-0.16-0.48-0.48-0.8-0.64-0.16 0-0.16-0.16-0.32-0.16 0-0.16-0.16-0.16-0.32-0.16 0 0 0 0-0.16 0h-18.24v14.4h-3.2v13.6h3.2c0 2.24 1.76 4 4 4h21.6v-4h3.2v-13.6h-3.2zM24.32 4c0 0.16 0 0.16 0 0 0.8 0.8 1.6 1.44 2.24 2.080 0 0.16 0.16 0.32 0.32 0.32h-4.48v-4c0.48 0.48 1.12 0.96 1.92 1.6v0zM4.8 1.6h16v4.64c0 0.48 0.16 0.96 0.48 1.28s0.8 0.48 1.28 0.48h4.64v6.4h-22.4v-12.8zM27.2 30.4h-20c-0.64 0-1.28-0.32-1.76-0.64-0.32-0.48-0.64-1.12-0.64-1.76h22.4v2.4z"></path>
<path fill="#fff" d="M10.72 25.44h-1.44v-6.88h-2.080v-1.44h5.6v1.44h-2.080v6.88zM19.040 25.44h-1.76l-1.28-2.88-1.44 2.88h-1.6l2.24-4.32-2.080-4h1.76l1.28 2.72 1.28-2.72h1.6l-2.080 4 2.080 4.32zM22.72 25.44h-1.44v-6.88h-2.080v-1.44h5.6v1.44h-2.080v6.88z"></path>
</svg>
