<!-- Generated by IcoMoon.io -->
<svg version="1.1" xmlns="http://www.w3.org/2000/svg" width="32" height="32" viewBox="0 0 32 32">
<title>untitled</title>
<path fill="#36b4f3" d="M29.333 32h-26.667c-1.471-0.005-2.662-1.196-2.667-2.666v-26.667c0-1.473 1.194-2.667 2.667-2.667v0h26.667c1.473 0 2.667 1.194 2.667 2.667v0 26.667c-0.005 1.471-1.196 2.662-2.666 2.667v0zM25.573 10.4v0c-0.262-0.248-0.616-0.4-1.006-0.4-0.397 0-0.757 0.158-1.021 0.413v0l-10.453 10.213-4.627-4.6c-0.264-0.26-0.627-0.42-1.027-0.42-0.387 0-0.738 0.15-1 0.394l0.001-0.001c-0.271 0.248-0.44 0.604-0.44 0.999 0 0.376 0.153 0.716 0.4 0.961v0l5.653 5.613c0.007 0 0.013 0.006 0.013 0.013v0 0.013c0.093 0.071 0.198 0.133 0.31 0.183l0.010 0.004c0.043 0.038 0.091 0.073 0.142 0.104l0.005 0.003c0.16 0.063 0.346 0.1 0.54 0.1s0.38-0.037 0.55-0.104l-0.010 0.004c0.061-0.029 0.114-0.060 0.163-0.095l-0.003 0.002c0.118-0.052 0.219-0.119 0.307-0.201l0.012-0.012h0.013l11.48-11.227c0.255-0.246 0.413-0.592 0.413-0.974 0-0.389-0.164-0.739-0.426-0.986l-0.001-0.001z"></path>
</svg>
