<!-- Generated by IcoMoon.io -->
<svg version="1.1" xmlns="http://www.w3.org/2000/svg" width="32" height="32" viewBox="0 0 32 32">
<title>user</title>
<path d="M16 32c-8.837 0-16-7.163-16-16s7.163-16 16-16c8.837 0 16 7.163 16 16v0c0 8.837-7.163 16-16 16v0zM16 5.333v0c-0.061-0.002-0.132-0.003-0.204-0.003-3.264 0-5.91 2.646-5.91 5.91s2.646 5.91 5.91 5.91c3.264 0 5.91-2.646 5.91-5.91 0 0 0-0.001 0-0.001v0c0-0.027 0.001-0.059 0.001-0.092 0-3.174-2.542-5.754-5.702-5.814h-0.006zM20.395 17.010c-1.177 1.002-2.714 1.612-4.395 1.612s-3.218-0.61-4.404-1.62l0.010 0.008c-2.369 1.628-3.951 4.254-4.137 7.258l-0.001 0.027c1.179 0.151 2.543 0.238 3.927 0.238 0.131 0 0.261-0.001 0.392-0.002h8.449c0.108 0.001 0.236 0.002 0.364 0.002 1.387 0 2.753-0.086 4.094-0.254l-0.16 0.016c-0.183-3.032-1.766-5.66-4.106-7.263l-0.032-0.021z"></path>
</svg>
