<!-- Generated by IcoMoon.io -->
<svg version="1.1" xmlns="http://www.w3.org/2000/svg" width="32" height="32" viewBox="0 0 32 32">
<title>wancheng</title>
<path d="M16 32c-8.837 0-16-7.163-16-16s7.163-16 16-16c8.837 0 16 7.163 16 16v0c0 8.837-7.163 16-16 16v0 0zM16 1.77c-7.854 0-14.22 6.367-14.22 14.22s6.367 14.22 14.22 14.22c7.854 0 14.22-6.367 14.22-14.22v0c-0.002-7.853-6.367-14.218-14.22-14.22v0zM14.94 20.95c-0.025 0.050-0.052 0.092-0.082 0.132l0.002-0.002c-0.166 0.155-0.39 0.25-0.636 0.25-0.001 0-0.003 0-0.004 0v0c-0.001 0-0.002 0-0.004 0-0.243 0-0.464-0.095-0.627-0.25v0c-0.031-0.038-0.061-0.081-0.087-0.125l-0.003-0.005-4.36-4.36c-0.145-0.155-0.234-0.365-0.234-0.595 0-0.24 0.097-0.458 0.254-0.615v0c0.156-0.156 0.372-0.253 0.61-0.253 0.233 0 0.445 0.092 0.6 0.243l3.85 3.85 8.3-8.3c0.159-0.166 0.382-0.27 0.63-0.27 0.48 0 0.87 0.389 0.87 0.87 0 0.248-0.104 0.471-0.27 0.63v0z"></path>
</svg>
