<!-- Generated by IcoMoon.io -->
<svg version="1.1" xmlns="http://www.w3.org/2000/svg" width="32" height="32" viewBox="0 0 32 32">
<title>weijiance</title>
<path d="M18.409 28.922l1.039-8.595c-0.289-0.003-0.536-0.182-0.638-0.435l-0.002-0.005-4.977-14.011-3.218 12.152c-0.079 0.279-0.323 0.482-0.618 0.5h-0.002c-0.017 0.001-0.036 0.002-0.056 0.002-0.276 0-0.517-0.153-0.642-0.378l-0.002-0.004-2.438-6.316h-6.136c-0.397 0-0.72-0.322-0.72-0.72s0.322-0.72 0.72-0.72h6.576c0.002 0 0.005 0 0.008 0 0.272 0 0.509 0.152 0.63 0.376l0.002 0.004 1.839 5.137 3.278-12.312c0.080-0.289 0.333-0.502 0.638-0.52h0.002c0.011-0.001 0.024-0.001 0.038-0.001 0.296 0 0.551 0.18 0.66 0.436l0.002 0.005 4.977 14.071 2.638-10.593c0.066-0.228 0.248-0.403 0.475-0.459l0.005-0.001c0.058-0.018 0.124-0.028 0.192-0.028 0.172 0 0.329 0.063 0.448 0.168l-0.001-0.001 3.658 3.598h4.497c0.399 0.008 0.72 0.333 0.72 0.733 0 0.002 0 0.004 0 0.006v0c0 0.001 0 0.001 0 0.002 0 0.396-0.321 0.718-0.718 0.718-0.001 0-0.001 0-0.002 0h-4.757c-0.005 0-0.011 0-0.017 0-0.172 0-0.328-0.069-0.443-0.18v0l-3.038-3.078-2.898 11.353c-0.081 0.285-0.335 0.491-0.639 0.5h-0.041z"></path>
</svg>
