<!-- Generated by IcoMoon.io -->
<svg version="1.1" xmlns="http://www.w3.org/2000/svg" width="32" height="32" viewBox="0 0 32 32">
<title>weiqiandao</title>
<path fill="#ffe0c1" d="M32 16c0 8.837-7.163 16-16 16s-16-7.163-16-16c0-8.837 7.163-16 16-16s16 7.163 16 16z"></path>
<path fill="#f93" d="M15.973 9.893c0 0-0.001 0-0.001 0-0.839 0-1.519 0.68-1.519 1.519 0 0 0 0.001 0 0.001v0 4.573c0 0.839 0.681 1.52 1.52 1.52s1.52-0.681 1.52-1.52v0-4.573c0 0 0-0.001 0-0.001 0-0.839-0.68-1.519-1.519-1.519 0 0-0.001 0-0.001 0v0zM15.973 5.32c-5.891 0-10.667 4.776-10.667 10.667s4.776 10.667 10.667 10.667c5.891 0 10.667-4.776 10.667-10.667v0c0-5.891-4.776-10.667-10.667-10.667v0 0zM15.973 25.133c-0.004 0-0.009 0-0.013 0-5.052 0-9.147-4.095-9.147-9.147s4.095-9.147 9.147-9.147c5.052 0 9.147 4.095 9.147 9.147v0c-0.014 5.041-4.093 9.126-9.131 9.147h-0.002zM15.973 19.027c-0.84 0.011-1.516 0.693-1.52 1.533v0c0 0.839 0.681 1.52 1.52 1.52s1.52-0.681 1.52-1.52v0c-0.004-0.841-0.68-1.522-1.519-1.533h-0.001z"></path>
</svg>
