<!-- Generated by IcoMoon.io -->
<svg version="1.1" xmlns="http://www.w3.org/2000/svg" width="30" height="32" viewBox="0 0 30 32">
<title>word</title>
<path fill="#36b4f3" d="M28.208 31.968h-20.656c-0.977-0.016-1.8-0.655-2.091-1.536l-0.005-0.016c-0.074-0.263-0.117-0.565-0.117-0.876 0-0.063 0.002-0.126 0.005-0.188v0.009-3.28h-5.312v-17.040h5.312v-6.784c0.003-0.844 0.461-1.581 1.141-1.978l0.011-0.006c0.374-0.177 0.813-0.281 1.276-0.281 0.080 0 0.16 0.003 0.239 0.009l-0.010-0.001h14.352c0.031-0.004 0.068-0.006 0.105-0.006 0.094 0 0.184 0.014 0.27 0.040l-0.007-0.002c0.429 0.148 0.788 0.305 1.133 0.486l-0.045-0.022c1.794 0.881 3.306 2.071 4.527 3.516l0.017 0.020c0.833 0.989 1.493 2.155 1.915 3.43l0.021 0.074c0.091 0.244 0.154 0.527 0.175 0.822l0.001 0.010v21.344c-0.005 1.244-1.012 2.251-2.256 2.256v0zM28.48 30.288c0.080-0.032 0.128-0.080-0.016 0h0.016zM6.048 19.36c-0.067 0.277-0.119 0.605-0.143 0.94l-0.001 0.020h-0.048c-0.021-0.346-0.061-0.664-0.12-0.976l0.008 0.048-1.2-5.584h-2.464l2.352 8.416h2.496l1.36-5.088c0.083-0.296 0.14-0.641 0.159-0.995l0.001-0.013h0.064c0.002 0.376 0.049 0.74 0.135 1.088l-0.007-0.032 1.264 5.056h2.544l2.384-8.432h-2.24l-1.152 5.6c-0.055 0.26-0.1 0.577-0.126 0.9l-0.002 0.028h-0.064c-0.019-0.343-0.059-0.661-0.119-0.973l0.007 0.045-1.328-5.6h-2.272zM28.512 7.36l-0.016-0.016c0.001 0.013 0.007 0.024 0.016 0.032v0c-0.017-0.031-0.033-0.068-0.046-0.107l-0.002-0.005c-0.032-0.064-0.064-0.144-0.096-0.208-0.057-0.148-0.121-0.274-0.197-0.393l0.005 0.009c-0.128-0.256-0.288-0.512-0.448-0.768-0.096-0.144-0.176-0.272-0.272-0.4-0.016-0.032-0.048-0.064-0.064-0.096v0c-0.023-0.031-0.049-0.057-0.079-0.079l-0.001-0.001c-0.351-0.453-0.718-0.855-1.114-1.227l-0.006-0.005c-0.208-0.192-0.4-0.352-0.592-0.528-0.060-0.041-0.112-0.083-0.161-0.129l0.001 0.001c-0.016 0-0.016 0-0.016-0.016-0.096-0.064-0.192-0.144-0.288-0.208-0.527-0.39-1.124-0.762-1.75-1.085l-0.074-0.035v5.392h5.232c-0.003-0.047-0.015-0.091-0.033-0.13l0.001 0.002zM28.864 29.696v-20.56h-7.152v-7.504h-14.24c-0.031 0.001-0.059 0.013-0.080 0.032v0c-0.024 0.004-0.046 0.009-0.067 0.017l0.003-0.001c-0.032 0.016-0.048 0.032-0.080 0.048 0.016-0.016-0.016 0-0.064 0.032l-0.016 0.016c0 0.016-0.016 0.016-0.032 0.016l0.032-0.016-0.048 0.048c0.016-0.016-0.016 0-0.032 0.032s0 0.016-0.016 0.016v0.016c-0.026 0.027-0.047 0.059-0.063 0.094l-0.001 0.002v0.016c-0.032 0.048-0.032 0.096-0.016 0.064-0.016 0.032-0.016 0.064-0.032 0.096v6.88h9.92v17.040h-9.936v3.712c0.011 0.024 0.017 0.051 0.017 0.080 0 0.005 0 0.011-0.001 0.016v-0.065c0.003 0.047 0.015 0.091 0.033 0.13l-0.001-0.002c0.019 0.023 0.035 0.049 0.047 0.078l0.001 0.002c-0.032-0.048-0.016 0 0.016 0.032l0.032 0.032c0.008 0.008 0.014 0.019 0.016 0.032v0l-0.016-0.032 0.096 0.096c0.032 0.023 0.069 0.044 0.108 0.062l0.004 0.002c0 0.009 0.007 0.016 0.016 0.016v0c0.048 0.016 0.096 0.016 0.064 0.016 0.032 0 0.048 0.016 0.080 0.016h-0.064c0.031 0.004 0.058 0.010 0.085 0.017l-0.005-0.001h0.016c0.032 0.016 0.080 0.016 0.048 0h20.784c-0.001 0-0.003 0-0.004 0-0.012 0-0.022 0.006-0.028 0.016v0c0.016 0 0.016-0.016 0.032-0.016h0.016c0.001 0 0.002 0 0.003 0 0.028 0 0.054-0.006 0.078-0.017h-0.001c0.011-0.010 0.025-0.016 0.041-0.016 0.003 0 0.005 0 0.007 0v0l0.144-0.096c-0.096 0.064-0.032 0.064 0.016 0l0.016-0.016c0.023-0.007 0.041-0.025 0.048-0.047v0l0.064-0.064c0.021-0.050 0.042-0.092 0.066-0.132l0.014-0.028c0.010-0.030 0.016-0.065 0.016-0.101 0-0.004 0-0.008 0-0.012v0.001c0-0.032 0.016-0.048 0.016-0.080v-0.016zM18.96 21.344h7.376v2.128h-7.376v-2.128zM18.96 17.088h7.376v2.128h-7.376v-2.128zM18.96 12.832h7.376v2.128h-7.376v-2.128z"></path>
</svg>
