<!-- Generated by IcoMoon.io -->
<svg version="1.1" xmlns="http://www.w3.org/2000/svg" width="32" height="32" viewBox="0 0 32 32">
<title>x</title>
<path fill="#fff" d="M18.954 15.96l12.565-12.591c0.36-0.359 0.582-0.855 0.582-1.403s-0.222-1.044-0.582-1.403l-0.080-0.080c-0.359-0.359-0.855-0.582-1.404-0.582s-1.044 0.222-1.404 0.582l-12.565 12.591-12.591-12.591c-0.359-0.359-0.855-0.582-1.404-0.582s-1.044 0.222-1.403 0.582l-0.080 0.080c-0.363 0.362-0.588 0.863-0.588 1.417v0c0 0.005 0 0.011 0 0.018 0 0.54 0.226 1.027 0.587 1.372l0.001 0.001 12.565 12.591-12.565 12.591c-0.359 0.359-0.582 0.855-0.582 1.404s0.222 1.044 0.582 1.404l0.080 0.080c0.359 0.36 0.855 0.582 1.403 0.582s1.044-0.222 1.403-0.582l12.592-12.591 12.565 12.591c0.359 0.36 0.855 0.582 1.404 0.582s1.044-0.222 1.404-0.582l0.080-0.080c0.36-0.359 0.582-0.855 0.582-1.404s-0.222-1.044-0.582-1.404v0z"></path>
</svg>
