<!-- Generated by IcoMoon.io -->
<svg version="1.1" xmlns="http://www.w3.org/2000/svg" width="53" height="32" viewBox="0 0 53 32">
<title>xialaxk</title>
<path fill="#c7c7c7" d="M52.279 5.733l-23.566 25.215c-0.503 0.619-1.265 1.011-2.118 1.011-0.004 0-0.007 0-0.011 0h0.001c-0.854-0.009-1.615-0.399-2.124-1.006l-0.004-0.004-23.566-25.215c-0.554-0.632-0.892-1.465-0.892-2.377 0-0.425 0.074-0.833 0.209-1.212l-0.008 0.025c0.489-1.17 1.57-2.002 2.859-2.127l0.014-0.001s22.502 26.545 23.459 26.545c0.798 0 23.566-26.545 23.566-26.545 1.31 0.104 2.401 0.945 2.865 2.105l0.008 0.023c0.138 0.361 0.217 0.778 0.217 1.213 0 0.907-0.345 1.733-0.911 2.354l0.002-0.003z"></path>
</svg>
