<!-- Generated by IcoMoon.io -->
<svg version="1.1" xmlns="http://www.w3.org/2000/svg" width="32" height="32" viewBox="0 0 32 32">
<title>xiala</title>
<path d="M31.117 11.122l-13.078 13.997c-0.512 0.544-1.236 0.882-2.040 0.882s-1.528-0.338-2.038-0.881l-13.079-13.999c-0.545-0.533-0.882-1.275-0.882-2.096 0-0.385 0.074-0.754 0.21-1.091l-0.007 0.020c0.453-1.087 1.466-1.857 2.668-1.955l0.011-0.001h26.195c1.228 0.080 2.258 0.85 2.712 1.923l0.008 0.021c0.129 0.319 0.203 0.688 0.203 1.076 0 0.824-0.338 1.569-0.883 2.103v0z"></path>
</svg>
