<!-- Generated by IcoMoon.io -->
<svg version="1.1" xmlns="http://www.w3.org/2000/svg" width="32" height="32" viewBox="0 0 32 32">
<title>xinxichaxun</title>
<path fill="#fff" d="M15.318 32h-13.043c-0.003 0-0.007 0-0.010 0-1.251 0-2.265-1.014-2.265-2.265 0-0.004 0-0.007 0-0.011v0.001-27.45c0-0.009 0-0.020 0-0.031 0-1.24 1.005-2.245 2.245-2.245 0.011 0 0.021 0 0.032 0h27.448c0.003 0 0.007 0 0.010 0 1.251 0 2.265 1.014 2.265 2.265 0 0.004 0 0.007 0 0.011v-0.001 12.655c0 0.47-0.381 0.851-0.851 0.851s-0.851-0.381-0.851-0.851v0-12.655c-0.009-0.313-0.26-0.564-0.572-0.573h-27.451c-0.31 0.016-0.557 0.263-0.573 0.571v27.451c0.009 0.313 0.26 0.564 0.572 0.573h13.044c0.47 0 0.851 0.381 0.851 0.851s-0.381 0.851-0.851 0.851v0 0zM23.861 23.558l4.752 4.769c0.195 0.194 0.316 0.462 0.316 0.758s-0.121 0.565-0.316 0.758v0c-0.187 0.196-0.45 0.318-0.741 0.32v0c-0.297-0.002-0.565-0.124-0.758-0.32v0l-4.853-4.887c-1.689 1.222-3.801 1.955-6.085 1.955-0.011 0-0.023 0-0.034 0h0.002c-0.017 0-0.037 0-0.057 0-5.904 0-10.69-4.786-10.69-10.69s4.786-10.69 10.69-10.69c5.904 0 10.69 4.786 10.69 10.69 0 2.843-1.11 5.427-2.92 7.342l0.005-0.005zM7.651 16.228c0.038 4.661 3.826 8.425 8.493 8.425 4.69 0 8.493-3.802 8.493-8.493s-3.802-8.493-8.493-8.493v0c-4.694 0.018-8.493 3.828-8.493 8.525 0 0.012 0 0.025 0 0.037v-0.002z"></path>
</svg>
