<!-- Generated by IcoMoon.io -->
<svg version="1.1" xmlns="http://www.w3.org/2000/svg" width="33" height="32" viewBox="0 0 33 32">
<title>xitonglogo</title>
<path fill="#fff" d="M20.662 19.288v0.558c0 0.003 0 0.007 0 0.011 0 0.362-0.289 0.656-0.648 0.666h-6.734c-0.361-0.009-0.649-0.304-0.649-0.666 0-0.004 0-0.008 0-0.011v0.001-0.558h-12.63v9.946c0 0.019-0.001 0.041-0.001 0.063 0 1.469 1.171 2.664 2.631 2.703h27.957c1.461-0.033 2.632-1.224 2.632-2.69 0-0.026 0-0.053-0.001-0.079v0.004-9.946h-12.556zM12.631 17.234v-0.558c0-0.002 0-0.004 0-0.006 0-0.363 0.288-0.658 0.648-0.67h6.734c0.361 0.009 0.649 0.304 0.649 0.666 0 0.004 0 0.008 0 0.011v-0.001 0.558h12.556v-9.673c0.001-0.027 0.002-0.059 0.002-0.091 0-1.455-1.162-2.639-2.609-2.674h-7.718v-2.575c0.001-0.020 0.001-0.043 0.001-0.067 0-1.119-0.85-2.040-1.939-2.152l-0.009-0.001h-8.626c-1.098 0.112-1.948 1.032-1.948 2.151 0 0.024 0 0.048 0.001 0.072v-0.003 2.575h-7.733c-1.464 0.038-2.635 1.234-2.635 2.703 0 0.022 0 0.044 0.001 0.066v-0.003 9.673h12.63zM12.704 2.779c0-0.004 0-0.009 0-0.014 0-0.267 0.216-0.484 0.483-0.484h6.862c0.267 0.005 0.482 0.222 0.482 0.49 0 0.003 0 0.006 0 0.009v0 1.994h-7.826v-1.994z"></path>
</svg>
