<!-- Generated by IcoMoon.io -->
<svg version="1.1" xmlns="http://www.w3.org/2000/svg" width="32" height="32" viewBox="0 0 32 32">
<title>xushangbao</title>
<path fill="#ffe0c1" d="M32 16c0 8.837-7.163 16-16 16s-16-7.163-16-16c0-8.837 7.163-16 16-16s16 7.163 16 16z"></path>
<path fill="#f93" d="M16.32 15.853v-10.613c0.032 0 0.070-0.001 0.107-0.001 5.599 0 10.145 4.505 10.213 10.088v0.006c0 0.173 0.013 0.333 0.013 0.52h-10.333zM15.907 25.293c0.023 0 0.050 0 0.077 0 4.51 0 8.257-3.264 9.008-7.559l0.008-0.055h1.307c-0.59 5.284-5.032 9.355-10.424 9.355-5.791 0-10.485-4.694-10.485-10.485 0-5.367 4.033-9.793 9.233-10.411l0.050-0.005v1.28c-4.52 0.504-8.002 4.303-8.002 8.916 0 4.953 4.015 8.968 8.968 8.968 0.092 0 0.183-0.001 0.274-0.004h-0.013z"></path>
</svg>
