<!-- Generated by IcoMoon.io -->
<svg version="1.1" xmlns="http://www.w3.org/2000/svg" width="32" height="32" viewBox="0 0 32 32">
<title>ygd</title>
<path d="M31.987 21.045c0.008-0.017 0.013-0.037 0.013-0.059s-0.005-0.042-0.014-0.059v0.001c0.008-0.018 0.013-0.040 0.013-0.062s-0.005-0.044-0.014-0.063v0.001l-5.141-16.367c-0.268-1.030-1.19-1.779-2.287-1.779-0.003 0-0.006 0-0.009 0h-17.114c-1.11 0.002-2.041 0.77-2.292 1.804l-0.003 0.016-5.106 16.296c-0.008 0.018-0.013 0.040-0.013 0.062s0.005 0.044 0.014 0.063v-0.001c-0.019 0.042-0.032 0.090-0.035 0.141v5.932c0 0 0 0 0 0 0 1.308 1.059 2.368 2.366 2.371h27.255c0.002 0 0.005 0 0.007 0 0.651 0 1.241-0.266 1.665-0.695v0c0.429-0.429 0.694-1.021 0.694-1.675 0 0 0 0 0 0v0-5.931zM7.436 5.034h17.114l4.768 14.826h-5.017c-0.001 0-0.002 0-0.004 0-0.655 0-1.186 0.53-1.188 1.185v2.966h-14.214v-2.966c-0.002-0.655-0.533-1.185-1.188-1.185-0.001 0-0.003 0-0.004 0h-5.034zM14.125 20.435l-5.23-4.921 2.242-2.135 2.989 2.782 6.76-6.404 2.242 2.135z"></path>
</svg>
