<!-- Generated by IcoMoon.io -->
<svg version="1.1" xmlns="http://www.w3.org/2000/svg" width="32" height="32" viewBox="0 0 32 32">
<title>yichang</title>
<path d="M27.312 4.629c-2.899-2.861-6.884-4.629-11.281-4.629s-8.382 1.767-11.283 4.63l0.002-0.002c-2.933 2.9-4.749 6.923-4.749 11.371s1.816 8.472 4.748 11.37l0.002 0.002c2.899 2.861 6.884 4.629 11.281 4.629s8.382-1.767 11.283-4.63l-0.002 0.002c2.933-2.9 4.749-6.923 4.749-11.371s-1.816-8.472-4.748-11.37l-0.002-0.002zM13.987 6.472c0.002-0.576 0.231-1.099 0.602-1.483l-0.001 0.001c0.363-0.383 0.875-0.621 1.443-0.621v0c1.142 0.010 2.064 0.938 2.064 2.082 0 0.008 0 0.016 0 0.023v-0.001 9.999c0 1.134-0.92 2.054-2.054 2.054s-2.054-0.92-2.054-2.054v0-9.999zM16.031 26.009v0c-1.036-0.085-1.845-0.947-1.845-1.997 0-0.030 0.001-0.061 0.002-0.091v0.004c0.022-1.067 0.893-1.924 1.964-1.924 1.085 0 1.964 0.879 1.964 1.964 0 0.014 0 0.028 0 0.042v-0.002c-0.042 1.115-0.957 2.004-2.078 2.004-0.002 0-0.004 0-0.006 0v0z"></path>
</svg>
