<!-- Generated by IcoMoon.io -->
<svg version="1.1" xmlns="http://www.w3.org/2000/svg" width="32" height="32" viewBox="0 0 32 32">
<title>yipai</title>
<path fill="#c7f1ea" d="M32 16c0 8.837-7.163 16-16 16s-16-7.163-16-16c0-8.837 7.163-16 16-16s16 7.163 16 16z"></path>
<path fill="#44d2b9" d="M21.533 24.893c-1.492 0.844-3.277 1.341-5.177 1.341-3.974 0-7.44-2.173-9.275-5.395l-0.028-0.053c-0.85-1.489-1.351-3.272-1.351-5.172 0-3.962 2.179-7.416 5.404-9.227l0.053-0.027c1.493-0.839 3.277-1.333 5.176-1.333 3.195 0 6.063 1.398 8.027 3.615l0.010 0.011c0.11 0.137 0.176 0.313 0.176 0.504 0 0.246-0.109 0.466-0.281 0.615l-0.001 0.001c-0.145 0.128-0.336 0.206-0.545 0.206-0.23 0-0.438-0.094-0.588-0.245v0c-1.665-1.892-4.091-3.079-6.794-3.079-1.607 0-3.117 0.42-4.425 1.156l0.045-0.023c-2.774 1.561-4.618 4.487-4.618 7.843 0 4.093 2.741 7.545 6.488 8.622l0.063 0.016c0.735 0.216 1.58 0.341 2.453 0.341 4.97 0 8.999-4.029 8.999-8.999 0-0.945-0.146-1.857-0.416-2.713l0.017 0.064c-0.023-0.072-0.036-0.154-0.036-0.24 0-0.451 0.365-0.816 0.816-0.816 0.365 0 0.674 0.24 0.778 0.57l0.002 0.006c0.3 0.938 0.473 2.016 0.473 3.136 0 3.966-2.173 7.425-5.394 9.25l-0.053 0.027zM20.52 11.813c0.165-0.161 0.391-0.26 0.64-0.26s0.475 0.099 0.64 0.26v0c0.172 0.157 0.28 0.383 0.28 0.633s-0.108 0.476-0.279 0.633l-0.001 0.001-6.453 6.373c-0.193 0.16-0.444 0.257-0.717 0.257-0.034 0-0.068-0.002-0.101-0.004h0.004c-0.027 0.002-0.058 0.004-0.090 0.004-0.275 0-0.528-0.097-0.725-0.259l0.002 0.002-2.84-2.8c-0.164-0.155-0.267-0.373-0.267-0.616 0-0.004 0-0.007 0-0.011v0.001c0 0 0-0.001 0-0.002 0-0.25 0.102-0.476 0.267-0.638v0c0.165-0.161 0.391-0.26 0.64-0.26s0.475 0.099 0.64 0.26v0l2.373 2.333 5.987-5.907z"></path>
</svg>
