<!-- Generated by IcoMoon.io -->
<svg version="1.1" xmlns="http://www.w3.org/2000/svg" width="30" height="32" viewBox="0 0 30 32">
<title>zhizheng</title>
<path fill="#fff" d="M1.459 11.238h27.299c0.809-0.012 1.461-0.671 1.461-1.482 0-0.004 0-0.008 0-0.011v0.001-8.227c0-0.003 0-0.007 0-0.011 0-0.811-0.651-1.47-1.46-1.482h-27.3c-0.808 0.012-1.459 0.67-1.459 1.48 0 0.004 0 0.009 0 0.013v-0.001 8.227c0 0.004 0 0.008 0 0.013 0 0.81 0.651 1.468 1.458 1.48h0.001zM1.272 1.518c0-0.001 0-0.002 0-0.004 0-0.104 0.083-0.189 0.186-0.192h27.3c0.104 0.002 0.188 0.087 0.188 0.192 0 0.001 0 0.003 0 0.004v0 8.227c0 0.001 0 0.002 0 0.004 0 0.105-0.084 0.19-0.188 0.192h-27.3c-0.104-0.003-0.187-0.088-0.187-0.192 0-0.001 0-0.003 0-0.004v0-8.227zM10.235 13.725h-8.489c-0.827 0.014-1.493 0.688-1.493 1.517 0 0.004 0 0.008 0 0.011v-0.001 15.211c0 0.003 0 0.006 0 0.009 0 0.826 0.667 1.496 1.492 1.502h8.489c0.826-0.004 1.494-0.675 1.494-1.502 0-0.003 0-0.006 0-0.009v0-15.211c0-0.003 0-0.007 0-0.011 0-0.83-0.666-1.504-1.493-1.517h-0.001zM10.424 30.464c0 0 0 0 0 0 0 0.098-0.080 0.178-0.178 0.178-0.004 0-0.007 0-0.011 0h-8.488c-0.003 0-0.006 0-0.009 0-0.098 0-0.178-0.080-0.178-0.178 0 0 0 0 0 0v0-15.211c0-0.001 0-0.002 0-0.004 0-0.104 0.083-0.189 0.186-0.192h8.489c0.104 0.002 0.188 0.087 0.188 0.192 0 0.001 0 0.003 0 0.004v0 15.211zM14.333 16.124h15.245c0.234-0.002 0.424-0.192 0.425-0.426v-0.942c0-0.003 0-0.006 0-0.009 0-0.231-0.187-0.418-0.418-0.418-0.003 0-0.005 0-0.008 0h-15.244c-0.002 0-0.005 0-0.007 0-0.23 0-0.416 0.186-0.416 0.416 0 0.004 0 0.008 0 0.011v-0.001 0.942c0 0 0 0 0 0 0 0.234 0.189 0.424 0.423 0.426v0zM30.002 20.638v-0.942c0-0.004 0-0.008 0-0.012 0-0.236-0.189-0.428-0.425-0.432h-15.245c-0.235 0.005-0.423 0.196-0.423 0.432 0 0.004 0 0.009 0 0.013v-0.001 0.942c0 0 0 0 0 0 0 0.234 0.189 0.424 0.423 0.426h15.245c0.234-0.002 0.424-0.192 0.425-0.426v0zM29.577 24.672h-15.245c-0.234 0.002-0.423 0.192-0.423 0.426 0 0 0 0 0 0v0 0.942c0 0 0 0 0 0 0 0.234 0.189 0.424 0.423 0.426h15.245c0.234-0.002 0.424-0.192 0.425-0.426v-0.942c-0.001-0.235-0.19-0.424-0.424-0.426v0zM29.577 29.647h-15.245c-0.234 0.002-0.423 0.192-0.423 0.426 0 0 0 0 0 0v0 0.942c0 0 0 0 0 0 0 0.234 0.189 0.424 0.423 0.426h15.245c0.234-0.002 0.424-0.192 0.425-0.426v-0.942c-0.001-0.235-0.19-0.424-0.424-0.426v0z"></path>
</svg>
