<svg xmlns="http://www.w3.org/2000/svg" width="18" height="16" viewBox="0 0 18 16">
  <metadata><?xpacket begin="﻿" id="W5M0MpCehiHzreSzNTczkc9d"?>
<x:xmpmeta xmlns:x="adobe:ns:meta/" x:xmptk="Adobe XMP Core 5.6-c142 79.160924, 2017/07/13-01:06:39        ">
   <rdf:RDF xmlns:rdf="http://www.w3.org/1999/02/22-rdf-syntax-ns#">
      <rdf:Description rdf:about=""/>
   </rdf:RDF>
</x:xmpmeta>
                                                                                                    
                                                                                                    
                                                                                                    
                                                                                                    
                                                                                                    
                                                                                                    
                                                                                                    
                                                                                                    
                                                                                                    
                                                                                                    
                                                                                                    
                                                                                                    
                                                                                                    
                                                                                                    
                                                                                                    
                                                                                                    
                                                                                                    
                                                                                                    
                                                                                                    
                                                                                                    
                           
<?xpacket end="w"?></metadata>
<defs>
    <style>
      .cls-1 {
        fill: #f5f5f6;
        fill-rule: evenodd;
      }
    </style>
  </defs>
  <path id="上传" class="cls-1" d="M3122.52,2790.67h-13.04a2.467,2.467,0,0,1-2.48-2.45v-4.13a0.523,0.523,0,0,1,.54-0.53,0.529,0.529,0,0,1,.54.53v4.13a1.394,1.394,0,0,0,1.4,1.38h13.02a1.394,1.394,0,0,0,1.4-1.38v-4.13a0.529,0.529,0,0,1,.54-0.53,0.553,0.553,0,0,1,.56.53v4.13A2.473,2.473,0,0,1,3122.52,2790.67Zm-2.75-11.2a0.585,0.585,0,0,1-.38-0.16l-2.86-2.83v8.86a0.54,0.54,0,0,1-1.08,0v-8.86l-2.86,2.83a0.546,0.546,0,0,1-.38.16,0.708,0.708,0,0,1-.41-0.16,0.509,0.509,0,0,1,0-.75l3.78-3.73a0.15,0.15,0,0,1,.09-0.07,0.037,0.037,0,0,1,.03-0.02,0.106,0.106,0,0,1,.06-0.04,0.257,0.257,0,0,1,.05-0.02,0.433,0.433,0,0,0,.05-0.01,0.41,0.41,0,0,1,.22,0,0.433,0.433,0,0,1,.05.01c0.02,0,.04.02,0.06,0.02,0.02,0.02.03,0.02,0.05,0.04a0.07,0.07,0,0,0,.04.02,0.311,0.311,0,0,1,.09.07l3.77,3.73a0.509,0.509,0,0,1,0,.75A0.561,0.561,0,0,1,3119.77,2779.47Z" transform="translate(-3107 -2774.66)"/>
</svg>
