<svg xmlns="http://www.w3.org/2000/svg" width="17.969" height="18" viewBox="0 0 17.969 18">
  <metadata><?xpacket begin="﻿" id="W5M0MpCehiHzreSzNTczkc9d"?>
<x:xmpmeta xmlns:x="adobe:ns:meta/" x:xmptk="Adobe XMP Core 5.6-c142 79.160924, 2017/07/13-01:06:39        ">
   <rdf:RDF xmlns:rdf="http://www.w3.org/1999/02/22-rdf-syntax-ns#">
      <rdf:Description rdf:about=""/>
   </rdf:RDF>
</x:xmpmeta>
                                                                                                    
                                                                                                    
                                                                                                    
                                                                                                    
                                                                                                    
                                                                                                    
                                                                                                    
                                                                                                    
                                                                                                    
                                                                                                    
                                                                                                    
                                                                                                    
                                                                                                    
                                                                                                    
                                                                                                    
                                                                                                    
                                                                                                    
                                                                                                    
                                                                                                    
                                                                                                    
                           
<?xpacket end="w"?></metadata>
<defs>
    <style>
      .cls-1 {
        fill: #fff;
        fill-rule: evenodd;
      }
    </style>
  </defs>
  <path id="人员管理" class="cls-1" d="M851.2,2480.71a1.775,1.775,0,1,0,1.772,1.78,1.78,1.78,0,0,0-1.772-1.78h0Zm0,2.63a0.855,0.855,0,1,1,.859-0.85,0.855,0.855,0,0,1-.859.85h0Zm4.687-1.78a0.627,0.627,0,0,0-.58-0.58h-0.04a1,1,0,0,1-1-1,1.181,1.181,0,0,1,.088-0.38,0.738,0.738,0,0,0-.273-0.9l-1.174-.65a0.732,0.732,0,0,0-.3-0.06,0.813,0.813,0,0,0-.562.23,0.924,0.924,0,0,1-1.609,0,0.787,0.787,0,0,0-.566-0.24,0.689,0.689,0,0,0-.289.06l-0.023.01-1.194.65-0.029.02a0.726,0.726,0,0,0-.246.88,1.133,1.133,0,0,1,.088.38,1,1,0,0,1-1,1h-0.046a0.626,0.626,0,0,0-.574.58,4.418,4.418,0,0,0,0,1.86,0.627,0.627,0,0,0,.581.58h0.039a1,1,0,0,1,1,1,1.057,1.057,0,0,1-.088.38,0.739,0.739,0,0,0,.272.9l1.151,0.64a0.742,0.742,0,0,0,.3.06,0.783,0.783,0,0,0,.568-0.24,1.576,1.576,0,0,1,.82-0.49,1.558,1.558,0,0,1,.824.5,0.765,0.765,0,0,0,.572.25,0.675,0.675,0,0,0,.32-0.08l1.164-.64,0.028-.02a0.716,0.716,0,0,0,.246-0.87,1.3,1.3,0,0,1-.088-0.39,1,1,0,0,1,1-1h0.046a0.627,0.627,0,0,0,.574-0.58,6.01,6.01,0,0,0,.1-0.93,5.894,5.894,0,0,0-.1-0.93h0Zm-0.872,1.54a1.921,1.921,0,0,0-1.667,1.9,1.8,1.8,0,0,0,.1.58l-0.84.47a2.816,2.816,0,0,0-.346-0.3,1.854,1.854,0,0,0-1.069-.41,1.757,1.757,0,0,0-1.06.41,2.779,2.779,0,0,0-.345.28l-0.8-.44a1.89,1.89,0,0,0-1.564-2.49,4.52,4.52,0,0,1-.058-0.61,4.361,4.361,0,0,1,.058-0.61,1.913,1.913,0,0,0,1.666-1.9,1.89,1.89,0,0,0-.1-0.58l0.868-.48a2.759,2.759,0,0,0,.344.29,1.818,1.818,0,0,0,1.042.39,1.853,1.853,0,0,0,1.035-.38,4.179,4.179,0,0,0,.342-0.28l0.831,0.46a1.885,1.885,0,0,0-.1.58,1.913,1.913,0,0,0,1.667,1.9,4.369,4.369,0,0,1,.057.61,4.226,4.226,0,0,1-.057.61h0Zm-15.839,2.6v-1a6.586,6.586,0,0,1,5.986-6.54h0.007c0.206-.02.414-0.04,0.625-0.04,0.031,0,.062.01,0.094,0.01a4.525,4.525,0,0,0,2.45-.76l0.289-.22a4.537,4.537,0,0,0,1.764-3.59,4.6,4.6,0,0,0-9.2,0,4.538,4.538,0,0,0,1.765,3.59l0.287,0.22-0.338.14a7.7,7.7,0,0,0-4.918,7.19v1.59a0.587,0.587,0,0,0,.592.58h8.658a5.911,5.911,0,0,1-.715-1.17h-7.349Zm3.2-12.14a3.413,3.413,0,1,1,3.414,3.39,3.406,3.406,0,0,1-3.414-3.39h0Zm0,0" transform="translate(-838 -2469)"/>
</svg>
