<svg xmlns="http://www.w3.org/2000/svg" width="17.938" height="16.97" viewBox="0 0 17.938 16.97">
  <metadata><?xpacket begin="﻿" id="W5M0MpCehiHzreSzNTczkc9d"?>
<x:xmpmeta xmlns:x="adobe:ns:meta/" x:xmptk="Adobe XMP Core 5.6-c142 79.160924, 2017/07/13-01:06:39        ">
   <rdf:RDF xmlns:rdf="http://www.w3.org/1999/02/22-rdf-syntax-ns#">
      <rdf:Description rdf:about=""/>
   </rdf:RDF>
</x:xmpmeta>
                                                                                                    
                                                                                                    
                                                                                                    
                                                                                                    
                                                                                                    
                                                                                                    
                                                                                                    
                                                                                                    
                                                                                                    
                                                                                                    
                                                                                                    
                                                                                                    
                                                                                                    
                                                                                                    
                                                                                                    
                                                                                                    
                                                                                                    
                                                                                                    
                                                                                                    
                                                                                                    
                           
<?xpacket end="w"?></metadata>
<defs>
    <style>
      .cls-1 {
        fill: #fff;
        fill-rule: evenodd;
      }
    </style>
  </defs>
  <path id="人员抽调及安排" class="cls-1" d="M854.807,2527.24a0.286,0.286,0,0,1-.155.03,0.316,0.316,0,0,1-.281-0.16l-0.218-.38a2.916,2.916,0,0,1-5.52.86,0.244,0.244,0,0,1,.124-0.38,0.279,0.279,0,0,1,.406.12,2.371,2.371,0,0,0,2.089,1.32,2.346,2.346,0,0,0,2.309-2.02l-0.343.22a0.2,0.2,0,0,1-.157.04,0.339,0.339,0,0,1-.28-0.16,0.321,0.321,0,0,1,.093-0.45l1-.64a0.064,0.064,0,0,1,.062-0.03c0.032-.04.032-0.04,0.062-0.04h0.126c0.031,0,.031.04,0.062,0.04s0.031,0.03.063,0.03l0.031,0.03c0,0.03.031,0.03,0.031,0.06l0.593,1.03A0.4,0.4,0,0,1,854.807,2527.24Zm-1.308-2.66a2.261,2.261,0,0,0-2.059-1.34,2.385,2.385,0,0,0-2.339,2.14l0.374-.35a0.3,0.3,0,0,1,.438,0,0.321,0.321,0,0,1,0,.45l-0.844.83a0.109,0.109,0,0,1-.061.03,0.031,0.031,0,0,1-.032.03,0.2,0.2,0,0,1-.126.04,0.156,0.156,0,0,1-.124-0.04l-0.093-.09-0.779-.9a0.351,0.351,0,0,1,.031-0.45,0.332,0.332,0,0,1,.436.04l0.156,0.28a3.012,3.012,0,0,1,2.932-2.62h0.031a2.98,2.98,0,0,1,2.62,1.7,0.313,0.313,0,0,1-.156.41A0.3,0.3,0,0,1,853.5,2524.58Zm-0.99-3.05a1.83,1.83,0,0,1-.87.71,5.977,5.977,0,0,0-3.125-1.25h-0.007c-0.092-.01-0.184-0.01-0.277-0.02-0.066.01-.13,0.01-0.191,0.02h-0.081a7.08,7.08,0,0,1,1.45,1.16,3.82,3.82,0,0,0-.727.85,6.063,6.063,0,0,0-3.928-2.01h-0.006c-0.093-.01-0.185-0.01-0.278-0.02-0.066.01-.13,0.01-0.19,0.02h-0.088c-0.2,0-.386.01-0.575,0.02h-0.007a6.193,6.193,0,0,0-5.522,6.2v0.95h5.4l0.012-.03h4.3c0.008,0.16-.019.31-0.007,0.46,0.025,0.22,0,.44,0,0.66h-2.287a0.032,0.032,0,0,1,.017.02H837.54a0.553,0.553,0,0,1-.546-0.56v-1.5a7.3,7.3,0,0,1,4.536-6.81l0.311-.13-0.263-.21a4.561,4.561,0,0,1-.692-0.69,4.35,4.35,0,0,1-.955-2.73,4.287,4.287,0,0,1,4.241-4.32,4.074,4.074,0,0,0,3.761,0,4.221,4.221,0,0,1,3.279,1.58,4.369,4.369,0,0,1-.646,6.16l-0.252.2,0.279,0.12A6.823,6.823,0,0,1,852.509,2521.53Zm-8.318-8.08a3.184,3.184,0,0,0-3.149,3.21,3.221,3.221,0,0,0,.716,2.04,3.13,3.13,0,0,0,2.414,1.15,3.183,3.183,0,0,0,3.148-3.21,3.257,3.257,0,0,0-.717-2.04A3.126,3.126,0,0,0,844.191,2513.45Zm6.889,3.19a3.257,3.257,0,0,0-.716-2.04,3.126,3.126,0,0,0-2.412-1.15,3.2,3.2,0,0,0-.824.13c0.107,0.11.226,0.2,0.322,0.32a4.325,4.325,0,0,1-.323,5.84,3.068,3.068,0,0,0,.806.11A3.182,3.182,0,0,0,851.08,2516.64Z" transform="translate(-837 -2512.31)"/>
</svg>
