<svg xmlns="http://www.w3.org/2000/svg" width="15.03" height="15.03" viewBox="0 0 15.03 15.03">
  <metadata><?xpacket begin="﻿" id="W5M0MpCehiHzreSzNTczkc9d"?>
<x:xmpmeta xmlns:x="adobe:ns:meta/" x:xmptk="Adobe XMP Core 5.6-c142 79.160924, 2017/07/13-01:06:39        ">
   <rdf:RDF xmlns:rdf="http://www.w3.org/1999/02/22-rdf-syntax-ns#">
      <rdf:Description rdf:about=""/>
   </rdf:RDF>
</x:xmpmeta>
                                                                                                    
                                                                                                    
                                                                                                    
                                                                                                    
                                                                                                    
                                                                                                    
                                                                                                    
                                                                                                    
                                                                                                    
                                                                                                    
                                                                                                    
                                                                                                    
                                                                                                    
                                                                                                    
                                                                                                    
                                                                                                    
                                                                                                    
                                                                                                    
                                                                                                    
                                                                                                    
                           
<?xpacket end="w"?></metadata>
<defs>
    <style>
      .cls-1 {
        fill: #fff;
        fill-rule: evenodd;
      }
    </style>
  </defs>
  <path id="保存" class="cls-1" d="M3560.49,2701.52a2.515,2.515,0,0,1-1.77.74h-10.03a2.509,2.509,0,0,1-2.5-2.51v-10.03a2.492,2.492,0,0,1,2.5-2.5h10.03a2.509,2.509,0,0,1,2.51,2.5v10.03A2.515,2.515,0,0,1,3560.49,2701.52Zm-2.77-13.3h-8.02v4.51h8.02v-4.51Zm2.5,1.5a1.474,1.474,0,0,0-.44-1.06,1.5,1.5,0,0,0-1.06-.44v4.67a0.928,0.928,0,0,1-1,.84h-8.02a0.931,0.931,0,0,1-1.01-.84v-4.67a1.5,1.5,0,0,0-1.06.44,1.516,1.516,0,0,0-.44,1.06v10.03a1.5,1.5,0,0,0,.44,1.06,1.458,1.458,0,0,0,1.06.44h10.03a1.5,1.5,0,0,0,1.5-1.5v-10.03Zm-4.01-.5a0.441,0.441,0,0,1,.5.5v1.51a0.5,0.5,0,1,1-1,0v-1.51A0.445,0.445,0,0,1,3556.21,2689.22Z" transform="translate(-3546.19 -2687.22)"/>
</svg>
