<svg xmlns="http://www.w3.org/2000/svg" width="19" height="19" viewBox="0 0 19 19">
  <metadata><?xpacket begin="﻿" id="W5M0MpCehiHzreSzNTczkc9d"?>
<x:xmpmeta xmlns:x="adobe:ns:meta/" x:xmptk="Adobe XMP Core 5.6-c142 79.160924, 2017/07/13-01:06:39        ">
   <rdf:RDF xmlns:rdf="http://www.w3.org/1999/02/22-rdf-syntax-ns#">
      <rdf:Description rdf:about=""/>
   </rdf:RDF>
</x:xmpmeta>
                                                                                                    
                                                                                                    
                                                                                                    
                                                                                                    
                                                                                                    
                                                                                                    
                                                                                                    
                                                                                                    
                                                                                                    
                                                                                                    
                                                                                                    
                                                                                                    
                                                                                                    
                                                                                                    
                                                                                                    
                                                                                                    
                                                                                                    
                                                                                                    
                                                                                                    
                                                                                                    
                           
<?xpacket end="w"?></metadata>
<defs>
    <style>
      .cls-1 {
        fill: #fff;
        fill-rule: evenodd;
      }
    </style>
  </defs>
  <path id="信息查询" class="cls-1" d="M2328.09,3034.99h-7.74a1.344,1.344,0,0,1-1.35-1.35v-16.29a1.332,1.332,0,0,1,1.35-1.35h16.29a1.344,1.344,0,0,1,1.35,1.35v7.51a0.505,0.505,0,0,1-1.01,0v-7.51a0.35,0.35,0,0,0-.34-0.34h-16.29a0.358,0.358,0,0,0-.34.34v16.29a0.35,0.35,0,0,0,.34.34h7.74a0.505,0.505,0,1,1,0,1.01h0Zm5.07-5.01,2.82,2.83a0.634,0.634,0,0,1,0,.9,0.613,0.613,0,0,1-.44.19,0.636,0.636,0,0,1-.45-0.19l-2.88-2.9a6.2,6.2,0,0,1-3.63,1.16,6.344,6.344,0,1,1,4.58-1.99h0Zm-9.62-4.35a5.04,5.04,0,1,0,5.04-5.08,5.059,5.059,0,0,0-5.04,5.08h0Zm0,0" transform="translate(-2319 -3016)"/>
</svg>
