<svg xmlns="http://www.w3.org/2000/svg" width="18.03" height="17.93" viewBox="0 0 18.03 17.93">
  <metadata><?xpacket begin="﻿" id="W5M0MpCehiHzreSzNTczkc9d"?>
<x:xmpmeta xmlns:x="adobe:ns:meta/" x:xmptk="Adobe XMP Core 5.6-c142 79.160924, 2017/07/13-01:06:39        ">
   <rdf:RDF xmlns:rdf="http://www.w3.org/1999/02/22-rdf-syntax-ns#">
      <rdf:Description rdf:about=""/>
   </rdf:RDF>
</x:xmpmeta>
                                                                                                    
                                                                                                    
                                                                                                    
                                                                                                    
                                                                                                    
                                                                                                    
                                                                                                    
                                                                                                    
                                                                                                    
                                                                                                    
                                                                                                    
                                                                                                    
                                                                                                    
                                                                                                    
                                                                                                    
                                                                                                    
                                                                                                    
                                                                                                    
                                                                                                    
                                                                                                    
                           
<?xpacket end="w"?></metadata>
<defs>
    <style>
      .cls-1 {
        fill: #595959;
        fill-rule: evenodd;
      }
    </style>
  </defs>
  <path id="删除" class="cls-1" d="M1915,2532.35a1.106,1.106,0,0,1-1.09,1.12H1906a1.114,1.114,0,0,1-1.1-1.12v-11.91H1915v11.91Zm-7.9-13.92a0.224,0.224,0,0,1,.22-0.23h5.28a0.224,0.224,0,0,1,.22.23v0.68h-5.72v-0.68Zm11.19,0.68h-4.16v-0.68a1.558,1.558,0,0,0-1.53-1.57h-5.28a1.558,1.558,0,0,0-1.53,1.57v0.68h-4.18a0.675,0.675,0,0,0,0,1.35h1.97v11.89a2.439,2.439,0,0,0,2.42,2.47h7.91a2.437,2.437,0,0,0,2.41-2.47v-11.91h1.97a0.67,0.67,0,0,0,.67-0.67,0.655,0.655,0,0,0-.67-0.66h0Zm-8.34,12.33a0.662,0.662,0,0,0,.66-0.67v-7.19a0.66,0.66,0,1,0-1.32,0v7.19a0.668,0.668,0,0,0,.66.67m-3.08,0a0.662,0.662,0,0,0,.66-0.67v-7.19a0.66,0.66,0,1,0-1.32,0v7.19a0.681,0.681,0,0,0,.66.67m6.16,0a0.662,0.662,0,0,0,.66-0.67v-7.19a0.66,0.66,0,1,0-1.32,0v7.19a0.668,0.668,0,0,0,.66.67" transform="translate(-1900.94 -2516.88)"/>
</svg>
