<svg xmlns="http://www.w3.org/2000/svg" width="17" height="18" viewBox="0 0 17 18">
  <metadata><?xpacket begin="﻿" id="W5M0MpCehiHzreSzNTczkc9d"?>
<x:xmpmeta xmlns:x="adobe:ns:meta/" x:xmptk="Adobe XMP Core 5.6-c142 79.160924, 2017/07/13-01:06:39        ">
   <rdf:RDF xmlns:rdf="http://www.w3.org/1999/02/22-rdf-syntax-ns#">
      <rdf:Description rdf:about=""/>
   </rdf:RDF>
</x:xmpmeta>
                                                                                                    
                                                                                                    
                                                                                                    
                                                                                                    
                                                                                                    
                                                                                                    
                                                                                                    
                                                                                                    
                                                                                                    
                                                                                                    
                                                                                                    
                                                                                                    
                                                                                                    
                                                                                                    
                                                                                                    
                                                                                                    
                                                                                                    
                                                                                                    
                                                                                                    
                                                                                                    
                           
<?xpacket end="w"?></metadata>
<defs>
    <style>
      .cls-1 {
        fill: #fff;
        fill-rule: evenodd;
      }
    </style>
  </defs>
  <path id="制证模板" class="cls-1" d="M837.817,3118.19H853.18a0.834,0.834,0,0,0,.822-0.84v-4.63a0.834,0.834,0,0,0-.822-0.84H837.817a0.833,0.833,0,0,0-.821.84v4.63a0.833,0.833,0,0,0,.821.84h0Zm-0.105-5.47a0.108,0.108,0,0,1,.105-0.11H853.18a0.108,0.108,0,0,1,.106.11v4.63a0.108,0.108,0,0,1-.106.11H837.817a0.108,0.108,0,0,1-.105-0.11v-4.63Zm5.044,6.87h-4.777a0.854,0.854,0,0,0-.84.86v8.56a0.845,0.845,0,0,0,.84.85h4.777a0.845,0.845,0,0,0,.841-0.85v-8.56a0.854,0.854,0,0,0-.841-0.86h0Zm0.106,9.42a0.1,0.1,0,0,1-.106.1h-4.777a0.1,0.1,0,0,1-.105-0.1v-8.56a0.108,0.108,0,0,1,.105-0.11h4.777a0.108,0.108,0,0,1,.106.11v8.56Zm2.2-8.07h8.579a0.241,0.241,0,0,0,.239-0.24v-0.53a0.235,0.235,0,0,0-.239-0.24h-8.579a0.234,0.234,0,0,0-.238.24v0.53a0.24,0.24,0,0,0,.238.24h0Zm8.818,2.54v-0.53a0.243,0.243,0,0,0-.239-0.25h-8.579a0.243,0.243,0,0,0-.238.25v0.53a0.24,0.24,0,0,0,.238.24h8.579a0.241,0.241,0,0,0,.239-0.24h0Zm-0.239,2.27h-8.579a0.24,0.24,0,0,0-.238.24v0.53a0.24,0.24,0,0,0,.238.24h8.579a0.241,0.241,0,0,0,.239-0.24v-0.53a0.241,0.241,0,0,0-.239-0.24h0Zm0,2.8h-8.579a0.24,0.24,0,0,0-.238.24v0.53a0.24,0.24,0,0,0,.238.24h8.579a0.241,0.241,0,0,0,.239-0.24v-0.53a0.241,0.241,0,0,0-.239-0.24h0Zm0,0" transform="translate(-837 -3111.88)"/>
</svg>
