<svg xmlns="http://www.w3.org/2000/svg" width="24" height="24" viewBox="0 0 24 24">
  <metadata><?xpacket begin="﻿" id="W5M0MpCehiHzreSzNTczkc9d"?>
<x:xmpmeta xmlns:x="adobe:ns:meta/" x:xmptk="Adobe XMP Core 5.6-c142 79.160924, 2017/07/13-01:06:39        ">
   <rdf:RDF xmlns:rdf="http://www.w3.org/1999/02/22-rdf-syntax-ns#">
      <rdf:Description rdf:about=""/>
   </rdf:RDF>
</x:xmpmeta>
                                                                                                    
                                                                                                    
                                                                                                    
                                                                                                    
                                                                                                    
                                                                                                    
                                                                                                    
                                                                                                    
                                                                                                    
                                                                                                    
                                                                                                    
                                                                                                    
                                                                                                    
                                                                                                    
                                                                                                    
                                                                                                    
                                                                                                    
                                                                                                    
                                                                                                    
                                                                                                    
                           
<?xpacket end="w"?></metadata>
<defs>
    <style>
      .cls-1 {
        fill: #36b4f3;
        fill-rule: evenodd;
      }
    </style>
  </defs>
  <path id="勾选" class="cls-1" d="M3155,3532h-20a2.006,2.006,0,0,1-2-2v-20a2,2,0,0,1,2-2h20a2,2,0,0,1,2,2v20A2.006,2.006,0,0,1,3155,3532Zm-2.82-16.2h0a1.1,1.1,0,0,0-1.52.01l-7.84,7.66-3.47-3.45a1.1,1.1,0,0,0-1.52-.02,1.015,1.015,0,0,0-.03,1.47l4.24,4.21a0.01,0.01,0,0,1,.01.01v0.01a1.157,1.157,0,0,0,.24.14,0.763,0.763,0,0,0,.11.08,1.131,1.131,0,0,0,.81,0,0.746,0.746,0,0,0,.12-0.07,0.827,0.827,0,0,0,.23-0.15l0.01-.01h0.01l8.61-8.42A1.015,1.015,0,0,0,3152.18,3515.8Z" transform="translate(-3133 -3508)"/>
</svg>
