<svg xmlns="http://www.w3.org/2000/svg" width="15.25" height="15.66" viewBox="0 0 15.25 15.66">
  <metadata><?xpacket begin="﻿" id="W5M0MpCehiHzreSzNTczkc9d"?>
<x:xmpmeta xmlns:x="adobe:ns:meta/" x:xmptk="Adobe XMP Core 5.6-c142 79.160924, 2017/07/13-01:06:39        ">
   <rdf:RDF xmlns:rdf="http://www.w3.org/1999/02/22-rdf-syntax-ns#">
      <rdf:Description rdf:about=""/>
   </rdf:RDF>
</x:xmpmeta>
                                                                                                    
                                                                                                    
                                                                                                    
                                                                                                    
                                                                                                    
                                                                                                    
                                                                                                    
                                                                                                    
                                                                                                    
                                                                                                    
                                                                                                    
                                                                                                    
                                                                                                    
                                                                                                    
                                                                                                    
                                                                                                    
                                                                                                    
                                                                                                    
                                                                                                    
                                                                                                    
                           
<?xpacket end="w"?></metadata>
<defs>
    <style>
      .cls-1 {
        fill: #595959;
        fill-rule: evenodd;
      }
    </style>
  </defs>
  <path id="取消" class="cls-1" d="M3092.27,3774.23a7.578,7.578,0,0,1-8.53-4.68,7.943,7.943,0,0,1,2.8-9.5,7.472,7.472,0,0,1,9.62.96,7.973,7.973,0,0,1,2.24,5.55A7.777,7.777,0,0,1,3092.27,3774.23Zm-0.26-13.97a6.19,6.19,0,0,0-6.98,3.8,6.506,6.506,0,0,0,2.27,7.79,6.1,6.1,0,0,0,7.87-.77h0.01a6.487,6.487,0,0,0,1.83-4.52A6.355,6.355,0,0,0,3092.01,3760.26Zm1.21,9.89-2.44-2.52-2.44,2.52-1.05-1.08,2.44-2.51-2.44-2.52,1.05-1.07,2.44,2.51,2.44-2.51,1.05,1.07-2.44,2.52,2.44,2.51Z" transform="translate(-3083.16 -3758.72)"/>
</svg>
