<svg xmlns="http://www.w3.org/2000/svg" width="18.97" height="16.97" viewBox="0 0 18.97 16.97">
  <metadata><?xpacket begin="﻿" id="W5M0MpCehiHzreSzNTczkc9d"?>
<x:xmpmeta xmlns:x="adobe:ns:meta/" x:xmptk="Adobe XMP Core 5.6-c142 79.160924, 2017/07/13-01:06:39        ">
   <rdf:RDF xmlns:rdf="http://www.w3.org/1999/02/22-rdf-syntax-ns#">
      <rdf:Description rdf:about=""/>
   </rdf:RDF>
</x:xmpmeta>
                                                                                                    
                                                                                                    
                                                                                                    
                                                                                                    
                                                                                                    
                                                                                                    
                                                                                                    
                                                                                                    
                                                                                                    
                                                                                                    
                                                                                                    
                                                                                                    
                                                                                                    
                                                                                                    
                                                                                                    
                                                                                                    
                                                                                                    
                                                                                                    
                                                                                                    
                                                                                                    
                           
<?xpacket end="w"?></metadata>
<defs>
    <style>
      .cls-1 {
        fill: #36b4f3;
        fill-rule: evenodd;
      }
    </style>
  </defs>
  <path id="图片" class="cls-1" d="M3136.25,3016.96h-15.53a1.763,1.763,0,0,1-1.74-1.78v-13.4a1.754,1.754,0,0,1,1.74-1.77h15.53a1.75,1.75,0,0,1,1.73,1.76v13.41A1.761,1.761,0,0,1,3136.25,3016.96Zm0.47-15.18a0.478,0.478,0,0,0-.47-0.48h-15.53a0.478,0.478,0,0,0-.48.47v9.88l2.8-2.48h0.01a2.364,2.364,0,0,1,.74-0.38,1.55,1.55,0,0,1,1.65.42c0.7,0.72,1.43,1.55,1.63,1.78,0.39-.37,3.54-3.39,3.79-3.63a2.394,2.394,0,0,1,1.59-.71,2.035,2.035,0,0,1,1.52.72,38.245,38.245,0,0,1,2.75,3.95v-9.54Zm0.01,11.66a63.174,63.174,0,0,0-3.67-5.19,0.821,0.821,0,0,0-.6-0.32h-0.01a1.142,1.142,0,0,0-.69.32l-0.02.02-0.01.01c-0.99.96-3.63,3.48-3.8,3.65a1.127,1.127,0,0,1-1.76-.04c-0.08-.09-0.88-1.01-1.62-1.77a0.347,0.347,0,0,0-.38-0.11,1.2,1.2,0,0,0-.32.15l-3.61,3.23v1.78a0.482,0.482,0,0,0,.48.49h15.53a0.489,0.489,0,0,0,.48-0.49v-1.73Zm-12.69-6.33a1.855,1.855,0,1,1,1.82-1.86A1.834,1.834,0,0,1,3124.04,3007.11Zm0-2.44a0.575,0.575,0,1,0,.56.57A0.566,0.566,0,0,0,3124.04,3004.67Z" transform="translate(-3119 -3000)"/>
</svg>
