<svg xmlns="http://www.w3.org/2000/svg" width="16" height="14.97" viewBox="0 0 16 14.97">
  <metadata><?xpacket begin="﻿" id="W5M0MpCehiHzreSzNTczkc9d"?>
<x:xmpmeta xmlns:x="adobe:ns:meta/" x:xmptk="Adobe XMP Core 5.6-c142 79.160924, 2017/07/13-01:06:39        ">
   <rdf:RDF xmlns:rdf="http://www.w3.org/1999/02/22-rdf-syntax-ns#">
      <rdf:Description rdf:about=""/>
   </rdf:RDF>
</x:xmpmeta>
                                                                                                    
                                                                                                    
                                                                                                    
                                                                                                    
                                                                                                    
                                                                                                    
                                                                                                    
                                                                                                    
                                                                                                    
                                                                                                    
                                                                                                    
                                                                                                    
                                                                                                    
                                                                                                    
                                                                                                    
                                                                                                    
                                                                                                    
                                                                                                    
                                                                                                    
                                                                                                    
                           
<?xpacket end="w"?></metadata>
<defs>
    <style>
      .cls-1 {
        fill: #fff;
        fill-rule: evenodd;
      }
    </style>
  </defs>
  <path id="恢复" class="cls-1" d="M2056.18,3905.99h-10.95a0.835,0.835,0,0,1-.82-0.84v-7.57a0.828,0.828,0,0,1,.82-0.84h2.96v-1.53a3.106,3.106,0,1,0-6.21,0v0.13H2041v-0.13a4.086,4.086,0,1,1,8.17,0v1.53h7.01a0.828,0.828,0,0,1,.82.84v7.57A0.835,0.835,0,0,1,2056.18,3905.99Zm-0.16-7.92a0.333,0.333,0,0,0-.33-0.33h-9.97a0.333,0.333,0,0,0-.33.33v6.58a0.333,0.333,0,0,0,.33.33h9.97a0.333,0.333,0,0,0,.33-0.33v-6.58Zm-5.31,4.7a0.487,0.487,0,0,1-.49-0.5v-1.82a0.487,0.487,0,0,1,.49-0.5,0.493,0.493,0,0,1,.49.5v1.82A0.493,0.493,0,0,1,2050.71,3902.77Z" transform="translate(-2041 -3891.03)"/>
</svg>
