<svg xmlns="http://www.w3.org/2000/svg" width="16.66" height="16.56" viewBox="0 0 16.66 16.56">
  <metadata><?xpacket begin="﻿" id="W5M0MpCehiHzreSzNTczkc9d"?>
<x:xmpmeta xmlns:x="adobe:ns:meta/" x:xmptk="Adobe XMP Core 5.6-c142 79.160924, 2017/07/13-01:06:39        ">
   <rdf:RDF xmlns:rdf="http://www.w3.org/1999/02/22-rdf-syntax-ns#">
      <rdf:Description rdf:about=""/>
   </rdf:RDF>
</x:xmpmeta>
                                                                                                    
                                                                                                    
                                                                                                    
                                                                                                    
                                                                                                    
                                                                                                    
                                                                                                    
                                                                                                    
                                                                                                    
                                                                                                    
                                                                                                    
                                                                                                    
                                                                                                    
                                                                                                    
                                                                                                    
                                                                                                    
                                                                                                    
                                                                                                    
                                                                                                    
                                                                                                    
                           
<?xpacket end="w"?></metadata>
<defs>
    <style>
      .cls-1 {
        fill: #fff;
        fill-rule: evenodd;
      }
    </style>
  </defs>
  <path id="确定" class="cls-1" d="M1406.04,2801.08a1.017,1.017,0,0,1-.46.16,0.725,0.725,0,0,1-.54-0.23l-2.31-2.46a0.653,0.653,0,0,1,0-1,0.667,0.667,0,0,1,1,0l1.85,1.92,5.32-4.6a0.747,0.747,0,0,1,1,.23,0.719,0.719,0,0,1-.08,1Zm8.94-2.22a8.353,8.353,0,0,1-3.16,5.45,8.115,8.115,0,0,1-6.16,1.68,7.973,7.973,0,0,1-5.55-3.07,8.181,8.181,0,0,1-1.69-6.06,8.474,8.474,0,0,1,3.16-5.6,8.135,8.135,0,0,1,6.16-1.69,8.474,8.474,0,0,1,4.47,2,0.713,0.713,0,0,1,.07,1,0.732,0.732,0,0,1-1,.07,7.034,7.034,0,0,0-3.69-1.61,6.734,6.734,0,0,0-5.09,1.38,6.789,6.789,0,0,0-1.23,9.59,6.9,6.9,0,0,0,4.62,2.61,6.745,6.745,0,0,0,5.09-1.38,6.534,6.534,0,0,0,2.61-4.53,7.847,7.847,0,0,0,0-1.99,0.613,0.613,0,0,1,.47-0.84,0.583,0.583,0,0,1,.53.02,0.594,0.594,0,0,1,.31.44A15.191,15.191,0,0,1,1414.98,2798.86Z" transform="translate(-1398.34 -2789.5)"/>
</svg>
