<svg xmlns="http://www.w3.org/2000/svg" width="28" height="26.97" viewBox="0 0 28 26.97">
  <defs>
    <style>
      .cls-1 {
        fill: #fff;
        fill-rule: evenodd;
      }
    </style>
  </defs>
  <path id="系统LOGO" class="cls-1" d="M858.38,2419v0.47a0.561,0.561,0,0,1-.547.57H852.16a0.561,0.561,0,0,1-.547-0.57V2419H840.971v8.38a2.278,2.278,0,0,0,2.219,2.33h23.552a2.267,2.267,0,0,0,2.217-2.33V2419H858.38Zm-6.767-1.73v-0.47a0.565,0.565,0,0,1,.547-0.57h5.673a0.561,0.561,0,0,1,.547.57v0.47h10.579v-8.15a2.254,2.254,0,0,0-2.2-2.33h-6.5v-2.17a1.823,1.823,0,0,0-1.641-1.87h-7.268a1.821,1.821,0,0,0-1.64,1.87v2.17h-6.516a2.278,2.278,0,0,0-2.22,2.33v8.15h10.642Zm0.062-12.18a0.408,0.408,0,0,1,.407-0.42h5.782a0.413,0.413,0,0,1,.406.42v1.68h-6.594v-1.68h0Zm0,0" transform="translate(-840.969 -2402.75)"/>
</svg>
