<svg xmlns="http://www.w3.org/2000/svg" width="19" height="18" viewBox="0 0 19 18">
  <metadata><?xpacket begin="﻿" id="W5M0MpCehiHzreSzNTczkc9d"?>
<x:xmpmeta xmlns:x="adobe:ns:meta/" x:xmptk="Adobe XMP Core 5.6-c142 79.160924, 2017/07/13-01:06:39        ">
   <rdf:RDF xmlns:rdf="http://www.w3.org/1999/02/22-rdf-syntax-ns#">
      <rdf:Description rdf:about=""/>
   </rdf:RDF>
</x:xmpmeta>
                                                                                                    
                                                                                                    
                                                                                                    
                                                                                                    
                                                                                                    
                                                                                                    
                                                                                                    
                                                                                                    
                                                                                                    
                                                                                                    
                                                                                                    
                                                                                                    
                                                                                                    
                                                                                                    
                                                                                                    
                                                                                                    
                                                                                                    
                                                                                                    
                                                                                                    
                                                                                                    
                           
<?xpacket end="w"?></metadata>
<defs>
    <style>
      .cls-1 {
        fill: #fff;
        fill-rule: evenodd;
      }
    </style>
  </defs>
  <path id="规则设置" class="cls-1" d="M838.375,3086.9a2.424,2.424,0,0,1-1.647-.66,2.33,2.33,0,0,1-.728-1.61v-6.88a1.479,1.479,0,0,1,.441-0.98,1.508,1.508,0,0,1,1-.43h1.331a0.4,0.4,0,0,1,.383.39,0.388,0.388,0,0,1-.383.39h-1.331a0.7,0.7,0,0,0-.439.21,0.684,0.684,0,0,0-.209.42v6.88a1.521,1.521,0,0,0,.5,1.05,1.631,1.631,0,0,0,1.117.44,1.529,1.529,0,0,0,1.079-.44,1.6,1.6,0,0,0,.41-0.65,1.279,1.279,0,0,0,.065-0.4v-14.39a1.285,1.285,0,0,1,.359-0.94,1.249,1.249,0,0,1,.915-0.4H853.56a1.444,1.444,0,0,1,1,.4,1.356,1.356,0,0,1,.441.94v14.39a2.312,2.312,0,0,1-.719,1.61,2.385,2.385,0,0,1-1.669.68H838.375v-0.02h0Zm1.773-.77h12.463a1.639,1.639,0,0,0,1.109-.44,1.555,1.555,0,0,0,.487-1.06v-14.39a0.646,0.646,0,0,0-.209-0.39,0.667,0.667,0,0,0-.438-0.17H841.232a0.476,0.476,0,0,0-.355.17,0.531,0.531,0,0,0-.127.39v14.39a2.284,2.284,0,0,1-.6,1.5h0Zm10.893-11.75h-7.52a0.39,0.39,0,0,1,0-.78h7.52a0.4,0.4,0,0,1,.343.19,0.407,0.407,0,0,1,0,.4,0.4,0.4,0,0,1-.343.19h0Zm0,2.35H845.9a0.39,0.39,0,0,1,0-.78h5.146a0.4,0.4,0,0,1,.343.19,0.407,0.407,0,0,1,0,.4,0.4,0.4,0,0,1-.343.19h0Zm0,2.74h-7.52a0.391,0.391,0,0,1-.4-0.39,0.4,0.4,0,0,1,.4-0.39h7.52a0.4,0.4,0,0,1,.4.39,0.391,0.391,0,0,1-.4.39h0Zm0,0" transform="translate(-836 -3068.91)"/>
</svg>
