<svg xmlns="http://www.w3.org/2000/svg" width="18.97" height="20.35" viewBox="0 0 18.97 20.35">
  <metadata><?xpacket begin="﻿" id="W5M0MpCehiHzreSzNTczkc9d"?>
<x:xmpmeta xmlns:x="adobe:ns:meta/" x:xmptk="Adobe XMP Core 5.6-c142 79.160924, 2017/07/13-01:06:39        ">
   <rdf:RDF xmlns:rdf="http://www.w3.org/1999/02/22-rdf-syntax-ns#">
      <rdf:Description rdf:about=""/>
   </rdf:RDF>
</x:xmpmeta>
                                                                                                    
                                                                                                    
                                                                                                    
                                                                                                    
                                                                                                    
                                                                                                    
                                                                                                    
                                                                                                    
                                                                                                    
                                                                                                    
                                                                                                    
                                                                                                    
                                                                                                    
                                                                                                    
                                                                                                    
                                                                                                    
                                                                                                    
                                                                                                    
                                                                                                    
                                                                                                    
                           
<?xpacket end="w"?></metadata>
<defs>
    <style>
      .cls-1 {
        fill: #fff;
        fill-rule: evenodd;
      }
    </style>
  </defs>
  <path id="角色权限管理" class="cls-1" d="M2340.23,2922.11h-5.43a1.041,1.041,0,0,1-1.06-1.03v-3.14a1.041,1.041,0,0,1,1-1.02v-0.71a2.749,2.749,0,0,1,2.77-2.7,2.8,2.8,0,0,1,1.96.79,2.608,2.608,0,0,1,.81,1.91v0.71a1.042,1.042,0,0,1,1.01,1.02v3.15a1.046,1.046,0,0,1-1.06,1.02h0Zm-1.16-5.9a1.5,1.5,0,0,0-.45-1.08,1.618,1.618,0,0,0-1.11-.44,1.539,1.539,0,0,0-1.55,1.52v0.7h3.11v-0.7Zm1,1.88h-5.12v2.84h5.12v-2.84Zm-8.37-3.99v0.01a8.272,8.272,0,0,0-5.78,2.33,7.79,7.79,0,0,0-2.39,5.62h-1.21a8.859,8.859,0,0,1,.74-3.55,9.1,9.1,0,0,1,2.01-2.9,9.408,9.408,0,0,1,2.98-1.96c0.23-.09.47-0.17,0.7-0.25a6.33,6.33,0,0,1-1.56-1.11,6.052,6.052,0,0,1,0-8.73,6.481,6.481,0,0,1,8.98,0,6.075,6.075,0,0,1,0,8.73,6.394,6.394,0,0,1-4.47,1.82v-0.01Zm-0.02-11.17a5,5,0,1,0,5.14,5,5.075,5.075,0,0,0-5.14-4.99v-0.01Zm0,0" transform="translate(-2322.31 -2901.78)"/>
</svg>
