<svg xmlns="http://www.w3.org/2000/svg" width="13.97" height="16" viewBox="0 0 13.97 16">
  <metadata><?xpacket begin="﻿" id="W5M0MpCehiHzreSzNTczkc9d"?>
<x:xmpmeta xmlns:x="adobe:ns:meta/" x:xmptk="Adobe XMP Core 5.6-c142 79.160924, 2017/07/13-01:06:39        ">
   <rdf:RDF xmlns:rdf="http://www.w3.org/1999/02/22-rdf-syntax-ns#">
      <rdf:Description rdf:about=""/>
   </rdf:RDF>
</x:xmpmeta>
                                                                                                    
                                                                                                    
                                                                                                    
                                                                                                    
                                                                                                    
                                                                                                    
                                                                                                    
                                                                                                    
                                                                                                    
                                                                                                    
                                                                                                    
                                                                                                    
                                                                                                    
                                                                                                    
                                                                                                    
                                                                                                    
                                                                                                    
                                                                                                    
                                                                                                    
                                                                                                    
                           
<?xpacket end="w"?></metadata>
<defs>
    <style>
      .cls-1 {
        fill: #fff;
        fill-rule: evenodd;
      }
    </style>
  </defs>
  <path id="锁定" class="cls-1" d="M2056.61,3099.99h-12.16a0.9,0.9,0,0,1-.9-0.9v-8.1a0.9,0.9,0,0,1,.9-0.9h1.53v-1.63a4.535,4.535,0,0,1,9.07,0v1.63h1.56a0.9,0.9,0,0,1,.9.9v8.1a0.9,0.9,0,0,1-.9.9h0Zm-2.65-11.53a3.445,3.445,0,0,0-6.89,0v1.63h6.89v-1.63Zm2.47,3.06a0.367,0.367,0,0,0-.37-0.36H2045a0.367,0.367,0,0,0-.37.36v7.03a0.367,0.367,0,0,0,.37.36h11.06a0.367,0.367,0,0,0,.37-0.36v-7.03Zm-5.9,5.03a0.538,0.538,0,0,1-.54-0.54v-1.95a0.54,0.54,0,0,1,1.08,0v1.95a0.538,0.538,0,0,1-.54.54h0Zm0,0" transform="translate(-2043.53 -3084)"/>
</svg>
